<?xml version="1.0" encoding="UTF-8" standalone="no"?>
<!DOCTYPE svg PUBLIC "-//W3C//DTD SVG 1.1//EN" "http://www.w3.org/Graphics/SVG/1.1/DTD/svg11.dtd">
<svg width="100%" height="100%" viewBox="0 0 5906 3544" version="1.1" xmlns="http://www.w3.org/2000/svg" xmlns:xlink="http://www.w3.org/1999/xlink" xml:space="preserve" xmlns:serif="http://www.serif.com/" style="fill-rule:evenodd;clip-rule:evenodd;stroke-miterlimit:10;">
    <g transform="matrix(4.99995,2.55135e-16,3.06159e-16,-4.16667,2954.85,1026.5)">
        <path d="M-581.103,-581.103L581.103,-581.103" style="fill:none;fill-rule:nonzero;stroke:rgb(29,29,27);stroke-width:0.45px;"/>
    </g>
    <g>
        <g transform="matrix(2.55135e-16,-4.16667,4.16667,2.55135e-16,653.436,3144.67)">
            <path d="M0,-67.214C19.548,-79.247 30.828,-72.346 30.791,-50.54C30.834,-26.951 20.152,-16.201 -0.199,-19.304C-0.697,-19.363 -1.194,-19.421 -1.69,-19.48L-1.69,-30.459C-1.657,-30.46 -1.624,-30.462 -1.591,-30.463C5.069,-31.181 9.112,-36.728 9.108,-45.683C9.111,-54.515 4.969,-58.103 -1.591,-55.396C-1.624,-55.381 -1.657,-55.368 -1.69,-55.354L-1.69,-66.225C-1.128,-66.556 -0.564,-66.886 0,-67.214ZM-6.642,-2.896C-3.779,-1.718 -0.901,-0.565 1.993,0.564L1.993,12.033C-10.314,5.256 -22.349,-2.145 -34.061,-10.172L-34.061,-15.167C-31.751,-14.045 -29.427,-12.94 -27.092,-11.853L-27.092,-43.71C-29.427,-42.555 -31.751,-41.381 -34.061,-40.19L-34.061,-45.185C-25.103,-51.594 -15.956,-57.622 -6.642,-63.268L-6.642,-2.896Z" style="fill:none;fill-rule:nonzero;stroke:rgb(242,13,13);stroke-width:0.5px;"/>
        </g>
        <g transform="matrix(2.55135e-16,-4.16667,4.16667,2.55135e-16,869.159,2827.87)">
            <path d="M0,-153.843C21.603,-161.628 33.145,-147.526 33.119,-116.721C33.122,-95.816 27.771,-82.297 18.477,-76.156C23.445,-44.075 32.438,-14.494 42.94,-1.67C42.539,1.493 42.138,4.645 41.737,7.785C19.445,-1.309 6.086,-30.054 -2.135,-62.958C-2.17,-63.168 -2.206,-63.378 -2.241,-63.588L-2.241,-86.731C-2.206,-86.733 -2.17,-86.734 -2.135,-86.735C6.296,-87.784 9.861,-96.232 9.856,-111.344C9.86,-125.804 5.761,-133.887 -2.135,-132.424C-2.17,-132.415 -2.206,-132.406 -2.241,-132.397L-2.241,-153.062C-1.495,-153.324 -0.748,-153.585 0,-153.843ZM-7.563,-30.167C-5.19,-29.577 -2.812,-29.002 -0.427,-28.441L-0.427,-7.601C-12.883,-11.738 -25.182,-16.434 -37.28,-21.69L-37.28,-38.422C-34.757,-37.645 -32.225,-36.886 -29.684,-36.144L-29.684,-124.672C-32.225,-123.883 -34.757,-123.077 -37.28,-122.252L-37.28,-138.986C-27.498,-143.422 -17.584,-147.477 -7.563,-151.15L-7.563,-30.167Z" style="fill:none;fill-rule:nonzero;stroke:rgb(242,13,13);stroke-width:0.5px;"/>
        </g>
        <g transform="matrix(2.55135e-16,-4.16667,4.16667,2.55135e-16,251.447,2290.57)">
            <path d="M0,135.931C2.681,135.986 5.362,136.023 8.043,136.044L8.043,163.566C-6.035,163.41 -20.108,162.602 -34.12,161.142L-34.12,134.327C-31.192,134.543 -28.26,134.739 -25.327,134.915C-33.533,80.217 -41.722,26.577 -49.884,-24.831C-41.98,-25.984 -34.051,-26.919 -26.107,-27.635C-17.419,25.749 -8.713,80.71 0,135.931ZM-45.45,40.62C-47.557,53.392 -49.663,66.054 -51.767,78.588C-47.707,78.649 -43.639,78.704 -39.566,78.754C-38.159,88.095 -36.752,97.486 -35.343,106.92C-42.348,106.612 -49.337,106.237 -56.304,105.795C-57.778,114.535 -59.252,123.205 -60.724,131.797C-57.264,132.2 -53.798,132.575 -50.327,132.921L-50.327,159.157C-60.297,157.754 -70.226,156.017 -80.095,153.948L-80.095,129.231C-77.829,129.568 -75.559,129.892 -73.287,130.204C-65.517,92.503 -57.713,52.625 -49.884,11.402C-48.407,21.072 -46.929,30.813 -45.45,40.62Z" style="fill:none;fill-rule:nonzero;stroke:rgb(242,13,13);stroke-width:0.5px;"/>
        </g>
        <g transform="matrix(2.55135e-16,-4.16667,4.16667,2.55135e-16,925.491,2070.06)">
            <path d="M0,-189.345C20.376,-187.238 29.744,-170.778 29.75,-140.132C29.749,-120.96 24.56,-108.205 14.679,-102.441C27.667,-95.806 34.056,-80.407 34.06,-55.241C34.053,-22.091 22.717,-2.223 -0.111,0.086C-0.817,0.148 -1.522,0.208 -2.227,0.267L-2.227,-26.809C-2.079,-26.818 -1.931,-26.826 -1.782,-26.835C7.24,-27.416 12.124,-37.73 12.125,-55.812C12.124,-74.436 7.129,-84.516 -1.893,-84.486C-2.005,-84.485 -2.116,-84.484 -2.227,-84.483L-2.227,-109.665C-2.19,-109.665 -2.153,-109.664 -2.116,-109.664C5.124,-110.656 8.234,-119.95 8.235,-136.81C8.234,-151.782 5.236,-161.156 -2.116,-162.458C-2.153,-162.46 -2.19,-162.463 -2.227,-162.465L-2.227,-189.543C-1.485,-189.479 -0.742,-189.413 0,-189.345ZM-7.8,0.694C-18.021,1.415 -28.263,1.791 -38.506,1.821L-38.506,-25.708C-35.787,-25.714 -33.068,-25.737 -30.35,-25.777L-30.35,-163.562C-33.068,-163.604 -35.787,-163.629 -38.506,-163.635L-38.506,-191.166C-28.263,-191.135 -18.021,-190.742 -7.8,-189.99L-7.8,0.694Z" style="fill:none;fill-rule:nonzero;stroke:rgb(242,13,13);stroke-width:0.5px;"/>
        </g>
        <g transform="matrix(2.55135e-16,-4.16667,4.16667,2.55135e-16,719.926,1541.13)">
            <path d="M0,-90.356C-2.551,-91.121 -5.11,-91.867 -7.677,-92.595L-7.677,3.192C-5.11,2.507 -2.551,1.804 0,1.084L0,19.335C-12.441,24.291 -25.073,28.668 -37.851,32.466L-37.851,10.387C-35.231,9.835 -32.616,9.266 -30.008,8.679L-30.008,-98.423C-32.616,-99.046 -35.231,-99.65 -37.851,-100.236L-37.851,-122.317C-25.073,-118.352 -12.441,-113.782 0,-108.608L0,-90.356ZM-35.376,-36.492C-40.072,-36.363 -44.787,-36.242 -49.521,-36.127L-49.521,-59.17C-44.787,-58.915 -40.072,-58.643 -35.376,-58.356L-35.376,-36.492ZM-47.029,-102.208C-49.663,-102.752 -52.303,-103.277 -54.948,-103.784L-54.948,13.727C-52.303,13.25 -49.663,12.755 -47.029,12.244L-47.029,35.087C-59.875,38.609 -72.857,41.552 -85.931,43.916L-85.931,18.498C-83.25,18.155 -80.573,17.794 -77.9,17.416L-77.9,-107.702C-80.573,-108.104 -83.25,-108.487 -85.931,-108.851L-85.931,-134.272C-72.857,-131.803 -59.875,-128.731 -47.029,-125.054L-47.029,-102.208Z" style="fill:none;fill-rule:nonzero;stroke:rgb(242,13,13);stroke-width:0.5px;"/>
        </g>
        <g transform="matrix(2.55135e-16,-4.16667,4.16667,2.55135e-16,520.574,1214.25)">
            <path d="M0,19.99C2.303,18.917 4.595,17.827 6.874,16.72L6.874,21.715C-5.092,29.915 -17.394,37.463 -29.979,44.358L-29.979,32.762C-27.349,31.741 -24.731,30.7 -22.126,29.639C-29.414,11.949 -36.802,-13.242 -44.28,-44.763C-37.039,-40.977 -29.882,-36.973 -22.819,-32.751C-15.096,-7.243 -7.486,10.775 0,19.99ZM-40.228,-9.658C-42.148,-3.641 -44.074,2.795 -46.006,9.631C-42.278,9.437 -38.571,9.238 -34.888,9.033C-33.615,13.291 -32.346,17.342 -31.079,21.179C-37.38,22.588 -43.751,23.93 -50.186,25.205C-51.548,30.449 -52.912,35.885 -54.279,41.507C-51.066,40.438 -47.868,39.341 -44.686,38.215L-44.686,52.056C-53.826,56.621 -63.099,60.854 -72.487,64.753L-72.487,47.21C-70.331,46.575 -68.181,45.929 -66.038,45.269C-58.709,17.172 -51.453,-6.776 -44.28,-25.743C-42.926,-20.162 -41.576,-14.798 -40.228,-9.658Z" style="fill:none;fill-rule:nonzero;stroke:rgb(242,13,13);stroke-width:0.5px;"/>
        </g>
        <g transform="matrix(2.55135e-16,-4.16667,4.16667,2.55135e-16,2648.09,3012.67)">
            <path d="M0,-78.881C-1.849,-78.339 -3.694,-77.788 -5.533,-77.229C-4.399,-52.944 -3.263,-27.93 -2.125,-2.207C-0.28,-1.601 1.571,-1.004 3.426,-0.417L3.426,15.444C-5.596,11.502 -14.506,7.251 -23.286,2.689L-23.286,-9.658C-21.506,-8.988 -19.72,-8.327 -17.928,-7.675C-19.098,-34.344 -20.265,-60.045 -21.429,-84.751C-14.366,-88.128 -7.22,-91.32 0,-94.325L0,-78.881ZM-31.998,-46.553C-29.672,-56.726 -27.336,-67.852 -24.991,-79.882C-24.522,-70.252 -24.053,-60.456 -23.583,-50.495C-27.341,-34.297 -31.075,-20.17 -34.784,-8.294C-35.882,-8.83 -36.978,-9.372 -38.072,-9.917C-43.248,-31.272 -48.374,-48.21 -53.446,-60.216C-57.089,-58.723 -60.705,-57.191 -64.29,-55.622L-64.29,-61.292C-56.228,-66.303 -48.017,-71.042 -39.674,-75.511C-37.128,-67.064 -34.569,-57.389 -31.998,-46.553ZM-52.732,-47.689C-53.494,-38.97 -54.256,-30.69 -55.016,-22.854C-53.258,-22.05 -51.493,-21.256 -49.722,-20.471L-49.722,-12.236C-55.873,-15.997 -61.947,-19.921 -67.936,-24.007L-67.936,-28.999C-66.235,-28.158 -64.527,-27.327 -62.812,-26.505C-61.591,-34.85 -60.366,-44.204 -59.138,-54.541C-58.051,-54.906 -56.962,-55.267 -55.871,-55.626C-54.827,-53.193 -53.78,-50.545 -52.732,-47.689Z" style="fill:none;fill-rule:nonzero;stroke:rgb(242,13,13);stroke-width:0.5px;"/>
        </g>
        <g transform="matrix(2.55135e-16,-4.16667,4.16667,2.55135e-16,2285.64,2750.27)">
            <path d="M0,101.866C1.911,102.249 3.826,102.623 5.743,102.988L5.743,125.091C-4.322,122.449 -14.307,119.455 -24.19,116.109L-24.19,96.48C-22.124,96.987 -20.055,97.483 -17.98,97.967C-23.783,56.159 -29.552,17.361 -35.284,-17.831C-29.734,-19.734 -24.148,-21.532 -18.532,-23.225C-12.39,15.278 -6.211,57.198 0,101.866ZM-32.168,28.264C-33.65,37.446 -35.129,46.419 -36.606,55.172C-33.756,55.336 -30.897,55.495 -28.028,55.649C-27.038,62.444 -26.046,69.34 -25.053,76.331C-29.991,75.584 -34.904,74.799 -39.789,73.974C-40.823,79.948 -41.856,85.809 -42.887,91.555C-40.463,92.238 -38.033,92.905 -35.595,93.557L-35.595,112.074C-42.596,109.49 -49.542,106.727 -56.423,103.784L-56.423,87.551C-54.843,88.04 -53.259,88.523 -51.672,88.999C-46.247,64.725 -40.783,37.506 -35.284,7.765C-34.247,14.479 -33.208,21.313 -32.168,28.264Z" style="fill:none;fill-rule:nonzero;stroke:rgb(242,13,13);stroke-width:0.5px;"/>
        </g>
        <g transform="matrix(2.55135e-16,-4.16667,4.16667,2.55135e-16,2861.68,2581.73)">
            <path d="M0,-175.23C16.394,-178.087 25.007,-161.158 24.999,-128.494C25,-106.244 20.991,-92.029 13.983,-85.191C17.73,-49.688 24.501,-19.041 32.36,-7.235C32.06,-3.867 31.759,-0.503 31.459,2.857C14.766,-2.758 4.622,-31.463 -1.622,-69.739C-1.649,-69.981 -1.676,-70.224 -1.703,-70.466L-1.703,-97.489C-1.676,-97.49 -1.649,-97.49 -1.622,-97.49C4.783,-98.48 7.473,-107.855 7.472,-124.833C7.473,-141.074 4.377,-150.853 -1.622,-150.822C-1.649,-150.819 -1.676,-150.816 -1.703,-150.812L-1.703,-174.941C-1.135,-175.039 -0.568,-175.135 0,-175.23ZM-5.753,-30.487C-3.945,-30.234 -2.136,-29.989 -0.324,-29.752L-0.324,-5.553C-9.786,-7.264 -19.199,-9.275 -28.548,-11.589L-28.548,-34.125C-26.598,-33.775 -24.646,-33.435 -22.69,-33.104L-22.69,-147.943C-24.646,-147.644 -26.598,-147.337 -28.548,-147.02L-28.548,-169.556C-20.989,-171.298 -13.388,-172.856 -5.753,-174.23L-5.753,-30.487Z" style="fill:none;fill-rule:nonzero;stroke:rgb(242,13,13);stroke-width:0.5px;"/>
        </g>
        <g transform="matrix(2.55135e-16,-4.16667,4.16667,2.55135e-16,2886.9,2292.31)">
            <path d="M0,-192.311C5.263,-191.397 10.118,-188.01 13.82,-183.014C16.041,-167.983 18.262,-152.944 20.483,-137.918C17.713,-137.941 14.944,-137.953 12.174,-137.954C10.282,-149.74 6.827,-161.814 0,-163.796L0,-192.311ZM25.664,-70.168C23.855,-70.151 22.045,-70.137 20.236,-70.126L20.236,-57.561C20.236,-44.212 20.811,-38.978 22.621,-32.205L22.621,-31.157C18.509,-19.844 12.339,-7.937 4.359,-2.556L4.359,-70.117C2.303,-70.126 0.247,-70.141 -1.809,-70.159L-1.809,-96.302C7.346,-96.293 16.509,-96.294 25.664,-96.303L25.664,-70.168ZM-4.111,-163.714C-14.142,-160.55 -19.64,-136.163 -19.641,-96.331C-19.641,-56.522 -12.5,-28.626 -1.973,-28.327C-1.151,-28.309 -0.411,-28.552 0.247,-28.54L0.247,-0.55C-1.316,-0.063 -2.96,0.144 -4.687,0.081C-24.342,-0.918 -37.349,-40.203 -37.349,-96.382C-37.349,-149.506 -23.932,-190.21 -4.111,-192.455L-4.111,-163.714Z" style="fill:none;fill-rule:nonzero;stroke:rgb(242,13,13);stroke-width:0.5px;"/>
        </g>
        <g transform="matrix(2.55135e-16,-4.16667,4.16667,2.55135e-16,2237.59,1925.88)">
            <path d="M0,120.627C1.95,120.387 3.897,120.138 5.843,119.879L5.843,144.02C-4.371,145.894 -14.642,147.415 -24.949,148.584L-24.949,123.186C-22.795,123.009 -20.642,122.82 -18.492,122.621C-24.508,72.73 -30.539,21.477 -36.578,-30.539C-30.73,-30.062 -24.89,-29.48 -19.063,-28.793C-12.692,22.447 -6.336,72.477 0,120.627ZM-33.299,33.832C-34.856,46.102 -36.414,58.432 -37.972,70.814C-34.965,70.775 -31.961,70.731 -28.959,70.682C-27.922,79.596 -26.885,88.479 -25.849,97.326C-31.003,97.581 -36.166,97.796 -41.335,97.973C-42.429,106.792 -43.523,115.632 -44.618,124.491C-42.046,124.361 -39.475,124.215 -36.906,124.053L-36.906,149.781C-44.285,150.423 -51.678,150.884 -59.077,151.166L-59.077,125.056C-57.378,125.009 -55.679,124.956 -53.981,124.895C-48.174,84.489 -42.372,44.367 -36.578,4.954C-35.485,14.609 -34.392,24.236 -33.299,33.832Z" style="fill:none;fill-rule:nonzero;stroke:rgb(242,13,13);stroke-width:0.5px;"/>
        </g>
        <g transform="matrix(2.55135e-16,-4.16667,4.16667,2.55135e-16,2807.16,1757.02)">
            <path d="M0,-154.654C16.114,-150.292 24.321,-133.542 24.332,-108.116C24.33,-90.586 20.486,-79.512 13.677,-73.397C17.319,-43.417 23.881,-20.624 31.394,-14.887C31.107,-12.215 30.82,-9.532 30.533,-6.838C14.542,-3.578 4.544,-23.959 -1.597,-58.632C-1.624,-58.851 -1.65,-59.07 -1.677,-59.29L-1.677,-84.063C-1.65,-84.063 -1.624,-84.062 -1.597,-84.062C4.712,-84.921 7.326,-93 7.328,-107.749C7.327,-121.841 4.313,-131.191 -1.597,-132.932C-1.624,-132.937 -1.65,-132.941 -1.677,-132.946L-1.677,-155.066C-1.118,-154.93 -0.559,-154.792 0,-154.654ZM-5.676,-21.387C-3.888,-21.714 -2.102,-22.049 -0.319,-22.391L-0.319,-0.37C-9.633,2.101 -19.016,4.27 -28.451,6.137L-28.451,-17.677C-26.483,-17.959 -24.518,-18.251 -22.555,-18.552L-22.555,-136.185C-24.518,-136.458 -26.483,-136.722 -28.451,-136.977L-28.451,-160.791C-20.822,-159.385 -13.227,-157.796 -5.676,-156.023L-5.676,-21.387Z" style="fill:none;fill-rule:nonzero;stroke:rgb(242,13,13);stroke-width:0.5px;"/>
        </g>
        <g transform="matrix(2.55135e-16,-4.16667,4.16667,2.55135e-16,2282.5,1425.69)">
            <path d="M0,95.972C-6.132,98.942 -12.323,101.764 -18.566,104.438L-18.566,88.232C-14.234,86.888 -9.928,85.492 -5.648,84.044C-4.717,79.053 -3.787,74.175 -2.858,69.411C0.054,68.774 2.953,68.122 5.839,67.454C3.898,76.449 1.952,85.962 0,95.972ZM-6.102,63.219C-8.62,63.606 -11.147,63.985 -13.684,64.357L-13.684,53.423C-15.308,53.522 -16.935,53.62 -18.566,53.716L-18.566,37.024C-16.935,37.126 -15.308,37.229 -13.684,37.334L-13.684,26.401C-11.147,26.782 -8.62,27.17 -6.102,27.568L-6.102,63.219ZM-0.677,22.992C-3.181,22.453 -5.695,21.925 -8.219,21.408L-8.219,10.054C-11.651,9.021 -15.1,8.018 -18.566,7.045L-18.566,-9.161C-12.552,-6.763 -6.588,-4.237 -0.677,-1.583L-0.677,22.992ZM-22.395,106.057C-29.631,109.077 -36.935,111.899 -44.299,114.524L-44.299,95.539C-42.399,95.048 -40.504,94.548 -38.612,94.039L-38.612,1.79C-40.504,1.329 -42.4,0.877 -44.299,0.433L-44.299,-18.552C-36.935,-16.108 -29.631,-13.48 -22.395,-10.669L-22.395,106.057Z" style="fill:none;fill-rule:nonzero;stroke:rgb(242,13,13);stroke-width:0.5px;"/>
        </g>
        <g transform="matrix(2.55135e-16,-4.16667,4.16667,2.55135e-16,2470.36,1193.62)">
            <path d="M0,-6.062C-2.33,-6.64 -4.673,-7.209 -7.029,-7.77L-7.029,-14.118C-9.196,-15.028 -11.374,-15.925 -13.562,-16.808L-13.562,-24.247C-11.374,-22.985 -9.196,-21.704 -7.029,-20.403L-7.029,-23.42C-4.673,-21.803 -2.33,-20.161 0,-18.492L0,-6.062ZM-17.137,21.706C-15.393,20.928 -13.654,20.141 -11.922,19.344L-11.922,26.499C-20.369,31.863 -28.968,36.915 -37.703,41.655L-37.703,30.324C-35.912,29.62 -34.126,28.907 -32.347,28.183L-32.347,-34.594C-27.227,-31.952 -22.156,-29.21 -17.137,-26.368L-17.137,21.706ZM-39.397,-38.039C-38.266,-37.482 -37.137,-36.92 -36.011,-36.353L-36.011,-25.278C-37.848,-25.925 -39.69,-26.563 -41.539,-27.191C-42.328,-23.454 -43.117,-19.599 -43.908,-15.629C-46.577,-16.135 -49.258,-16.632 -51.95,-17.117C-50.255,-27.906 -48.564,-38.114 -46.878,-47.717C-44.077,-46.211 -41.288,-44.671 -38.513,-43.098C-38.807,-41.433 -39.102,-39.747 -39.397,-38.039Z" style="fill:none;fill-rule:nonzero;stroke:rgb(242,13,13);stroke-width:0.5px;"/>
        </g>
        <g transform="matrix(2.55135e-16,-4.16667,4.16667,2.55135e-16,3153.3,2863.87)">
            <path d="M0,139.981C-14.71,134.486 -29.181,128.159 -43.339,120.999L-43.339,106.36C-33.515,109.91 -23.54,113.175 -13.44,116.152C-11.241,110.864 -9.037,105.314 -6.827,99.517C0.102,100.718 7.087,101.836 14.121,102.872C9.391,116.21 4.683,128.627 0,139.981ZM-14.509,89.492C-20.445,88.735 -26.337,87.935 -32.181,87.093L-32.181,75.759C-35.921,75.571 -39.64,75.377 -43.339,75.177L-43.339,60.095C-39.64,59.746 -35.921,59.407 -32.181,59.079L-32.181,47.744C-26.337,46.683 -20.445,45.675 -14.509,44.721L-14.509,89.492ZM-1.62,34.991C-7.617,36.12 -13.574,37.318 -19.485,38.585L-19.485,25.041C-27.524,27.515 -35.48,30.172 -43.339,33.012L-43.339,18.373C-29.701,11.476 -15.773,5.352 -1.62,0L-1.62,34.991ZM-51.968,116.511C-68.171,107.849 -83.937,98.075 -99.155,87.19L-99.155,82.196C-95.229,84.203 -91.267,86.157 -87.271,88.058L-87.271,51.314C-91.267,53.215 -95.229,55.169 -99.155,57.176L-99.155,52.182C-83.937,41.297 -68.171,31.524 -51.968,22.861L-51.968,116.511Z" style="fill:none;fill-rule:nonzero;stroke:rgb(242,13,13);stroke-width:0.5px;"/>
        </g>
        <g transform="matrix(2.55135e-16,-4.16667,4.16667,2.55135e-16,3056.37,2376.38)">
            <path d="M0,189.117C-12.307,188.151 -24.581,186.658 -36.785,184.638L-36.785,158.48C-29.525,159.339 -22.241,160.064 -14.939,160.656C-11.918,150.45 -8.894,140.108 -5.867,129.661C1.573,129.924 9.029,130.113 16.49,130.228C10.989,150.099 5.491,169.793 0,189.117ZM-28.702,26.518C-34.536,27.128 -40.356,27.823 -46.158,28.604L-46.158,182.98C-63.813,179.655 -81.3,175.22 -98.508,169.673L-98.508,147.784C-94.069,148.807 -89.612,149.777 -85.138,150.693L-85.138,35.205C-89.612,36.122 -94.069,37.091 -98.508,38.114L-98.508,16.225C-75.645,8.856 -52.289,3.448 -28.702,0L-28.702,26.518Z" style="fill:none;fill-rule:nonzero;stroke:rgb(242,13,13);stroke-width:0.5px;"/>
        </g>
        <g transform="matrix(2.55135e-16,-4.16667,4.16667,2.55135e-16,3075.72,1863.02)">
            <path d="M0,176.47C-12.122,179.031 -24.333,181.065 -36.596,182.572L-36.596,155.678C-29.301,155.037 -22.025,154.263 -14.774,153.356C-11.774,142.94 -8.779,132.674 -5.788,122.592C1.564,122.036 8.886,121.406 16.169,120.702C10.799,138.562 5.408,157.217 0,176.47ZM-28.492,21.7C-34.328,21.107 -40.179,20.6 -46.039,20.179L-46.039,183.626C-63.872,185.42 -81.795,186.103 -99.697,185.675L-99.697,157.896C-95.079,157.975 -90.46,158.001 -85.841,157.974L-85.841,18.636C-90.46,18.61 -95.079,18.636 -99.697,18.715L-99.697,-9.065C-75.912,-9.633 -52.09,-8.241 -28.492,-4.888L-28.492,21.7Z" style="fill:none;fill-rule:nonzero;stroke:rgb(242,13,13);stroke-width:0.5px;"/>
        </g>
        <g transform="matrix(2.55135e-16,-4.16667,4.16667,2.55135e-16,3436.74,1242.46)">
            <path d="M0,19.954C3.941,18.078 7.848,16.15 11.72,14.171L11.72,19.165C-8.607,33.703 -29.912,46.259 -51.929,56.834L-51.929,41.093C-47.327,39.514 -42.757,37.872 -38.22,36.169C-50.912,13.336 -63.866,-21.413 -77.029,-64.593C-64.283,-59.449 -51.733,-53.67 -39.427,-47.255C-25.971,-12.283 -12.808,11.422 0,19.954ZM-69.903,-16.49C-73.278,-8.232 -76.668,0.628 -80.071,10.034C-73.503,9.713 -66.986,9.37 -60.527,9.007C-58.295,14.791 -56.07,20.269 -53.853,25.425C-64.882,27.64 -76.087,29.646 -87.435,31.442C-89.837,38.641 -92.245,46.093 -94.659,53.776C-88.986,52.344 -83.346,50.824 -77.744,49.217L-77.744,68.201C-93.835,74.66 -110.236,80.109 -126.852,84.547L-126.852,60.9C-123.036,60.171 -119.232,59.405 -115.44,58.6C-102.476,20.769 -89.656,-12.423 -77.029,-38.506C-74.647,-30.867 -72.271,-23.521 -69.903,-16.49Z" style="fill:none;fill-rule:nonzero;stroke:rgb(242,13,13);stroke-width:0.5px;"/>
        </g>
        <g transform="matrix(2.55135e-16,-4.16667,4.16667,2.55135e-16,4512.71,3027.84)">
            <path d="M0,-60.069C-2.484,-59.316 -4.959,-58.548 -7.424,-57.765C-11.902,-38.542 -16.348,-21.569 -20.761,-7.098C-22.241,-12.258 -23.718,-17.162 -25.19,-21.8C-22.495,-31.691 -19.787,-42.647 -17.066,-54.603C-19.563,-53.76 -22.048,-52.899 -24.524,-52.023L-24.524,-63.48C-16.459,-67.535 -8.28,-71.344 0,-74.906L0,-60.069ZM-32.494,-49.13C-34.67,-48.321 -36.837,-47.498 -38.995,-46.663C-33.696,-34.843 -28.342,-19.052 -22.937,0.268C-24.692,5.522 -26.442,10.384 -28.186,14.837C-30.789,13.4 -33.379,11.935 -35.957,10.442C-43.197,-13.175 -50.336,-30.067 -57.364,-39.145C-59.281,-38.317 -61.189,-37.477 -63.09,-36.627L-63.09,-41.618C-53.114,-47.955 -42.905,-53.873 -32.494,-59.372L-32.494,-49.13Z" style="fill:none;fill-rule:nonzero;stroke:rgb(242,13,13);stroke-width:0.5px;"/>
        </g>
        <g transform="matrix(2.55135e-16,-4.16667,4.16667,2.55135e-16,4617.09,2876.21)">
            <path d="M0,-94.885C-2.15,-94.38 -4.295,-93.863 -6.434,-93.336L-6.434,-1.711C-4.295,-1.129 -2.15,-0.558 0,0L0,18.938C-10.484,15.181 -20.847,11.025 -31.063,6.47L-31.063,-9.033C-28.968,-8.356 -26.867,-7.692 -24.76,-7.039L-24.76,-88.512C-26.867,-87.921 -28.968,-87.32 -31.063,-86.707L-31.063,-102.21C-20.847,-106.453 -10.484,-110.324 0,-113.823L0,-94.885Z" style="fill:none;fill-rule:nonzero;stroke:rgb(242,13,13);stroke-width:0.5px;"/>
        </g>
        <g transform="matrix(2.55135e-16,-4.16667,4.16667,2.55135e-16,4102.45,2605.84)">
            <path d="M0,152.708C-4.398,158.143 -10.885,160.235 -16.613,160.182L-16.613,135.702C-8.516,135.345 -4.391,123.647 -2.563,108.584C0.67,108.849 3.909,109.101 7.154,109.338C4.766,124.031 2.381,138.497 0,152.708ZM-16.613,-7.286C-10.61,-7.527 -5.675,-5.717 -1.923,-2.103C0.67,12.249 3.268,26.891 5.869,41.787C2.625,42.003 -0.613,42.233 -3.844,42.475C-6.22,28.215 -9.608,18.577 -16.613,17.654L-16.613,-7.286ZM-21.155,17.941C-32.948,22.046 -39.392,44.723 -39.397,76.25C-39.393,106.704 -32.315,129.809 -21.155,134.882L-21.155,159.715C-34.469,156.243 -58.733,132.755 -58.688,76.049C-58.73,19.759 -34.92,-4.14 -21.155,-6.665L-21.155,17.941Z" style="fill:none;fill-rule:nonzero;stroke:rgb(242,13,13);stroke-width:0.5px;"/>
        </g>
        <g transform="matrix(2.55135e-16,-4.16667,4.16667,2.55135e-16,4531.2,2286.12)">
            <path d="M0,-63.79C-3.104,-63.761 -6.208,-63.721 -9.31,-63.669L-9.31,-90.037C-12.164,-89.953 -15.017,-89.852 -17.869,-89.733L-17.869,-115.718C-15.017,-115.887 -12.164,-116.032 -9.31,-116.152L-9.31,-128.685C-6.208,-128.834 -3.104,-128.95 0,-129.034L0,-63.79ZM-22.517,38.896C-20.255,39.019 -17.993,39.129 -15.73,39.228L-15.73,65.244C-26.767,64.583 -37.782,63.522 -48.751,62.062L-48.751,36.922C-46.502,37.139 -44.251,37.343 -41.998,37.536L-41.998,-113.949C-35.517,-114.652 -29.021,-115.228 -22.517,-115.676L-22.517,38.896ZM-50.876,-112.656C-49.46,-112.835 -48.042,-113.008 -46.624,-113.175L-46.624,-87.954C-48.936,-87.763 -51.246,-87.561 -53.554,-87.348C-54.539,-78.856 -55.523,-70.402 -56.507,-61.987C-59.827,-61.805 -63.142,-61.61 -66.452,-61.401C-64.368,-81.779 -62.282,-102.399 -60.194,-123.232C-56.724,-123.811 -53.248,-124.348 -49.767,-124.843C-50.137,-120.775 -50.507,-116.712 -50.876,-112.656Z" style="fill:none;fill-rule:nonzero;stroke:rgb(242,13,13);stroke-width:0.5px;"/>
        </g>
        <g transform="matrix(2.55135e-16,-4.16667,4.16667,2.55135e-16,4820.48,2092.15)">
            <path d="M0,-190.498C20.078,-186.019 35.277,-147.09 35.277,-96.398C35.278,-45.715 19.799,-5.623 0,-0.284L0,-29.008C9.477,-33.51 15.125,-57.681 15.126,-95.311C15.125,-132.944 9.384,-157.58 0,-161.774L0,-190.498ZM-4.647,-162.252C-14.69,-159.867 -20.468,-135.815 -20.467,-95.485C-20.468,-56.719 -14.318,-31.122 -4.647,-28.502L-4.647,0.323C-24.644,-0.571 -40.591,-40.742 -40.587,-95.479C-40.592,-149.686 -24.831,-189.578 -4.647,-190.821L-4.647,-162.252Z" style="fill:none;fill-rule:nonzero;stroke:rgb(242,13,13);stroke-width:0.5px;"/>
        </g>
        <g transform="matrix(2.55135e-16,-4.16667,4.16667,2.55135e-16,4752.28,1777.78)">
            <path d="M0,-158.416C18.314,-153.759 27.626,-136.435 27.639,-110.58C27.637,-92.735 23.274,-81.468 15.539,-75.201C19.677,-44.564 27.13,-21.412 35.655,-15.829C35.329,-13.106 35.004,-10.371 34.678,-7.624C16.529,-3.769 5.163,-24.544 -1.815,-60.055C-1.846,-60.28 -1.876,-60.504 -1.906,-60.729L-1.906,-86.109C-1.876,-86.108 -1.846,-86.108 -1.815,-86.108C5.354,-86.988 8.325,-95.253 8.328,-110.338C8.326,-124.75 4.902,-134.354 -1.815,-136.178C-1.846,-136.183 -1.876,-136.188 -1.906,-136.193L-1.906,-158.854C-1.27,-158.709 -0.635,-158.563 0,-158.416ZM-6.451,-21.871C-4.419,-22.215 -2.389,-22.568 -0.363,-22.932L-0.363,-0.376C-10.948,2.248 -21.617,4.486 -32.344,6.338L-32.344,-18.068C-30.107,-18.348 -27.872,-18.64 -25.64,-18.944L-25.64,-139.555C-27.872,-139.83 -30.107,-140.095 -32.344,-140.348L-32.344,-164.754C-23.67,-163.359 -15.035,-161.729 -6.451,-159.864L-6.451,-21.871Z" style="fill:none;fill-rule:nonzero;stroke:rgb(242,13,13);stroke-width:0.5px;"/>
        </g>
        <g transform="matrix(2.55135e-16,-4.16667,4.16667,2.55135e-16,4586.41,1479.54)">
            <path d="M0,-80.092C-2.1,-80.696 -4.206,-81.288 -6.318,-81.87L-6.318,1.123C-4.206,0.481 -2.1,-0.174 0,-0.841L0,14.977C-10.24,19.465 -20.626,23.554 -31.13,27.243L-31.13,8.046C-28.976,7.498 -26.828,6.938 -24.684,6.365L-24.684,-86.616C-26.828,-87.134 -28.976,-87.641 -31.13,-88.138L-31.13,-107.335C-20.626,-103.898 -10.241,-100.09 0,-95.91L0,-80.092Z" style="fill:none;fill-rule:nonzero;stroke:rgb(242,13,13);stroke-width:0.5px;"/>
        </g>
        <g transform="matrix(2.55135e-16,-4.16667,4.16667,2.55135e-16,4403.27,1207.56)">
            <path d="M0,17.422C1.917,16.506 3.826,15.58 5.726,14.641L5.726,19.631C-4.25,26.435 -14.459,32.789 -24.87,38.692L-24.87,28.45C-22.695,27.557 -20.528,26.648 -18.37,25.726C-24.406,9.863 -30.514,-12.009 -36.687,-39.126C-30.709,-36.191 -24.793,-33.122 -18.943,-29.919C-12.547,-7.786 -6.23,8.28 0,17.422ZM-33.342,-8.636C-34.928,-3.308 -36.518,2.362 -38.113,8.36C-35.036,8.112 -31.974,7.859 -28.929,7.599C-27.877,11.313 -26.827,14.858 -25.779,18.23C-30.991,19.533 -36.253,20.787 -41.561,21.99C-42.685,26.57 -43.81,31.309 -44.938,36.203C-42.288,35.242 -39.649,34.261 -37.023,33.26L-37.023,45.332C-44.568,49.3 -52.209,53.039 -59.937,56.548L-59.937,41.386C-58.162,40.803 -56.392,40.21 -54.627,39.609C-48.59,15.196 -42.609,-5.699 -36.687,-22.534C-35.57,-17.721 -34.455,-13.087 -33.342,-8.636Z" style="fill:none;fill-rule:nonzero;stroke:rgb(242,13,13);stroke-width:0.5px;"/>
        </g>
        <g transform="matrix(2.55135e-16,-4.16667,4.16667,2.55135e-16,2145.75,399.947)">
            <path d="M0,10.476C-4.898,18.824 -10.09,27.037 -15.575,35.096L-20.567,35.096C-19.526,32.956 -18.5,30.806 -17.489,28.645L-48.655,28.645C-47.643,30.806 -46.617,32.956 -45.576,35.096L-50.568,35.096C-56.054,27.036 -61.247,18.824 -66.145,10.476L0,10.476ZM-69.829,4.075C-79.697,-12.764 -75.283,-20.924 -58.01,-20.893C-47.385,-20.899 -39.701,-16.431 -36.725,-8.135C-34.408,-19.047 -25.231,-24.595 -10.64,-24.584C8.985,-24.62 14.807,-14.695 3.631,4.167C3.303,4.748 2.973,5.329 2.642,5.909L-7.547,5.909C-7.497,5.787 -7.447,5.665 -7.398,5.542C-4.235,-1.887 -7.191,-6 -15.529,-5.994C-24.125,-6 -28.939,-1.794 -29.234,5.634C-29.24,5.726 -29.246,5.818 -29.251,5.909L-38.729,5.909C-38.731,5.879 -38.734,5.848 -38.737,5.817C-39.588,-0.143 -43.918,-2.753 -51.283,-2.748C-57.825,-2.753 -60.877,-0.235 -58.636,5.817C-58.624,5.848 -58.611,5.879 -58.599,5.909L-68.788,5.909C-69.137,5.298 -69.484,4.687 -69.829,4.075Z" style="fill:none;fill-rule:nonzero;stroke:rgb(242,13,13);stroke-width:0.5px;"/>
        </g>
        <g transform="matrix(2.55135e-16,-4.16667,4.16667,2.55135e-16,1985.89,223.618)">
            <path d="M0,-48.642C-2.426,-40.506 -5.085,-32.43 -7.977,-24.425L-27.211,-24.425C-25.777,-29.979 -24.423,-35.568 -23.149,-41.187C-29.546,-42.41 -36.054,-43.634 -42.667,-44.86C-42.146,-48.703 -41.648,-52.56 -41.172,-56.43C-27.019,-53.828 -13.282,-51.232 0,-48.642ZM-53.031,-40.592C-53.354,-37.288 -53.689,-33.995 -54.036,-30.713L-67.943,-30.713C-68.02,-28.612 -68.099,-26.516 -68.18,-24.425L-87.995,-24.425C-88.136,-26.516 -88.274,-28.612 -88.41,-30.713L-102.317,-30.713C-102.754,-33.995 -103.176,-37.288 -103.584,-40.592L-53.031,-40.592ZM-9.777,-19.533C-13.228,-10.321 -16.99,-1.208 -21.063,7.788L-36.563,7.788C-35.812,5.467 -35.076,3.139 -34.355,0.803L-116.432,0.803C-115.711,3.139 -114.974,5.467 -114.223,7.788L-129.724,7.788C-133.797,-1.208 -137.56,-10.321 -141.011,-19.533L-9.777,-19.533ZM-112.798,-47.745C-112.302,-44.426 -111.786,-41.117 -111.25,-37.819L-126.866,-37.819C-125.821,-33.333 -124.725,-28.868 -123.577,-24.425L-142.811,-24.425C-145.598,-32.136 -148.167,-39.912 -150.521,-47.745L-112.798,-47.745Z" style="fill:none;fill-rule:nonzero;stroke:rgb(242,13,13);stroke-width:0.5px;"/>
        </g>
        <g transform="matrix(2.55135e-16,-4.16667,4.16667,2.55135e-16,1747.82,428.664)">
            <path d="M0,-78.087C-0.062,-75.82 -0.128,-73.554 -0.199,-71.291L12.342,-71.291C25.661,-71.291 30.919,-72.012 37.9,-74.276L38.944,-74.276C49.849,-69.128 60.772,-61.412 64.506,-51.482L-0.946,-51.482C-1.058,-48.923 -1.177,-46.367 -1.302,-43.814L-26.311,-43.814C-26.314,-55.182 -26.316,-66.616 -26.318,-78.087L0,-78.087ZM-118.492,-46.061C-118.648,-52.6 -116.217,-58.652 -111.86,-63.273C-97.38,-66.046 -82.702,-68.821 -67.861,-71.599C-67.688,-68.135 -67.497,-64.675 -67.287,-61.219C-78.75,-58.86 -90.178,-54.545 -91.115,-46.061L-118.492,-46.061ZM-90.462,-40.956C-85.846,-28.515 -62.644,-21.753 -26.304,-21.749C9.935,-21.751 36.696,-30.542 38.689,-43.61C38.82,-44.631 38.682,-45.549 38.783,-46.368L65.676,-46.368C65.839,-44.426 65.717,-42.384 65.31,-40.242C59.703,-15.866 21.842,-0.009 -26.296,0C-71.763,-0.008 -110.938,-16.367 -117.814,-40.956L-90.462,-40.956Z" style="fill:none;fill-rule:nonzero;stroke:rgb(242,13,13);stroke-width:0.5px;"/>
        </g>
        <g transform="matrix(2.55135e-16,-4.16667,4.16667,2.55135e-16,1212.47,826.489)">
            <path d="M0,4.621C2.956,15.794 27.881,22.205 69.158,22.205C108.83,22.205 135.36,15.38 138.591,4.621L168.458,4.621C165.96,26.873 124.085,44.521 69.16,44.516C14.765,44.521 -26.832,27.08 -29.602,4.621L0,4.621ZM-29.547,-0.552C-26.225,-22.906 14.528,-39.899 68.374,-39.896C122.216,-39.9 164.01,-22.595 168.132,-0.552L138.281,-0.552C134.075,-11.104 108.922,-17.405 69.427,-17.406C29.928,-17.406 4.243,-11 0.304,-0.552L-29.547,-0.552Z" style="fill:none;fill-rule:nonzero;stroke:rgb(242,13,13);stroke-width:0.5px;"/>
        </g>
        <g transform="matrix(2.55135e-16,-4.16667,4.16667,2.55135e-16,772.524,620.313)">
            <path d="M0,39.203L83.034,39.203C82.706,36.374 82.36,33.548 81.995,30.727L106.818,30.727C108.517,40.108 109.921,49.538 111.028,58.998L85.004,58.998C84.766,56.153 84.509,53.311 84.233,50.472L-31.751,50.472C-31.74,50.335 -31.729,50.198 -31.719,50.061C-20.983,46.436 -10.395,42.816 0,39.203ZM38.434,-11.515L97.061,-11.515C97.654,-9.415 98.231,-7.311 98.792,-5.204C58.294,12.224 8.777,29.896 -44.336,47.702C-44.718,51.462 -45.068,55.227 -45.383,58.998L-71.407,58.998C-70.235,48.989 -68.732,39.015 -66.897,29.096C-28.502,15.439 7.388,1.885 38.434,-11.515ZM-33.667,-19.795C-34.264,-17.042 -34.841,-14.282 -35.399,-11.515L22.128,-11.515C13.416,-7.848 4.352,-4.17 -5.017,-0.481L-37.516,-0.481C-38.024,2.302 -38.512,5.091 -38.981,7.886L-62.449,7.886C-60.267,-1.408 -57.789,-10.64 -55.015,-19.795L-33.667,-19.795Z" style="fill:none;fill-rule:nonzero;stroke:rgb(242,13,13);stroke-width:0.5px;"/>
        </g>
        <g transform="matrix(2.55135e-16,-4.16667,4.16667,2.55135e-16,664.359,716.989)">
            <path d="M0,-34.848C-0.694,-32.498 -1.373,-30.142 -2.037,-27.778L88.067,-27.778C87.403,-30.142 86.724,-32.499 86.031,-34.848L103.201,-34.848C107.935,-23.391 112.176,-11.763 115.925,0L95.124,0C94.575,-2.412 94.01,-4.818 93.431,-7.218L-7.403,-7.218C-7.982,-4.818 -8.546,-2.412 -9.096,0L-29.897,0C-26.147,-11.763 -21.905,-23.391 -17.171,-34.848L0,-34.848Z" style="fill:none;fill-rule:nonzero;stroke:rgb(242,13,13);stroke-width:0.5px;"/>
        </g>
        <g transform="matrix(2.55135e-16,-4.16667,4.16667,2.55135e-16,312.981,589.768)">
            <path d="M0,13.788C5.697,15.559 11.778,17.335 18.227,19.116C18.012,15.679 17.79,12.261 17.564,8.863C21.571,7.69 25.389,6.519 29.012,5.35C30.367,11.163 31.664,17.038 32.901,22.968C37.839,24.223 42.953,25.48 48.24,26.74C47.222,23.779 46.18,20.832 45.114,17.898L58.139,17.898C62.426,26.324 66.429,34.866 70.149,43.51L53.697,43.51C53.087,41.525 52.465,39.545 51.834,37.571C25.429,30.822 2.894,24.137 -15.081,17.524C-9.852,16.276 -4.823,15.031 0,13.788ZM28.027,-23.359C27.029,-25.49 26.017,-27.611 24.99,-29.722L29.982,-29.722C37.522,-18.643 44.507,-7.277 50.937,4.336L39.967,4.336C39.006,1.909 38.028,-0.508 37.033,-2.913C20.184,3.815 -3.479,10.63 -32.982,17.524C-29.577,10.849 -25.995,4.247 -22.234,-2.273C1.722,-9.402 18.84,-16.434 28.027,-23.359Z" style="fill:none;fill-rule:nonzero;stroke:rgb(242,13,13);stroke-width:0.5px;"/>
        </g>
        <g transform="matrix(2.55135e-16,-4.16667,4.16667,2.55135e-16,4679.32,279.2)">
            <path d="M0,-67.488C-5.038,-55.899 -10.609,-44.485 -16.711,-33.284L-29.647,-33.284C-26.62,-41.056 -23.777,-48.931 -21.117,-56.895C-25.767,-58.629 -30.648,-60.366 -35.75,-62.108C-34.664,-67.569 -33.631,-73.071 -32.65,-78.609C-20.876,-74.885 -9.963,-71.178 0,-67.488ZM-44.605,-56.053C-45.28,-51.371 -45.982,-46.721 -46.711,-42.105L-56.699,-42.105C-56.862,-39.15 -57.029,-36.21 -57.199,-33.284L-70.525,-33.284C-70.823,-36.21 -71.114,-39.15 -71.398,-42.105L-81.386,-42.105C-82.305,-46.721 -83.19,-51.371 -84.041,-56.053L-44.605,-56.053ZM-20.515,-26.451C-27.815,-13.615 -35.826,-1.072 -44.546,11.121L-49.54,11.121C-47.932,7.976 -46.359,4.807 -44.818,1.617L-79.283,1.617C-77.743,4.807 -76.169,7.976 -74.561,11.121L-79.555,11.121C-88.275,-1.072 -96.286,-13.615 -103.586,-26.451L-20.515,-26.451ZM-92.667,-66.212C-91.635,-61.487 -90.559,-56.791 -89.439,-52.127L-101.366,-52.127C-99.18,-45.785 -96.876,-39.501 -94.455,-33.284L-107.39,-33.284C-113.268,-44.073 -118.653,-55.061 -123.544,-66.212L-92.667,-66.212Z" style="fill:none;fill-rule:nonzero;stroke:rgb(242,13,13);stroke-width:0.5px;"/>
        </g>
        <g transform="matrix(2.55135e-16,-4.16667,4.16667,2.55135e-16,3873.29,616.259)">
            <path d="M0,82.66C25.021,84.222 49.577,85.783 73.644,87.341C74.48,83.738 75.281,80.122 76.048,76.496L98.883,76.496C95.157,89.091 90.845,101.55 85.948,113.831L66.803,113.831C67.797,110.342 68.758,106.84 69.684,103.324C39.834,100.819 8.777,98.308 -23.392,95.79C-23.835,93.563 -24.268,91.33 -24.689,89.092C-16.697,86.953 -8.461,84.808 0,82.66ZM5.501,40.29C-17.685,35.553 -41.608,30.803 -66.083,26.042C-44.947,25.09 -23.695,24.137 -2.335,23.184C31.798,30.808 64.613,38.406 95.434,45.968C95.009,48.207 94.568,50.443 94.111,52.675C46.288,63.241 2.048,73.733 -36.694,84.124C-35.007,91.588 -33.172,99.002 -31.19,106.355L-51.162,106.355C-57.4,89.823 -62.589,72.986 -66.729,55.947C-43.741,50.746 -19.581,45.526 5.501,40.29ZM-50.666,-24.332C-50.531,-20.636 -50.363,-16.941 -50.161,-13.249C-4.283,-15.525 41.858,-17.802 88.183,-20.08C88.343,-23.775 88.47,-27.472 88.563,-31.171L116.394,-31.171C115.761,-13.184 114.011,4.771 111.143,22.581L84.81,22.581C85.226,18.969 85.609,15.351 85.959,11.728C32.056,14.093 -21.312,16.456 -74.045,18.817C-76.221,4.502 -77.677,-9.9 -78.413,-24.332L-50.666,-24.332Z" style="fill:none;fill-rule:nonzero;stroke:rgb(242,13,13);stroke-width:0.5px;"/>
        </g>
        <g transform="matrix(2.55135e-16,-4.16667,4.16667,2.55135e-16,3251.75,635.449)">
            <path d="M0,80.895C30.97,82.515 62.021,84.136 93.125,85.757C93.02,82.008 92.881,78.261 92.707,74.516L120.353,74.516C121.199,87.522 121.459,100.559 121.133,113.584L93.264,113.584C93.33,109.884 93.362,106.184 93.361,102.483C51.404,99.847 9.432,97.211 -32.463,94.575C-32.438,92.243 -32.402,89.912 -32.356,87.581C-21.549,85.352 -10.758,83.123 0,80.895ZM9.531,37.592C-14.395,32.82 -37.748,28.059 -60.341,23.309C-39.177,22.359 -18.132,21.409 2.785,20.46C35.474,28.052 69.824,35.676 105.157,43.323C105.429,45.587 105.686,47.852 105.927,50.12C57.032,60.853 5.71,71.626 -46.124,82.414C-46.383,90.163 -46.494,97.92 -46.456,105.676L-74.36,105.676C-74.479,88.238 -73.549,70.794 -71.569,53.447C-44.037,48.152 -16.92,42.866 9.531,37.592ZM-32.482,-26.108C-33.276,-22.543 -34.035,-18.966 -34.761,-15.379C4.493,-17.591 42.865,-19.798 80.279,-22.001C79.511,-25.575 78.71,-29.138 77.875,-32.689L99.6,-32.689C105.282,-15.421 109.847,2.132 113.294,19.86L87.662,19.86C87.162,16.265 86.63,12.677 86.064,9.096C36.358,11.434 -14.247,13.774 -65.651,16.118C-62.757,1.906 -59.143,-12.189 -54.809,-26.108L-32.482,-26.108Z" style="fill:none;fill-rule:nonzero;stroke:rgb(242,13,13);stroke-width:0.5px;"/>
        </g>
        <g transform="matrix(2.55135e-16,-4.16667,4.16667,2.55135e-16,2820.69,604.35)">
            <path d="M0,19.932C7.271,22.594 15.072,25.266 23.368,27.949C23.077,22.772 22.773,17.632 22.456,12.533C27.551,10.771 32.38,9.014 36.931,7.261C38.846,15.976 40.627,24.812 42.274,33.752C48.642,35.645 55.244,37.542 62.067,39.443C60.733,34.975 59.343,30.531 57.897,26.115L74.627,26.115C80.438,38.8 85.603,51.708 90.121,64.789L68.97,64.789C68.229,61.785 67.463,58.791 66.673,55.806C32.743,45.599 3.522,35.506 -19.41,25.551C-12.668,23.673 -6.194,21.8 0,19.932ZM33.154,-35.484C31.634,-38.631 30.081,-41.755 28.496,-44.857L33.49,-44.857C45.138,-28.571 55.519,-11.66 64.633,5.741L50.754,5.741C49.393,2.104 47.992,-1.511 46.551,-5.104C26.136,4.947 -4.256,15.174 -42.398,25.551C-37.777,15.502 -32.75,5.594 -27.317,-4.149C3.374,-14.802 24.364,-25.258 33.154,-35.484Z" style="fill:none;fill-rule:nonzero;stroke:rgb(242,13,13);stroke-width:0.5px;"/>
        </g>
        <g transform="matrix(2.55135e-16,-4.16667,4.16667,2.55135e-16,5648.28,3044.35)">
            <path d="M0,-109.328C32.462,-124.263 58.697,-99.558 58.64,-54.845C58.692,-10.094 32.002,14.935 0,-0.413L0,-16.861C15.329,-13.393 24.771,-27.778 24.754,-54.422C24.77,-81.091 15.178,-95.992 0,-92.88L0,-109.328ZM-7.479,-90.649C-23.559,-83.156 -32.442,-70.502 -32.462,-55.492C-32.447,-41.143 -22.97,-27.326 -7.479,-19.334L-7.479,-3.962C-23.517,-12.721 -37.435,-26.074 -47.322,-35.467C-57.214,-45.336 -63.075,-51.247 -63.095,-56.12C-63.075,-60.961 -57.283,-66.51 -47.429,-75.886C-37.578,-84.792 -23.666,-97.523 -7.479,-105.881L-7.479,-90.649Z" style="fill:none;fill-rule:nonzero;stroke:rgb(242,13,13);stroke-width:0.5px;"/>
        </g>
        <g transform="matrix(2.55135e-16,-4.16667,4.16667,2.55135e-16,5529.31,2306.87)">
            <path d="M0,-62.452C-5.438,-62.409 -10.875,-62.331 -16.306,-62.217L-16.306,-88.264C-21.303,-88.079 -26.295,-87.841 -31.281,-87.55L-31.281,-113.035C-26.295,-113.452 -21.303,-113.792 -16.306,-114.056L-16.306,-126.436C-10.875,-126.764 -5.438,-126.99 0,-127.113L0,-62.452ZM-39.404,38.264C-35.454,38.577 -31.499,38.851 -27.54,39.088L-27.54,64.661C-46.846,63.066 -66.06,60.232 -85.042,56.158L-85.042,32.928C-81.149,33.533 -77.247,34.101 -73.337,34.631L-73.337,-107.926C-62.087,-109.861 -50.766,-111.4 -39.404,-112.541L-39.404,38.264ZM-88.718,-104.793C-86.269,-105.295 -83.816,-105.778 -81.36,-106.242L-81.36,-82.796C-85.365,-82.267 -89.36,-81.702 -93.344,-81.102C-95.044,-73.199 -96.742,-65.4 -98.437,-57.713C-104.16,-57.199 -109.858,-56.644 -115.527,-56.046C-111.957,-73.95 -108.376,-92.545 -104.785,-111.74C-98.817,-113.386 -92.821,-114.9 -86.801,-116.283C-87.44,-112.436 -88.079,-108.606 -88.718,-104.793Z" style="fill:none;fill-rule:nonzero;stroke:rgb(242,13,13);stroke-width:0.5px;"/>
        </g>
        <g transform="matrix(2.55135e-16,-4.16667,4.16667,2.55135e-16,5507.32,1774.2)">
            <path d="M0,-51.511C-5.272,-52.031 -10.566,-52.516 -15.88,-52.965L-15.88,-75.97C-20.769,-76.699 -25.675,-77.375 -30.595,-77.997L-30.595,-101.648C-25.675,-100.758 -20.769,-99.792 -15.88,-98.75L-15.88,-109.684C-10.566,-108.388 -5.272,-106.99 0,-105.489L0,-51.511ZM-38.63,40.396C-34.714,39.89 -30.806,39.346 -26.908,38.765L-26.908,62.208C-45.919,66.122 -65.153,68.796 -84.47,70.23L-84.47,44.577C-80.509,44.364 -76.551,44.113 -72.599,43.824L-72.599,-107.626C-61.227,-106.572 -49.895,-105.12 -38.63,-103.271L-38.63,40.396ZM-88.215,-108.568C-85.718,-108.417 -83.222,-108.247 -80.727,-108.058L-80.727,-82.482C-84.794,-82.698 -88.866,-82.878 -92.94,-83.023C-94.678,-74.398 -96.417,-65.739 -98.156,-57.056C-104.025,-57.149 -109.899,-57.202 -115.773,-57.213C-112.074,-78.782 -108.376,-100.323 -104.679,-121.741C-98.535,-121.551 -92.394,-121.23 -86.261,-120.777C-86.912,-116.715 -87.564,-112.645 -88.215,-108.568Z" style="fill:none;fill-rule:nonzero;stroke:rgb(242,13,13);stroke-width:0.5px;"/>
        </g>
        <g transform="matrix(2.55135e-16,-4.16667,4.16667,2.55135e-16,5635.96,1453.57)">
            <path d="M0,-102.572C16.098,-94.221 29.819,-81.705 39.507,-72.918C49.196,-63.676 54.852,-58.165 54.871,-53.313C54.851,-48.472 49.093,-42.682 39.347,-32.957C29.605,-23.694 15.876,-10.495 0,-1.523L0,-16.782C15.177,-24.982 23.931,-37.917 23.948,-52.427C23.932,-66.917 15.03,-79.784 0,-87.312L0,-102.572ZM-7.473,-89.838C-23.696,-93.781 -33.305,-79.426 -33.285,-51.64C-33.301,-24.875 -23.09,-9.859 -7.473,-14.013L-7.473,2.33C-39.751,18.625 -66.917,-6.015 -66.865,-51.262C-66.921,-96.039 -40.057,-121.197 -7.473,-106.033L-7.473,-89.838Z" style="fill:none;fill-rule:nonzero;stroke:rgb(242,13,13);stroke-width:0.5px;"/>
        </g>
        <g transform="matrix(2.55135e-16,-4.16667,4.16667,2.55135e-16,1760.68,3068.57)">
            <path d="M0,-110.211C32.042,-127.213 49.759,-118.172 49.669,-91.638C49.681,-73.745 41.534,-61.885 27.564,-57.25C35.024,-32.203 48.588,-5.185 64.606,8.961C63.994,11.665 63.383,14.345 62.772,17.002C28.812,2.175 9.004,-26.649 -3.157,-48.8C-3.21,-48.943 -3.262,-49.085 -3.315,-49.228L-3.315,-64.558C-3.262,-64.561 -3.21,-64.564 -3.157,-64.567C9.311,-65.63 14.67,-72.136 14.654,-83.435C14.666,-94.252 8.516,-99.03 -3.157,-94.869C-3.21,-94.849 -3.262,-94.829 -3.315,-94.81L-3.315,-108.498C-2.212,-109.074 -1.107,-109.645 0,-110.211ZM-11.158,-29.055C-7.67,-27.768 -4.161,-26.517 -0.633,-25.3L-0.633,-11.225C-19.066,-20.212 -36.96,-30.547 -54.152,-42.231L-54.152,-47.226C-50.567,-45.503 -46.95,-43.821 -43.305,-42.18L-43.305,-77.67C-46.95,-75.907 -50.567,-74.1 -54.152,-72.248L-54.152,-77.242C-40.251,-87.189 -25.891,-96.207 -11.158,-104.297L-11.158,-29.055Z" style="fill:none;fill-rule:nonzero;stroke:rgb(242,13,13);stroke-width:0.5px;"/>
        </g>
        <g transform="matrix(2.55135e-16,-4.16667,4.16667,2.55135e-16,1796.14,2227.72)">
            <path d="M0,-138.418C-4.219,-138.462 -8.439,-138.461 -12.658,-138.416L-12.658,-58.415C-12.632,-3.391 -30.584,27.511 -64.36,25.883L-64.36,-2.079C-52.996,-3.341 -49.011,-16.255 -49.015,-46.628L-49.015,-136.919C-53.217,-136.617 -57.415,-136.271 -61.606,-135.88L-61.606,-162.116C-41.167,-164.757 -20.575,-165.929 0,-165.632L0,-138.418ZM-76.217,-134.333C-80.392,-133.838 -84.558,-133.299 -88.714,-132.715L-88.714,-47.915C-88.711,-20.752 -83.943,-6.839 -72.956,-2.957L-72.956,24.89C-108.141,16.781 -124.277,-12.483 -124.31,-59.31L-124.31,-126.568C-128.399,-125.728 -132.474,-124.843 -136.534,-123.913L-136.534,-145.537C-116.736,-151.818 -96.573,-156.63 -76.217,-159.973L-76.217,-134.333Z" style="fill:none;fill-rule:nonzero;stroke:rgb(242,13,13);stroke-width:0.5px;"/>
        </g>
        <g transform="matrix(2.55135e-16,-4.16667,4.16667,2.55135e-16,1872.65,1935.05)">
            <path d="M0,-177.214C31.305,-170.942 45.411,-153.267 45.442,-127.371C45.434,-110.972 37.592,-100.446 22.499,-95.413C42.336,-88.918 51.953,-76.013 51.968,-54.903C51.933,-27.511 34.906,-6.457 -0.172,0.355C-1.256,0.54 -2.34,0.721 -3.426,0.898L-3.426,-24.597C-3.197,-24.623 -2.969,-24.65 -2.741,-24.677C11.134,-26.417 18.589,-36.653 18.594,-53.026C18.589,-69.903 10.965,-78.99 -2.912,-78.905C-3.083,-78.902 -3.255,-78.9 -3.426,-78.898L-3.426,-102.608C-3.369,-102.606 -3.311,-102.604 -3.254,-102.602C7.88,-103.335 12.634,-111.72 12.638,-127.188C12.634,-140.914 8.051,-150.045 -3.254,-152.3C-3.311,-152.307 -3.369,-152.314 -3.426,-152.321L-3.426,-177.816C-2.283,-177.62 -1.141,-177.419 0,-177.214ZM-12.006,2.213C-27.756,4.472 -43.613,5.898 -59.498,6.491L-59.498,-20.642C-55.281,-20.754 -51.066,-20.907 -46.855,-21.101L-46.855,-156.078C-51.066,-156.287 -55.281,-156.452 -59.498,-156.571L-59.498,-183.705C-43.613,-183.08 -27.756,-181.579 -12.006,-179.2L-12.006,2.213Z" style="fill:none;fill-rule:nonzero;stroke:rgb(242,13,13);stroke-width:0.5px;"/>
        </g>
        <g transform="matrix(2.55135e-16,-4.16667,4.16667,2.55135e-16,1505.33,1213.28)">
            <path d="M0,-10.964C-3.537,-12.791 -7.103,-14.574 -10.698,-16.314C-18.836,-15.173 -27.119,-10.531 -35.53,-2.943C-38.369,-6.244 -41.221,-9.913 -44.088,-13.926C-39.71,-18.759 -35.364,-22.673 -31.053,-25.578C-34.594,-27.09 -38.159,-28.563 -41.746,-29.996L-41.746,-42.325C-27.45,-34.413 -13.509,-25.624 0,-15.959L0,-10.964ZM-54.468,-34.878C-58.896,-36.509 -63.356,-38.081 -67.844,-39.593C-58.868,-23.16 -50.006,-9.416 -41.278,0.953L-41.278,31.593C-37.485,30.179 -33.717,28.723 -29.976,27.226L-29.976,37.674C-48.221,47.999 -67.097,56.927 -86.432,64.461L-86.432,46.168C-82.467,45.076 -78.522,43.942 -74.597,42.766L-74.597,4.611C-85.457,-10.657 -96.477,-29.649 -107.625,-51.28C-111.211,-52.185 -114.812,-53.055 -118.424,-53.889L-118.424,-75.425C-96.582,-68.436 -75.187,-59.658 -54.468,-49.088L-54.468,-34.878Z" style="fill:none;fill-rule:nonzero;stroke:rgb(242,13,13);stroke-width:0.5px;"/>
        </g>
    </g>
    <g transform="matrix(2.55135e-16,-4.16667,4.16667,2.55135e-16,49.3208,3447.83)">
        <path d="M0,0L813.543,0" style="fill:none;fill-rule:nonzero;stroke:rgb(29,29,27);stroke-width:0.5px;"/>
    </g>
    <g transform="matrix(2.55135e-16,-4.16667,4.16667,2.55135e-16,1017.82,3447.83)">
        <path d="M0,0L581.102,0" style="fill:none;fill-rule:nonzero;stroke:rgb(29,29,27);stroke-width:0.5px;"/>
    </g>
    <g transform="matrix(2.55135e-16,-4.16667,4.16667,2.55135e-16,4891.84,3447.83)">
        <path d="M0,0L813.543,0" style="fill:none;fill-rule:nonzero;stroke:rgb(29,29,27);stroke-width:0.5px;"/>
    </g>
    <g transform="matrix(2.55135e-16,-4.16667,4.16667,2.55135e-16,3923.34,3447.83)">
        <path d="M0,0L581.102,0" style="fill:none;fill-rule:nonzero;stroke:rgb(29,29,27);stroke-width:0.5px;"/>
    </g>
    <g transform="matrix(2.55135e-16,-4.16667,4.16667,2.55135e-16,2954.83,3447.83)">
        <path d="M0,0L581.102,0" style="fill:none;fill-rule:nonzero;stroke:rgb(29,29,27);stroke-width:0.5px;"/>
    </g>
    <g transform="matrix(2.55135e-16,-4.16667,4.16667,2.55135e-16,1986.33,3447.83)">
        <path d="M0,0L581.102,0" style="fill:none;fill-rule:nonzero;stroke:rgb(29,29,27);stroke-width:0.5px;"/>
    </g>
    <g transform="matrix(4.16667,2.55135e-16,2.55135e-16,-4.16667,2470.58,-2363.2)">
        <path d="M-581.103,-581.103L581.103,-581.103" style="fill:none;fill-rule:nonzero;stroke:rgb(29,29,27);stroke-width:0.5px;"/>
    </g>
    <g transform="matrix(2.55135e-16,-4.16667,4.16667,2.55135e-16,2470.58,1026.57)">
        <path d="M0,0L232.441,0" style="fill:none;fill-rule:nonzero;stroke:rgb(29,29,27);stroke-width:0.5px;"/>
    </g>
    <g transform="matrix(4.99995,2.55135e-16,3.06159e-16,-4.16667,2954.85,-1394.76)">
        <path d="M-581.103,-581.103L581.103,-581.103" style="fill:none;fill-rule:nonzero;stroke:rgb(29,29,27);stroke-width:0.45px;"/>
    </g>
    <g transform="matrix(2.55135e-16,-4.16667,4.16667,2.55135e-16,5860.28,3447.8)">
        <path d="M0,0L581.102,0" style="fill:none;fill-rule:nonzero;stroke:rgb(29,29,27);stroke-width:0.5px;"/>
    </g>
</svg>
