<?xml version="1.0" encoding="UTF-8" standalone="no"?>
<!DOCTYPE svg PUBLIC "-//W3C//DTD SVG 1.1//EN" "http://www.w3.org/Graphics/SVG/1.1/DTD/svg11.dtd">
<svg width="100%" height="100%" viewBox="0 0 5906 3544" version="1.1" xmlns="http://www.w3.org/2000/svg" xmlns:xlink="http://www.w3.org/1999/xlink" xml:space="preserve" xmlns:serif="http://www.serif.com/" style="fill-rule:evenodd;clip-rule:evenodd;stroke-miterlimit:10;">
    <g>
        <g transform="matrix(2.55135e-16,-4.16667,4.16667,2.55135e-16,630.295,3203)">
            <path d="M0,-44.211C-1.457,-43.587 -2.909,-42.956 -4.358,-42.319L-4.358,-1.893C-2.909,-1.256 -1.457,-0.624 0,0.001L0,8.825C-7.104,4.562 -14.108,0.084 -21,-4.607L-21,-9.601C-19.586,-8.913 -18.168,-8.232 -16.746,-7.557L-16.746,-36.66C-18.168,-35.985 -19.586,-35.305 -21,-34.618L-21,-39.611C-14.108,-44.3 -7.104,-48.775 0,-53.036L0,-44.211Z" style="fill:none;fill-rule:nonzero;stroke:rgb(242,13,13);stroke-width:0.5px;"/>
        </g>
        <g transform="matrix(2.55135e-16,-4.16667,4.16667,2.55135e-16,700.221,2985.93)">
            <path d="M0,-80.067C-1.755,-79.526 -3.505,-78.977 -5.252,-78.42L-5.252,-37.223C-7.566,-43.515 -9.873,-49.458 -12.171,-55.028L-12.171,-76.16C-13.906,-75.581 -15.636,-74.993 -17.362,-74.397L-17.362,-88.576C-11.624,-91.349 -5.835,-93.994 0,-96.51L0,-80.067ZM-36.373,-47.827L-36.373,-10.351C-34.684,-9.692 -32.989,-9.043 -31.29,-8.401L-31.29,3.767C-36.941,0.782 -42.538,-2.331 -48.075,-5.574L-48.075,-15.078C-46.41,-14.381 -44.739,-13.692 -43.064,-13.012C-43.063,-28.54 -43.063,-44.068 -43.064,-59.596C-42.983,-59.622 -42.902,-59.649 -42.821,-59.675C-40.68,-56.152 -38.531,-52.197 -36.373,-47.827ZM-5.252,-25.543L-5.252,16.443C-6.577,15.851 -7.9,15.252 -9.22,14.646C-20.14,-20.957 -30.886,-48.433 -41.427,-65.421C-43.652,-64.527 -45.868,-63.618 -48.075,-62.695L-48.075,-72.2C-42.217,-75.629 -36.292,-78.914 -30.306,-82.054C-22.066,-68.519 -13.709,-49.343 -5.252,-25.543Z" style="fill:none;fill-rule:nonzero;stroke:rgb(242,13,13);stroke-width:0.5px;"/>
        </g>
        <g transform="matrix(2.55135e-16,-4.16667,4.16667,2.55135e-16,254.226,2794.83)">
            <path d="M0,135.856C-3.153,140.517 -7.802,142.091 -11.906,141.845L-11.906,120.273C-6.105,120.161 -3.148,109.91 -1.838,96.531C0.48,96.809 2.803,97.079 5.13,97.341C3.418,110.453 1.707,123.297 0,135.856ZM-11.906,-5.721C-7.605,-6.235 -4.069,-4.909 -1.378,-1.891C0.481,10.736 2.343,23.682 4.208,36.928C1.882,37.212 -0.439,37.504 -2.756,37.804C-4.459,25.196 -6.887,16.797 -11.906,16.252L-11.906,-5.721ZM-15.16,16.672C-23.609,20.725 -28.226,40.626 -28.23,68.067C-28.227,94.573 -23.156,114.735 -15.16,119.452L-15.16,141.279C-24.696,137.649 -42.085,117.006 -42.057,68.074C-42.084,19.493 -25.02,-1.955 -15.16,-4.955L-15.16,16.672Z" style="fill:none;fill-rule:nonzero;stroke:rgb(242,13,13);stroke-width:0.5px;"/>
        </g>
        <g transform="matrix(2.55135e-16,-4.16667,4.16667,2.55135e-16,292.253,2559.91)">
            <path d="M0,121.873C1.619,122.072 3.239,122.264 4.861,122.45L4.861,147.761C-3.652,146.395 -12.131,144.786 -20.564,142.937L-20.564,119.002C-18.801,119.278 -17.037,119.547 -15.271,119.808C-20.212,70.48 -25.138,22.845 -30.046,-22.672C-25.293,-23.821 -20.524,-24.893 -15.74,-25.888C-10.509,21.567 -5.262,70.979 0,121.873ZM-27.379,35.428C-28.647,46.791 -29.913,58.032 -31.179,69.146C-28.737,69.22 -26.291,69.292 -23.84,69.361C-22.994,77.69 -22.147,86.075 -21.299,94.516C-25.514,94.121 -29.717,93.7 -33.907,93.254C-34.794,100.994 -35.68,108.668 -36.566,116.274C-34.485,116.658 -32.4,117.03 -30.313,117.392L-30.313,140.685C-36.309,139.231 -42.279,137.653 -48.218,135.952L-48.218,114.009C-46.854,114.288 -45.489,114.563 -44.121,114.833C-39.447,81.381 -34.755,46.17 -30.046,9.5C-29.158,18.073 -28.269,26.717 -27.379,35.428Z" style="fill:none;fill-rule:nonzero;stroke:rgb(242,13,13);stroke-width:0.5px;"/>
        </g>
        <g transform="matrix(2.55135e-16,-4.16667,4.16667,2.55135e-16,927.967,2368.46)">
            <path d="M0,-186.952C12.482,-187.808 18.296,-172.766 18.294,-140.755C18.294,-120.837 15.083,-107.356 9.006,-101.438C16.994,-95.038 20.958,-78.854 20.958,-52.46C20.96,-17.468 13.915,0.856 -0.068,-0.111C-0.5,-0.141 -0.932,-0.171 -1.363,-0.202L-1.363,-26.828C-1.272,-26.823 -1.181,-26.819 -1.09,-26.814C4.432,-26.523 7.437,-36.339 7.437,-54.56C7.437,-73.319 4.364,-83.512 -1.159,-83.541C-1.227,-83.542 -1.295,-83.542 -1.363,-83.543L-1.363,-108.306C-1.341,-108.306 -1.318,-108.307 -1.295,-108.307C3.137,-109.415 5.048,-118.797 5.048,-135.655C5.048,-150.632 3.205,-159.668 -1.295,-160.231C-1.318,-160.23 -1.341,-160.229 -1.363,-160.228L-1.363,-186.856C-0.909,-186.889 -0.455,-186.921 0,-186.952ZM-4.772,-0.461C-11.018,-0.957 -17.256,-1.582 -23.479,-2.334L-23.479,-28.352C-21.827,-28.209 -20.174,-28.072 -18.52,-27.943L-18.52,-159.114C-20.174,-158.984 -21.827,-158.848 -23.479,-158.706L-23.479,-184.725C-17.256,-185.477 -11.018,-186.102 -4.772,-186.598L-4.772,-0.461Z" style="fill:none;fill-rule:nonzero;stroke:rgb(242,13,13);stroke-width:0.5px;"/>
        </g>
        <g transform="matrix(2.55135e-16,-4.16667,4.16667,2.55135e-16,149.406,2098.74)">
            <path d="M0,186.652C-5.568,187.053 -11.143,187.353 -16.72,187.551L-16.72,160.669C-12.85,160.571 -8.981,160.438 -5.115,160.27C-4.274,151.681 -3.433,143.106 -2.591,134.544C0.046,134.467 2.682,134.38 5.316,134.283C3.545,151.666 1.773,169.129 0,186.652ZM-5.525,122.061C-7.799,122.103 -10.074,122.14 -12.35,122.171L-12.35,103.389C-13.806,103.396 -15.263,103.403 -16.72,103.408L-16.72,75.718C-15.263,75.727 -13.806,75.738 -12.35,75.751L-12.35,56.968C-10.074,57.008 -7.799,57.054 -5.525,57.107L-5.525,122.061ZM-0.614,46.84C-2.887,46.76 -5.16,46.689 -7.435,46.626L-7.435,26.288C-10.529,26.165 -13.624,26.064 -16.72,25.985L-16.72,-0.899C-11.348,-0.708 -5.978,-0.424 -0.614,-0.045L-0.614,46.84ZM-20.136,187.659C-26.58,187.84 -33.027,187.886 -39.473,187.796L-39.473,160.844C-37.81,160.861 -36.148,160.871 -34.485,160.875L-34.485,25.78C-36.148,25.784 -37.81,25.794 -39.473,25.81L-39.473,-1.144C-33.027,-1.234 -26.58,-1.188 -20.136,-1.007L-20.136,187.659Z" style="fill:none;fill-rule:nonzero;stroke:rgb(242,13,13);stroke-width:0.5px;"/>
        </g>
        <g transform="matrix(2.55135e-16,-4.16667,4.16667,2.55135e-16,912.601,1963.94)">
            <path d="M0,-179.683C13.675,-177.52 20.717,-158.756 20.721,-127.176C20.72,-105.531 17.429,-91.82 11.626,-84.695C14.73,-48.741 20.326,-19.879 26.766,-10.742C26.52,-7.455 26.274,-4.163 26.028,-0.865C12.331,-1.245 3.857,-27.396 -1.355,-67.879C-1.377,-68.135 -1.4,-68.392 -1.422,-68.649L-1.422,-97.422C-1.4,-97.422 -1.377,-97.421 -1.355,-97.421C3.996,-98.408 6.223,-108 6.224,-125.479C6.223,-142.189 3.657,-152.881 -1.355,-154.187C-1.377,-154.19 -1.4,-154.192 -1.422,-154.194L-1.422,-179.885C-0.948,-179.818 -0.474,-179.751 0,-179.683ZM-4.811,-25.156C-3.297,-25.3 -1.783,-25.45 -0.271,-25.605L-0.271,0.037C-8.172,1.169 -16.099,2.093 -24.042,2.811L-24.042,-23.622C-22.386,-23.729 -20.73,-23.843 -19.074,-23.962L-19.074,-155.718C-20.73,-155.838 -22.386,-155.951 -24.042,-156.058L-24.042,-182.494C-17.619,-181.914 -11.207,-181.199 -4.811,-180.349L-4.811,-25.156Z" style="fill:none;fill-rule:nonzero;stroke:rgb(242,13,13);stroke-width:0.5px;"/>
        </g>
        <g transform="matrix(2.55135e-16,-4.16667,4.16667,2.55135e-16,865.12,1734.93)">
            <path d="M0,-156.897C13.365,-152.94 20.194,-136.09 20.202,-109.757C20.201,-91.638 17.003,-80.218 11.349,-74.053C14.375,-43.3 19.824,-19.536 26.076,-12.998C25.837,-10.242 25.598,-7.477 25.359,-4.702C12.057,-2.629 3.77,-23.881 -1.325,-59.225C-1.347,-59.449 -1.369,-59.673 -1.391,-59.897L-1.391,-85.085C-1.369,-85.085 -1.347,-85.084 -1.325,-85.084C3.907,-85.908 6.078,-94.145 6.079,-109.213C6.078,-123.613 3.577,-133.099 -1.325,-134.771C-1.347,-134.775 -1.369,-134.779 -1.391,-134.784L-1.391,-157.274C-0.927,-157.149 -0.463,-157.023 0,-156.897ZM-4.706,-21.485C-3.224,-21.762 -1.743,-22.044 -0.265,-22.332L-0.265,0.069C-7.989,2.171 -15.762,4.066 -23.574,5.754L-23.574,-18.268C-21.945,-18.52 -20.317,-18.778 -18.692,-19.042L-18.692,-137.853C-20.317,-138.117 -21.945,-138.375 -23.574,-138.626L-23.574,-162.651C-17.258,-161.287 -10.966,-159.788 -4.706,-158.153L-4.706,-21.485Z" style="fill:none;fill-rule:nonzero;stroke:rgb(242,13,13);stroke-width:0.5px;"/>
        </g>
        <g transform="matrix(2.55135e-16,-4.16667,4.16667,2.55135e-16,718.631,1516.12)">
            <path d="M0,-86.59C-1.553,-87.046 -3.109,-87.496 -4.668,-87.939L-4.668,1.346C-3.109,0.903 -1.553,0.453 0,-0.004L0,17.278C-7.573,20.393 -15.22,23.293 -22.93,25.979L-22.93,6.216C-21.349,5.822 -19.771,5.422 -18.195,5.015L-18.195,-91.605C-19.771,-92.011 -21.349,-92.411 -22.93,-92.804L-22.93,-112.569C-15.22,-109.885 -7.573,-106.986 0,-103.874L0,-86.59Z" style="fill:none;fill-rule:nonzero;stroke:rgb(242,13,13);stroke-width:0.5px;"/>
        </g>
        <g transform="matrix(2.55135e-16,-4.16667,4.16667,2.55135e-16,365.15,1347.9)">
            <path d="M0,83.075C-5.004,85.753 -10.052,88.329 -15.141,90.804L-15.141,76.748C-11.61,75.52 -8.099,74.258 -4.608,72.961C-3.848,68.664 -3.089,64.473 -2.331,60.391C0.045,59.838 2.411,59.276 4.767,58.703C3.182,66.349 1.593,74.479 0,83.075ZM-4.978,55.079C-7.032,55.406 -9.093,55.728 -11.161,56.044L-11.161,46.596C-12.485,46.667 -13.811,46.737 -15.141,46.806L-15.141,32.327C-13.812,32.448 -12.485,32.57 -11.161,32.693L-11.161,23.245C-9.093,23.643 -7.032,24.048 -4.978,24.46L-4.978,55.079ZM-0.551,20.703C-2.596,20.161 -4.647,19.627 -6.705,19.102L-6.705,9.333C-9.504,8.307 -12.316,7.304 -15.141,6.323L-15.141,-7.735C-10.239,-5.352 -5.375,-2.876 -0.551,-0.305L-0.551,20.703ZM-18.262,92.307C-24.158,95.117 -30.108,97.793 -36.105,100.333L-36.105,83.559C-34.558,83.091 -33.015,82.616 -31.474,82.135L-31.474,0.94C-33.015,0.459 -34.558,-0.015 -36.105,-0.483L-36.105,-17.258C-30.108,-14.72 -24.158,-12.046 -18.262,-9.237L-18.262,92.307Z" style="fill:none;fill-rule:nonzero;stroke:rgb(242,13,13);stroke-width:0.5px;"/>
        </g>
        <g transform="matrix(2.55135e-16,-4.16667,4.16667,2.55135e-16,656.271,1240.86)">
            <path d="M0,-55.989C2.195,-54.105 4.377,-51.679 6.023,-49.211L6.023,-52.01C7.688,-50.89 9.348,-49.757 11.001,-48.611L11.001,-36.735C9.076,-37.287 7.142,-37.832 5.2,-38.37C4.14,-43.973 2.076,-46.871 0,-48.383L0,-55.989ZM-2.971,-49.686C-4.698,-49.929 -5.835,-48.509 -5.835,-45.728C-5.836,-41.914 -2.601,-38.585 1.659,-35.029C7.114,-30.311 14.033,-27.734 14.028,-21.378C14.023,-15.197 7.608,-5.955 -1.543,0.698L-1.543,-7.655C0.715,-9.289 2.25,-11.848 2.25,-14.551C2.249,-18.003 -0.641,-18.522 -4.878,-21.358C-10.361,-24.936 -17.395,-29.561 -17.399,-44.644C-17.403,-58.208 -11.189,-64.11 -2.971,-58.306L-2.971,-49.686ZM-13.343,-17.01C-11.53,-7.963 -7.621,-5.743 -4.52,-6.285L-4.52,2.201C-7.742,3.428 -10.87,2.937 -12.62,0.938C-12.479,2.334 -12.338,3.72 -12.197,5.095C-13.985,6.117 -15.78,7.126 -17.58,8.121C-18.45,0.488 -19.322,-7.469 -20.194,-15.744C-17.901,-16.159 -15.617,-16.581 -13.343,-17.01Z" style="fill:none;fill-rule:nonzero;stroke:rgb(242,13,13);stroke-width:0.5px;"/>
        </g>
        <g transform="matrix(2.55135e-16,-4.16667,4.16667,2.55135e-16,1639.55,3204.41)">
            <path d="M0,-63.471C2.421,-64.35 4.855,-64.399 6.704,-63.017L6.704,-67.276C8.575,-68.316 10.452,-69.342 12.335,-70.354L12.335,-47.391C10.141,-46.927 7.956,-46.456 5.78,-45.978C4.593,-53.545 2.29,-54.988 0,-54.65L0,-63.471ZM-3.265,-53.202C-5.154,-51.807 -6.386,-49.609 -6.386,-47.151C-6.385,-43.766 -2.889,-42.667 1.834,-39.718C7.858,-36.082 15.793,-30.921 15.798,-15.329C15.805,0.713 8.358,6.883 -1.7,0.02L-1.7,-9.031C0.782,-8.46 2.491,-10.147 2.491,-13.687C2.492,-18.118 -0.734,-20.953 -5.347,-24.983C-11.337,-30.299 -18.739,-33.006 -18.733,-40.389C-18.728,-46.669 -12.258,-56.018 -3.265,-61.975L-3.265,-53.202ZM-14.449,-24.47C-12.528,-18.172 -8.341,-13.04 -4.957,-10.538L-4.957,-2.468C-8.469,-5.54 -11.819,-9.446 -13.679,-12.329C-13.53,-11.275 -13.38,-10.209 -13.23,-9.131C-15.136,-10.347 -17.034,-11.577 -18.924,-12.824C-19.837,-17.653 -20.748,-22.099 -21.657,-26.152C-19.268,-25.583 -16.865,-25.022 -14.449,-24.47Z" style="fill:none;fill-rule:nonzero;stroke:rgb(242,13,13);stroke-width:0.5px;"/>
        </g>
        <g transform="matrix(2.55135e-16,-4.16667,4.16667,2.55135e-16,1702.21,2790.59)">
            <path d="M0,-97.34C-1.603,-97.021 -3.205,-96.697 -4.803,-96.366C-8.86,-67.363 -12.901,-39.774 -16.924,-13.796C-18.297,-20.621 -19.668,-27.315 -21.037,-33.874C-18.346,-53.32 -15.648,-73.594 -12.942,-94.627C-13.773,-94.444 -14.603,-94.259 -15.432,-94.073L-15.432,-113.618C-10.315,-115.252 -5.17,-116.799 0,-118.258L0,-97.34ZM-19.265,-93.198C-19.667,-93.105 -20.068,-93.012 -20.47,-92.918C-22.925,-83.259 -25.374,-73.931 -27.816,-64.959C-28.99,-70.217 -30.162,-75.367 -31.332,-80.404C-30.419,-83.872 -29.505,-87.392 -28.59,-90.962C-29.67,-90.695 -30.748,-90.424 -31.824,-90.151L-31.824,-108.049C-27.658,-109.551 -23.471,-110.993 -19.265,-112.376L-19.265,-93.198ZM-35.33,-89.25C-36.077,-89.055 -36.823,-88.86 -37.568,-88.662C-31.302,-63.259 -24.987,-34.49 -18.628,-2.922C-19.904,5.193 -21.179,13.142 -22.452,20.918C-24.668,20.118 -26.878,19.299 -29.083,18.462C-32.367,2.545 -35.638,-12.58 -38.896,-26.835C-40.338,-22.179 -41.778,-17.663 -43.215,-13.292C-44.119,-18.552 -45.022,-23.719 -45.924,-28.79C-44.699,-32.758 -43.471,-36.838 -42.241,-41.025C-45.954,-56.651 -49.648,-71.104 -53.323,-84.264C-53.668,-84.163 -54.012,-84.061 -54.357,-83.959L-54.357,-99.257C-48.069,-101.902 -41.725,-104.406 -35.33,-106.769L-35.33,-89.25ZM-57.794,-82.929C-58.571,-82.694 -59.348,-82.457 -60.124,-82.218C-55.309,-59.813 -50.459,-34.287 -45.578,-6.006C-47.429,-0.614 -49.275,4.532 -51.116,9.421C-53.28,8.465 -55.437,7.491 -57.588,6.498C-63.65,-26.128 -69.659,-54.265 -75.609,-77.21C-77.181,-76.676 -78.748,-76.136 -80.311,-75.589L-80.311,-87.371C-72.897,-91.052 -65.388,-94.527 -57.794,-97.794L-57.794,-82.929Z" style="fill:none;fill-rule:nonzero;stroke:rgb(242,13,13);stroke-width:0.5px;"/>
        </g>
        <g transform="matrix(2.55135e-16,-4.16667,4.16667,2.55135e-16,1166.98,2604.74)">
            <path d="M0,167.902C-5.995,166.732 -11.969,165.441 -17.918,164.028L-17.918,141.126C-13.79,141.835 -9.65,142.503 -5.499,143.129C-4.596,135.693 -3.692,128.205 -2.788,120.667C0.047,120.93 2.888,121.181 5.732,121.419C3.819,137.114 1.909,152.615 0,167.902ZM-5.939,109.261C-8.38,109.093 -10.817,108.917 -13.251,108.735L-13.251,92.496C-14.808,92.448 -16.364,92.398 -17.918,92.347L-17.918,68.758C-16.364,68.704 -14.808,68.651 -13.251,68.6L-13.251,52.361C-10.817,52.174 -8.38,51.994 -5.939,51.821L-5.939,109.261ZM-0.661,42.123C-3.107,42.338 -5.549,42.562 -7.988,42.795L-7.988,24.922C-11.305,25.387 -14.615,25.877 -17.918,26.391L-17.918,3.488C-12.187,2.221 -6.434,1.058 -0.661,0L-0.661,42.123ZM-21.557,163.149C-28.416,161.46 -35.241,159.611 -42.025,157.599L-42.025,136.468C-40.275,136.844 -38.522,137.212 -36.767,137.572L-36.767,29.608C-38.522,29.935 -40.275,30.268 -42.025,30.608L-42.025,9.477C-35.241,7.604 -28.416,5.881 -21.557,4.308L-21.557,163.149Z" style="fill:none;fill-rule:nonzero;stroke:rgb(242,13,13);stroke-width:0.5px;"/>
        </g>
        <g transform="matrix(2.55135e-16,-4.16667,4.16667,2.55135e-16,1139.72,2395.16)">
            <path d="M0,181.39C-6.077,180.891 -12.145,180.272 -18.2,179.531L-18.2,154.159C-13.999,154.531 -9.791,154.861 -5.578,155.149C-4.661,146.973 -3.744,138.771 -2.827,130.547C0.049,130.664 2.927,130.768 5.807,130.86C3.87,147.788 1.935,164.638 0,181.39ZM-6.024,118.318C-8.502,118.24 -10.978,118.155 -13.452,118.063L-13.452,100.197C-15.036,100.173 -16.618,100.147 -18.2,100.121L-18.2,73.988C-16.618,73.959 -15.036,73.932 -13.452,73.906L-13.452,56.04C-10.978,55.947 -8.502,55.86 -6.024,55.779L-6.024,118.318ZM-0.67,45.528C-3.15,45.62 -5.628,45.722 -8.105,45.832L-8.105,26.317C-11.474,26.537 -14.839,26.783 -18.2,27.052L-18.2,1.68C-12.367,1.016 -6.523,0.456 -0.67,0L-0.67,45.528ZM-21.905,179.062C-28.893,178.15 -35.862,177.076 -42.805,175.84L-42.805,151.485C-41.014,151.716 -39.221,151.939 -37.427,152.154L-37.427,28.867C-39.221,29.062 -41.014,29.264 -42.805,29.473L-42.805,5.118C-35.862,3.967 -28.893,2.967 -21.905,2.117L-21.905,179.062Z" style="fill:none;fill-rule:nonzero;stroke:rgb(242,13,13);stroke-width:0.5px;"/>
        </g>
        <g transform="matrix(2.55135e-16,-4.16667,4.16667,2.55135e-16,1629.4,2156.84)">
            <path d="M0,-64.666C-2.486,-64.704 -4.972,-64.736 -7.46,-64.759L-7.46,-91.286C-9.748,-91.325 -12.036,-91.353 -14.325,-91.369L-14.325,-117.668C-12.036,-117.644 -9.748,-117.605 -7.46,-117.549L-7.46,-130.156C-4.973,-130.088 -2.486,-129.998 0,-129.887L0,-64.666ZM-18.056,39.097C-16.24,39.093 -14.424,39.081 -12.608,39.061L-12.608,65.356C-21.464,65.49 -30.323,65.368 -39.172,64.99L-39.172,38.796C-37.358,38.852 -35.543,38.9 -33.728,38.941L-33.728,-117.756C-28.505,-117.904 -23.281,-117.971 -18.056,-117.955L-18.056,39.097ZM-40.888,-117.241C-39.744,-117.29 -38.601,-117.335 -37.457,-117.376L-37.457,-91.165C-39.322,-91.118 -41.186,-91.064 -43.05,-91.003C-43.845,-82.176 -44.64,-73.358 -45.435,-64.552C-48.118,-64.497 -50.8,-64.434 -53.48,-64.362C-51.793,-85.956 -50.104,-107.633 -48.416,-129.372C-45.609,-129.557 -42.802,-129.715 -39.993,-129.846C-40.291,-125.643 -40.589,-121.442 -40.888,-117.241Z" style="fill:none;fill-rule:nonzero;stroke:rgb(242,13,13);stroke-width:0.5px;"/>
        </g>
        <g transform="matrix(2.55135e-16,-4.16667,4.16667,2.55135e-16,1185.51,1935.94)">
            <path d="M0,158.272C-3.542,165.217 -8.79,169.776 -13.458,171.92L-13.458,144.895C-6.866,142.198 -3.545,128.861 -2.067,112.917C0.542,112.753 3.149,112.58 5.751,112.398C3.836,127.532 1.919,142.83 0,158.272ZM-13.458,-12.967C-8.569,-11.083 -4.577,-7.504 -1.55,-2.63C0.542,13.109 2.632,28.692 4.72,44.097C2.116,43.936 -0.491,43.782 -3.101,43.637C-5.022,28.383 -7.754,17.354 -13.458,14.564L-13.458,-12.967ZM-17.164,13.742C-26.805,14.902 -32.168,40.758 -32.166,79.542C-32.168,117.043 -26.285,143.099 -17.164,145.242L-17.164,173.166C-27.979,175.108 -48.247,157.778 -48.251,79.58C-48.248,1.915 -28.35,-16.836 -17.164,-13.929L-17.164,13.742Z" style="fill:none;fill-rule:nonzero;stroke:rgb(242,13,13);stroke-width:0.5px;"/>
        </g>
        <g transform="matrix(2.55135e-16,-4.16667,4.16667,2.55135e-16,1861.7,1765.69)">
            <path d="M0,-165.314C15.68,-158.424 27.436,-124.974 27.439,-84.02C27.437,-43.08 15.465,-8.554 0,-0.767L0,-25.616C7.401,-30.546 11.791,-51.385 11.793,-83.041C11.791,-114.694 7.329,-135.895 0,-140.465L0,-165.314ZM-3.632,-141.304C-11.487,-140.26 -16.03,-119.241 -16.028,-83.029C-16.03,-48.208 -11.195,-25.891 -3.632,-24.714L-3.632,0.416C-19.265,2.967 -31.879,-31.673 -31.874,-82.925C-31.88,-133.675 -19.411,-168.281 -3.632,-166.207L-3.632,-141.304Z" style="fill:none;fill-rule:nonzero;stroke:rgb(242,13,13);stroke-width:0.5px;"/>
        </g>
        <g transform="matrix(2.55135e-16,-4.16667,4.16667,2.55135e-16,1765,1522.19)">
            <path d="M0,-120.343C14.084,-114.536 21.207,-101.051 21.221,-82.793C21.218,-70.118 17.877,-62.164 11.941,-57.45C15.117,-34.965 20.833,-19.031 27.361,-16.317C27.111,-14.377 26.862,-12.423 26.613,-10.457C12.715,-5.011 3.972,-18.853 -1.396,-45.736C-1.419,-45.906 -1.442,-46.076 -1.466,-46.246L-1.466,-65.555C-1.442,-65.554 -1.419,-65.554 -1.396,-65.554C4.12,-66.206 6.401,-72.325 6.403,-83.54C6.401,-94.249 3.773,-101.67 -1.396,-103.637C-1.419,-103.644 -1.442,-103.65 -1.466,-103.656L-1.466,-120.897C-0.977,-120.713 -0.488,-120.529 0,-120.343ZM-4.965,-16.273C-3.4,-16.719 -1.838,-17.173 -0.279,-17.633L-0.279,-0.524C-8.422,2.792 -16.649,5.86 -24.948,8.682L-24.948,-10.963C-23.217,-11.39 -21.489,-11.824 -19.764,-12.266L-19.764,-108.2C-21.489,-108.6 -23.217,-108.993 -24.948,-109.379L-24.948,-129.025C-18.238,-126.899 -11.575,-124.624 -4.965,-122.197L-4.965,-16.273Z" style="fill:none;fill-rule:nonzero;stroke:rgb(242,13,13);stroke-width:0.5px;"/>
        </g>
        <g transform="matrix(2.55135e-16,-4.16667,4.16667,2.55135e-16,1567.35,1181.69)">
            <path d="M0,-27.061C-1.755,-27.846 -3.517,-28.622 -5.287,-29.389L-5.287,-13.808C-7.631,-16.078 -9.988,-18.858 -12.357,-22.123L-12.357,-32.39C-14.144,-33.133 -15.939,-33.866 -17.739,-34.591L-17.739,-42.746C-11.751,-39.325 -5.836,-35.761 0,-32.053L0,-27.061ZM-38.054,-22.699L-38.054,14.756C-36.206,14.03 -34.364,13.295 -32.529,12.549L-32.529,23.095C-38.633,26.518 -44.805,29.786 -51.04,32.902L-51.04,19.653C-49.165,18.975 -47.295,18.286 -45.432,17.587L-45.432,-38.614C-45.342,-38.59 -45.252,-38.566 -45.163,-38.542C-42.783,-32.85 -40.414,-27.562 -38.054,-22.699ZM-5.287,-9.39L-5.287,6.49C-6.63,7.377 -7.976,8.256 -9.327,9.128C-20.498,2.918 -31.941,-15.772 -43.615,-44.223C-46.08,-45.07 -48.555,-45.9 -51.04,-46.715L-51.04,-59.963C-44.444,-56.893 -37.917,-53.662 -31.467,-50.272C-22.588,-30.552 -13.855,-16.535 -5.287,-9.39Z" style="fill:none;fill-rule:nonzero;stroke:rgb(242,13,13);stroke-width:0.5px;"/>
        </g>
        <g transform="matrix(2.55135e-16,-4.16667,4.16667,2.55135e-16,2671.77,3143.86)">
            <path d="M0,-84.726C18.951,-95.874 29.264,-89.688 29.228,-69.858C29.233,-56.558 24.469,-47.81 16.259,-44.479C20.646,-25.817 28.604,-5.816 37.969,5.203C37.611,7.203 37.254,9.184 36.897,11.148C17.039,-0.844 5.339,-21.375 -1.87,-38.278C-1.901,-38.386 -1.933,-38.494 -1.964,-38.602L-1.964,-50.247C-1.933,-50.248 -1.901,-50.25 -1.87,-50.251C5.516,-50.897 8.665,-55.694 8.659,-64.119C8.664,-72.194 5.047,-75.874 -1.87,-73.262C-1.901,-73.25 -1.933,-73.237 -1.964,-73.224L-1.964,-83.622C-1.31,-83.992 -0.655,-84.36 0,-84.726ZM-6.62,-23.046C-4.546,-22.183 -2.464,-21.333 -0.374,-20.497L-0.374,-9.844C-11.292,-15.96 -21.989,-22.571 -32.428,-29.678L-32.428,-34.672C-30.251,-33.612 -28.062,-32.568 -25.862,-31.54L-25.862,-62.82C-28.062,-61.792 -30.251,-60.748 -32.428,-59.688L-32.428,-64.682C-23.987,-70.428 -15.378,-75.851 -6.62,-80.95L-6.62,-23.046Z" style="fill:none;fill-rule:nonzero;stroke:rgb(242,13,13);stroke-width:0.5px;"/>
        </g>
        <g transform="matrix(2.55135e-16,-4.16667,4.16667,2.55135e-16,2149.54,2724.51)">
            <path d="M0,156.556C-8.336,154.312 -16.615,151.826 -24.824,149.097L-24.824,128.855C-19.128,130.209 -13.398,131.479 -7.639,132.665C-6.386,125.959 -5.131,119.151 -3.875,112.244C0.064,112.728 4.015,113.188 7.978,113.624C5.313,128.331 2.654,142.656 0,156.556ZM-8.249,101.493C-11.635,101.193 -15.011,100.879 -18.377,100.553L-18.377,85.968C-20.531,85.896 -22.68,85.821 -24.824,85.745L-24.824,64.896C-22.68,64.763 -20.53,64.633 -18.377,64.506L-18.377,49.921C-15.011,49.51 -11.635,49.115 -8.249,48.736L-8.249,101.493ZM-0.918,39.244C-4.319,39.703 -7.71,40.183 -11.091,40.683L-11.091,24.364C-15.689,25.34 -20.267,26.37 -24.824,27.452L-24.824,7.211C-16.916,4.582 -8.944,2.178 -0.918,0L-0.918,39.244ZM-29.842,147.395C-39.292,144.128 -48.647,140.538 -57.887,136.623L-57.887,119.94C-55.503,120.662 -53.112,121.368 -50.714,122.059L-50.714,34.249C-53.112,34.939 -55.503,35.646 -57.887,36.367L-57.887,19.685C-48.647,15.77 -39.292,12.179 -29.842,8.912L-29.842,147.395Z" style="fill:none;fill-rule:nonzero;stroke:rgb(242,13,13);stroke-width:0.5px;"/>
        </g>
        <g transform="matrix(2.55135e-16,-4.16667,4.16667,2.55135e-16,2842.9,2537.12)">
            <path d="M0,-176.326C29.483,-181.093 46.711,-147.199 46.688,-87.853C46.709,-30.597 28.646,4.767 0,-0.178C-0.035,-0.184 -0.069,-0.189 -0.104,-0.195L-0.104,-25.567C-0.069,-25.563 -0.035,-25.559 0,-25.555C14.888,-25.206 23.814,-47.899 23.809,-87.599C23.815,-128.852 15.305,-150.571 0,-150.946C-0.035,-150.942 -0.069,-150.938 -0.104,-150.934L-0.104,-176.309C-0.069,-176.315 -0.035,-176.32 0,-176.326ZM-5.303,-1.071C-15.103,-2.781 -24.853,-4.816 -34.534,-7.174L-34.534,-30.307C-32.037,-29.872 -29.535,-29.453 -27.029,-29.049L-27.029,-147.455C-29.535,-147.051 -32.037,-146.632 -34.534,-146.197L-34.534,-169.33C-24.853,-171.689 -15.103,-173.723 -5.303,-175.433L-5.303,-1.071Z" style="fill:none;fill-rule:nonzero;stroke:rgb(242,13,13);stroke-width:0.5px;"/>
        </g>
        <g transform="matrix(2.55135e-16,-4.16667,4.16667,2.55135e-16,2865.53,2167.61)">
            <path d="M0,-187.366C29.791,-185.56 46.782,-149.639 46.784,-93.299C46.784,-39.008 28.951,-1.49 0,0C-0.035,0.001 -0.07,0.002 -0.105,0.004L-0.105,-26.991C-0.07,-26.992 -0.035,-26.993 0,-26.993C15.048,-29.083 23.962,-53.178 23.963,-93.024C23.962,-134.456 15.469,-157.473 0,-160.37C-0.035,-160.371 -0.07,-160.372 -0.105,-160.373L-0.105,-187.37C-0.07,-187.368 -0.035,-187.367 0,-187.366ZM-5.368,0.153C-15.298,0.377 -25.234,0.278 -35.158,-0.146L-35.158,-26.834C-32.598,-26.756 -30.037,-26.693 -27.476,-26.646L-27.476,-160.72C-30.037,-160.673 -32.598,-160.61 -35.158,-160.532L-35.158,-187.22C-25.234,-187.644 -15.297,-187.743 -5.368,-187.519L-5.368,0.153Z" style="fill:none;fill-rule:nonzero;stroke:rgb(242,13,13);stroke-width:0.5px;"/>
        </g>
        <g transform="matrix(2.55135e-16,-4.16667,4.16667,2.55135e-16,2717.29,1788.77)">
            <path d="M0,-116.211C-2.498,-116.642 -5.001,-117.057 -7.508,-117.457L-7.508,1.246C-5.001,0.846 -2.498,0.431 0,0L0,23.197C-12.183,26.138 -24.475,28.565 -36.837,30.481L-36.837,5.205C-34.302,4.924 -31.77,4.628 -29.241,4.317L-29.241,-120.528C-31.77,-120.84 -34.302,-121.136 -36.837,-121.416L-36.837,-146.692C-24.475,-144.776 -12.183,-142.349 0,-139.408L0,-116.211Z" style="fill:none;fill-rule:nonzero;stroke:rgb(242,13,13);stroke-width:0.5px;"/>
        </g>
        <g transform="matrix(2.55135e-16,-4.16667,4.16667,2.55135e-16,2764.49,1623.34)">
            <path d="M0,-141.78C3.711,-139.269 7.405,-135.186 10.191,-129.911L10.191,-138.024C13.011,-136.944 15.822,-135.834 18.624,-134.694L18.624,-96.453C15.361,-97.003 12.085,-97.536 8.796,-98.052C7.004,-113.526 3.51,-119.582 0,-121.876L0,-141.78ZM-5.024,-122.939C-7.941,-122.245 -9.862,-118.082 -9.861,-111.401C-9.863,-102.223 -4.401,-95.711 2.805,-87.392C12.03,-76.571 23.763,-68.254 23.754,-45.205C23.748,-22.1 12.864,-1.409 -2.61,4.834L-2.61,-16.53C1.208,-18.926 3.805,-24.654 3.805,-32.04C3.803,-41.406 -1.087,-44.454 -8.247,-52.371C-17.513,-62.541 -29.356,-72.454 -29.36,-104.113C-29.367,-132.311 -18.913,-149.756 -5.024,-144.545L-5.024,-122.939ZM-22.53,-44.345C-19.476,-23.956 -12.88,-16.245 -7.642,-15.293L-7.642,5.541C-13.084,5.324 -18.36,1.523 -21.31,-4.108C-21.073,-0.895 -20.835,2.31 -20.598,5.506C-23.613,6.361 -26.636,7.184 -29.667,7.976C-31.131,-8.868 -32.596,-25.975 -34.064,-43.33C-30.207,-43.652 -26.363,-43.99 -22.53,-44.345Z" style="fill:none;fill-rule:nonzero;stroke:rgb(242,13,13);stroke-width:0.5px;"/>
        </g>
        <g transform="matrix(2.55135e-16,-4.16667,4.16667,2.55135e-16,2527.3,1186.95)">
            <path d="M0,-25.016C-2.177,-26.075 -4.365,-27.119 -6.565,-28.148L-6.565,3.132C-4.365,2.104 -2.177,1.06 0,0.001L0,4.994C-10.618,12.223 -21.502,18.939 -32.615,25.142L-32.615,14.4C-30.336,13.491 -28.067,12.566 -25.808,11.627L-25.808,-36.642C-28.067,-37.582 -30.336,-38.506 -32.615,-39.415L-32.615,-50.158C-21.502,-43.954 -10.618,-37.238 0,-30.01L0,-25.016ZM-30.464,-8.506C-34.542,-8.253 -38.651,-8.007 -42.79,-7.769L-42.79,-20.079C-38.651,-19.699 -34.542,-19.306 -30.464,-18.901L-30.464,-8.506ZM-40.613,-42.529C-42.914,-43.402 -45.223,-44.26 -47.542,-45.102L-47.542,20.086C-45.223,19.244 -42.914,18.386 -40.613,17.513L-40.613,29.498C-51.833,35.457 -63.271,40.902 -74.891,45.836L-74.891,29.189C-72.509,28.466 -70.134,27.728 -67.767,26.974C-67.766,0.653 -67.766,-25.669 -67.767,-51.99C-70.133,-52.744 -72.508,-53.482 -74.891,-54.205L-74.891,-70.852C-63.271,-65.918 -51.833,-60.472 -40.613,-54.514L-40.613,-42.529Z" style="fill:none;fill-rule:nonzero;stroke:rgb(242,13,13);stroke-width:0.5px;"/>
        </g>
        <g transform="matrix(2.55135e-16,-4.16667,4.16667,2.55135e-16,4191.4,2970.05)">
            <path d="M0,106.072C-5.782,108.22 -14.262,106.582 -21.681,103.586L-21.681,88.778C-11.182,91.596 -5.756,84.952 -3.365,74.863C0.875,75.57 5.139,76.249 9.427,76.903C6.272,87.317 3.129,97.059 0,106.072ZM-21.681,2.284C-13.902,-1.013 -7.447,-2.148 -2.524,-1.203C0.878,7.603 4.296,17.233 7.729,27.617C3.448,28.325 -0.81,29.062 -5.043,29.827C-8.152,20.576 -12.598,15.295 -21.681,17.37L-21.681,2.284ZM-27.554,19.26C-42.762,26.847 -50.867,39.705 -50.886,52.953C-50.873,65.7 -41.951,78.854 -27.554,86.617L-27.554,100.92C-36.126,96.948 -48.165,86.404 -57.882,77.169C-67.627,67.628 -75.05,59.396 -75.066,52.97C-75.05,46.566 -67.765,38.393 -58.093,28.834C-48.449,19.597 -36.418,8.973 -27.554,5.087L-27.554,19.26Z" style="fill:none;fill-rule:nonzero;stroke:rgb(242,13,13);stroke-width:0.5px;"/>
        </g>
        <g transform="matrix(2.55135e-16,-4.16667,4.16667,2.55135e-16,4680.09,2487.66)">
            <path d="M0,-128.536C-3.124,-128.239 -6.243,-127.919 -9.359,-127.576L-9.359,-0.961C-6.243,-0.617 -3.124,-0.297 0,0L0,25.655C-15.233,23.628 -30.375,20.826 -45.355,17.25L-45.355,-6.007C-42.283,-5.483 -39.204,-4.982 -36.119,-4.505L-36.119,-124.035C-39.204,-123.558 -42.283,-123.057 -45.355,-122.534L-45.355,-145.791C-30.375,-149.365 -15.233,-152.165 0,-154.191L0,-128.536ZM-42.449,-55.242C-47.969,-55.383 -53.468,-55.536 -58.941,-55.7L-58.941,-77.968C-53.468,-78.229 -47.969,-78.471 -42.449,-78.695L-42.449,-55.242ZM-56.056,-120.61C-59.111,-120.032 -62.158,-119.431 -65.198,-118.807L-65.198,-9.738C-62.158,-9.113 -59.111,-8.511 -56.056,-7.933L-56.056,14.556C-70.954,10.611 -85.674,5.891 -100.146,0.396L-100.146,-18.054C-97.178,-17.249 -94.2,-16.467 -91.212,-15.708L-91.212,-112.841C-94.2,-112.083 -97.178,-111.302 -100.146,-110.497L-100.146,-128.948C-85.674,-134.439 -70.954,-139.156 -56.056,-143.099L-56.056,-120.61Z" style="fill:none;fill-rule:nonzero;stroke:rgb(242,13,13);stroke-width:0.5px;"/>
        </g>
        <g transform="matrix(2.55135e-16,-4.16667,4.16667,2.55135e-16,4137.64,2068.58)">
            <path d="M0,131.748C3.094,131.551 6.186,131.332 9.275,131.089L9.275,157.104C-6.94,158.883 -23.241,159.788 -39.543,159.821L-39.543,133.031C-36.136,133.026 -32.729,132.994 -29.323,132.935C-38.852,79.507 -48.387,25.468 -57.911,-27.647C-48.688,-28 -39.456,-28.073 -30.228,-27.867C-20.139,25.965 -10.056,79.743 0,131.748ZM-52.738,39.043C-55.196,51.899 -57.653,64.734 -60.109,77.523C-55.369,77.548 -50.626,77.564 -45.883,77.571C-44.244,86.946 -42.605,96.326 -40.966,105.703C-49.117,105.699 -57.268,105.602 -65.408,105.413C-67.131,114.417 -68.853,123.389 -70.575,132.321C-66.529,132.512 -62.479,132.665 -58.428,132.779L-58.428,159.467C-70.065,159.009 -81.685,158.105 -93.259,156.755L-93.259,130.84C-90.602,131.061 -87.942,131.266 -85.279,131.454C-76.176,91.721 -67.048,50.605 -57.911,9.194C-56.187,19.12 -54.463,29.073 -52.738,39.043Z" style="fill:none;fill-rule:nonzero;stroke:rgb(242,13,13);stroke-width:0.5px;"/>
        </g>
        <g transform="matrix(2.55135e-16,-4.16667,4.16667,2.55135e-16,4752.74,1800.75)">
            <path d="M0,-163.406C25.493,-156.732 38.34,-137.673 38.365,-112.307C38.36,-94.664 32.332,-83.638 21.6,-77.263C27.343,-46.11 37.676,-23.523 49.437,-19.546C48.988,-16.848 48.538,-14.132 48.088,-11.398C23.031,-4.331 7.18,-24.858 -2.527,-61.632C-2.569,-61.864 -2.611,-62.096 -2.653,-62.329L-2.653,-88.633C-2.611,-88.632 -2.569,-88.631 -2.527,-88.63C7.456,-89.453 11.58,-97.852 11.585,-113.292C11.581,-128.031 6.826,-138.173 -2.527,-140.519C-2.569,-140.526 -2.611,-140.533 -2.653,-140.54L-2.653,-164.026C-1.768,-163.822 -0.884,-163.615 0,-163.406ZM-8.984,-21.862C-6.152,-22.298 -3.326,-22.754 -0.505,-23.229L-0.505,0.114C-15.241,3.587 -30.132,6.311 -45.11,8.287L-45.11,-17.387C-41.986,-17.681 -38.866,-17.999 -35.75,-18.34L-35.75,-145.067C-38.866,-145.408 -41.986,-145.725 -45.11,-146.02L-45.11,-171.693C-32.999,-170.097 -20.945,-168.011 -8.984,-165.436L-8.984,-21.862Z" style="fill:none;fill-rule:nonzero;stroke:rgb(242,13,13);stroke-width:0.5px;"/>
        </g>
        <g transform="matrix(2.55135e-16,-4.16667,4.16667,2.55135e-16,4609.08,1403.07)">
            <path d="M0,-94.467C16.635,-86.038 29.276,-74.562 37.817,-66.38C46.35,-57.796 50.782,-52.506 50.796,-47.173C50.781,-42.049 46.131,-36.722 37.481,-28.037C28.824,-19.768 16.167,-8.14 0,-0.011C-0.039,0.009 -0.078,0.028 -0.118,0.048L-0.118,-13.579C-0.078,-13.592 -0.039,-13.607 0,-13.62C16.793,-21.214 26.368,-33.62 26.389,-47.009C26.364,-61.013 17.257,-72.752 0,-80.857C-0.039,-80.871 -0.078,-80.885 -0.118,-80.899L-0.118,-94.525C-0.078,-94.506 -0.039,-94.486 0,-94.467ZM-6.012,2.925C-17.169,8.268 -28.517,13.122 -40.022,17.486L-40.022,-0.978C-37.054,-1.783 -34.097,-2.611 -31.15,-3.462L-31.15,-91.007C-34.097,-91.858 -37.054,-92.685 -40.022,-93.489L-40.022,-111.953C-28.517,-107.592 -17.169,-102.741 -6.012,-97.401L-6.012,2.925Z" style="fill:none;fill-rule:nonzero;stroke:rgb(242,13,13);stroke-width:0.5px;"/>
        </g>
        <g transform="matrix(2.55135e-16,-4.16667,4.16667,2.55135e-16,2290.56,372.08)">
            <path d="M0,-38.241C1.614,-34.931 0.589,-30.064 -1.329,-25.789L-12.379,-25.789C-10.556,-31.837 -15.454,-34.941 -22.85,-36.314C-22.328,-38.744 -21.816,-41.184 -21.314,-43.633C-13.735,-41.831 -6.624,-40.033 0,-38.241ZM-76.924,-25.789C-78.887,-30.271 -79.454,-33.974 -78.602,-36.795C-72.037,-38.745 -64.927,-40.7 -57.298,-42.663C-56.844,-40.216 -56.381,-37.779 -55.91,-35.352C-62.77,-33.568 -66.778,-31.022 -65.666,-25.789L-76.924,-25.789ZM-64.556,-22.4C-59.825,-13.615 -50.318,-8.868 -39.458,-8.861C-28.997,-8.866 -19.069,-14.085 -13.824,-22.4L-3.051,-22.4C-9.604,-12.444 -27.238,5.392 -39.763,5.339C-52.164,5.388 -69.182,-12.109 -75.23,-22.4L-64.556,-22.4Z" style="fill:none;fill-rule:nonzero;stroke:rgb(242,13,13);stroke-width:0.5px;"/>
        </g>
        <g transform="matrix(2.55135e-16,-4.16667,4.16667,2.55135e-16,1966.17,711.764)">
            <path d="M0,3.951C4.289,11.659 19.636,16.019 42.998,16.023C65.422,16.02 81.9,11.375 86.511,3.951L105.155,3.951C95.787,19.31 69.405,31.16 42.762,31.164C16.36,31.159 -9.352,19.451 -18.478,3.951L0,3.951ZM-19.913,0.376C-25.203,-15.094 0.744,-27.213 42.951,-27.203C85.175,-27.212 111.653,-14.878 106.521,0.376L87.429,0.376C87.26,-6.931 71.084,-11.356 43.553,-11.353C16.009,-11.355 -0.609,-6.859 -0.821,0.376L-19.913,0.376Z" style="fill:none;fill-rule:nonzero;stroke:rgb(242,13,13);stroke-width:0.5px;"/>
        </g>
        <g transform="matrix(2.55135e-16,-4.16667,4.16667,2.55135e-16,1695.15,763.338)">
            <path d="M0,6.764C0.301,8.576 0.609,10.385 0.924,12.192L75.851,12.192C99.89,12.191 111.989,10.117 115.196,5.349L139.589,5.349C133.786,20.615 109.648,27.707 65.85,27.717L3.831,27.717C4.189,29.508 4.554,31.295 4.927,33.08L-15.493,33.08C-18.075,24.376 -20.407,15.6 -22.49,6.764L0,6.764ZM-4.64,-26.316C-4.429,-24.479 -4.21,-22.644 -3.984,-20.81L67.06,-20.81C116.326,-20.818 141.733,-13.02 140.318,1.62L115.883,1.62C114.745,-3.309 103.582,-5.035 77.027,-5.034L-1.849,-5.034C-1.58,-3.212 -1.304,-1.392 -1.02,0.425L-23.938,0.425C-25.901,-8.438 -27.614,-17.356 -29.078,-26.316L-4.64,-26.316Z" style="fill:none;fill-rule:nonzero;stroke:rgb(242,13,13);stroke-width:0.5px;"/>
        </g>
        <g transform="matrix(2.55135e-16,-4.16667,4.16667,2.55135e-16,1410.84,260.46)">
            <path d="M0,14.244C0.139,12.544 0.272,10.844 0.397,9.142L26.085,9.142C25.18,18.03 24.016,26.894 22.593,35.721L-2.133,35.721C-1.918,33.88 -1.711,32.038 -1.512,30.194L-126.576,30.194C-126.396,32.038 -126.209,33.88 -126.015,35.721L-150.74,35.721C-151.812,28.584 -152.726,21.422 -153.482,14.244L0,14.244ZM-154.021,8.838C-155.502,-6.556 -137.345,-14.599 -103.56,-14.595C-80.511,-14.595 -65.817,-10.848 -58.583,-4.281C-21.399,-7.793 10.051,-14.134 21.606,-21.477C25.099,-21.197 28.591,-20.916 32.081,-20.636C27.728,-5.033 -1.418,4.497 -42.024,10.361C-42.281,10.387 -42.538,10.412 -42.795,10.437L-71.524,10.437C-71.524,10.412 -71.524,10.387 -71.525,10.361C-72.566,4.344 -82.422,1.824 -100.289,1.824C-117.378,1.824 -127.854,4.725 -128.223,10.361C-128.221,10.387 -128.219,10.412 -128.217,10.437L-153.868,10.437C-153.92,9.904 -153.971,9.371 -154.021,8.838Z" style="fill:none;fill-rule:nonzero;stroke:rgb(242,13,13);stroke-width:0.5px;"/>
        </g>
        <g transform="matrix(2.55135e-16,-4.16667,4.16667,2.55135e-16,1322.31,419.905)">
            <path d="M0,-58.645C0.048,-56.968 0.093,-55.29 0.135,-53.611L12.582,-53.611C25.801,-53.611 30.967,-54.145 37.597,-55.823L38.628,-55.823C49.976,-52.01 62.119,-46.284 68.001,-38.869L0.431,-38.869C0.46,-36.958 0.485,-35.046 0.506,-33.134L-25.749,-33.134C-25.759,-41.649 -25.777,-50.157 -25.803,-58.645L0,-58.645ZM-122.043,-34.817C-120.805,-39.711 -117.142,-44.22 -111.987,-47.656C-96.93,-49.718 -81.929,-51.78 -67.001,-53.84C-67.086,-51.271 -67.163,-48.7 -67.23,-46.129C-78.998,-44.372 -91.16,-41.163 -93.445,-34.817L-122.043,-34.817ZM-93.538,-30.992C-90.848,-21.659 -66.289,-16.53 -25.739,-16.53C14.819,-16.53 42.8,-23.19 42.523,-32.981C42.502,-33.746 42.218,-34.434 42.2,-35.046L70.273,-35.046C70.857,-33.593 71.18,-32.063 71.232,-30.457C71.766,-12.169 32.398,0 -25.748,-0.003C-80.743,0 -121.651,-12.552 -122.443,-30.992L-93.538,-30.992Z" style="fill:none;fill-rule:nonzero;stroke:rgb(242,13,13);stroke-width:0.5px;"/>
        </g>
        <g transform="matrix(2.55135e-16,-4.16667,4.16667,2.55135e-16,1036.39,179.126)">
            <path d="M0,-37.922C1.23,-31.78 2.333,-25.616 3.309,-19.434L-21.482,-19.434C-21.972,-23.724 -22.508,-28.005 -23.087,-32.275C-30.951,-33.205 -38.772,-34.134 -46.547,-35.063C-46.806,-37.974 -47.079,-40.88 -47.364,-43.781C-31.789,-41.83 -15.994,-39.877 0,-37.922ZM-57.637,-31.823C-57.483,-29.311 -57.335,-26.794 -57.195,-24.275L-74.396,-24.275C-74.359,-22.663 -74.322,-21.049 -74.287,-19.434L-99.826,-19.434C-99.789,-21.049 -99.751,-22.663 -99.711,-24.275L-116.912,-24.275C-116.768,-26.794 -116.616,-29.311 -116.458,-31.823L-57.637,-31.823ZM3.89,-15.647C4.958,-8.498 5.856,-1.327 6.584,5.859L-19.109,5.859C-19.245,4.006 -19.389,2.153 -19.542,0.301L-147.446,0.301C-147.584,2.153 -147.715,4.006 -147.838,5.859L-173.531,5.859C-172.853,-1.327 -172.016,-8.498 -171.022,-15.647L3.89,-15.647ZM-125.431,-37.245C-125.653,-34.737 -125.866,-32.226 -126.07,-29.711L-144.546,-29.711C-144.953,-26.292 -145.334,-22.866 -145.689,-19.434L-170.48,-19.434C-169.604,-25.389 -168.619,-31.327 -167.524,-37.245L-125.431,-37.245Z" style="fill:none;fill-rule:nonzero;stroke:rgb(242,13,13);stroke-width:0.5px;"/>
        </g>
        <g transform="matrix(2.55135e-16,-4.16667,4.16667,2.55135e-16,788.747,307.773)">
            <path d="M0,-17.618C-0.383,-19.413 -0.774,-21.205 -1.174,-22.995L19.598,-22.995C22.287,-14.269 24.707,-5.472 26.858,3.382L4.086,3.382C3.766,1.567 3.439,-0.247 3.103,-2.057L-130.619,-2.057C-129.391,-7.266 -128.077,-12.454 -126.677,-17.618L0,-17.618ZM-132.024,5.099C-131.773,3.954 -131.518,2.81 -131.258,1.667L-108.597,1.667C-108.893,3.53 -109.181,5.397 -109.462,7.265C-101.83,8.062 -94.145,8.86 -86.408,9.658C-86.632,12.352 -86.847,15.051 -87.052,17.755C-106.567,16.052 -125.834,14.352 -144.833,12.654C-144.178,9.831 -143.494,7.014 -142.783,4.203C-139.206,4.501 -135.62,4.8 -132.024,5.099ZM-81.769,-35.373C-82.07,-32.941 -82.363,-30.504 -82.649,-28.06L-103.182,-28.06C-103.646,-25.813 -104.097,-23.56 -104.538,-21.303L-125.456,-21.303C-124.827,-23.56 -124.181,-25.813 -123.519,-28.06L-133.278,-28.06C-132.455,-30.504 -131.609,-32.941 -130.741,-35.373L-81.769,-35.373Z" style="fill:none;fill-rule:nonzero;stroke:rgb(242,13,13);stroke-width:0.5px;"/>
        </g>
        <g transform="matrix(2.55135e-16,-4.16667,4.16667,2.55135e-16,548.285,371.639)">
            <path d="M0,-17.099C-0.56,-18.818 -1.128,-20.532 -1.705,-22.243L13.036,-22.243C16.916,-13.902 20.528,-5.459 23.871,3.073L6.145,3.073C5.648,1.323 5.143,-0.422 4.63,-2.164L-97.758,-2.164C-95.883,-7.175 -93.922,-12.154 -91.875,-17.099L0,-17.099ZM-100.099,4.728C-99.707,3.624 -99.31,2.521 -98.91,1.421L-81.36,1.421C-81.817,3.215 -82.266,5.014 -82.708,6.817C-76.795,7.586 -70.799,8.356 -64.722,9.126C-65.077,11.727 -65.424,14.336 -65.761,16.952C-81.445,15.304 -96.725,13.66 -111.581,12.019C-110.529,9.292 -109.449,6.573 -108.34,3.864C-105.608,4.152 -102.861,4.44 -100.099,4.728ZM-57.857,-34.051C-58.28,-31.736 -58.695,-29.413 -59.102,-27.081L-73.352,-27.081C-74.013,-24.936 -74.663,-22.784 -75.301,-20.625L-90.251,-20.625C-89.339,-22.784 -88.411,-24.936 -87.466,-27.081L-94.238,-27.081C-93.063,-29.413 -91.866,-31.736 -90.647,-34.051L-57.857,-34.051Z" style="fill:none;fill-rule:nonzero;stroke:rgb(242,13,13);stroke-width:0.5px;"/>
        </g>
        <g transform="matrix(2.55135e-16,-4.16667,4.16667,2.55135e-16,358.943,450.056)">
            <path d="M0,-33.815C3.539,-28.461 6.951,-23.042 10.236,-17.564L1.452,-17.564C-0.199,-21.365 -1.895,-25.137 -3.635,-28.879C-6.205,-29.694 -8.64,-30.507 -10.936,-31.319C-11.698,-33.863 -12.473,-36.394 -13.262,-38.909C-9.451,-37.218 -5.023,-35.52 0,-33.815ZM-13.345,-28.483C-12.879,-26.281 -12.42,-24.068 -11.968,-21.845L-17.615,-21.845C-17.495,-20.422 -17.376,-18.995 -17.258,-17.564L-26.306,-17.564C-26.181,-18.995 -26.054,-20.422 -25.926,-21.845L-31.573,-21.845C-31.109,-24.068 -30.638,-26.281 -30.16,-28.483L-13.345,-28.483ZM12.231,-14.202C15.966,-7.846 19.531,-1.411 22.927,5.094L10.646,5.094C10.012,3.416 9.369,1.743 8.718,0.074L-49.135,0.074C-49.725,1.743 -50.307,3.416 -50.881,5.094L-63.162,5.094C-59.998,-1.411 -56.678,-7.846 -53.199,-14.202L12.231,-14.202ZM-31.483,-33.225C-32.127,-31.037 -32.761,-28.839 -33.385,-26.63L-38.891,-26.63C-40.138,-23.627 -41.36,-20.604 -42.556,-17.564L-51.34,-17.564C-48.392,-22.841 -45.335,-28.062 -42.168,-33.225L-31.483,-33.225Z" style="fill:none;fill-rule:nonzero;stroke:rgb(242,13,13);stroke-width:0.5px;"/>
        </g>
        <g transform="matrix(2.55135e-16,-4.16667,4.16667,2.55135e-16,4733.38,379.413)">
            <path d="M0,-63.143L15.182,-63.143C10.549,-53.077 5.525,-43.159 0.109,-33.415L-10.767,-33.415C-10.145,-34.982 -9.53,-36.553 -8.923,-38.128C-15.93,-35.619 -22.352,-33.12 -28.154,-30.633C-31.246,-34.204 -36.149,-38.756 -43.298,-43.431C-31.493,-48.482 -17.468,-53.575 -1.479,-58.709C-0.98,-60.184 -0.487,-61.662 0,-63.143ZM-3.169,-27.622C-8.573,-18.239 -14.346,-9.024 -20.487,0L-25.479,0C-24.579,-1.85 -23.691,-3.708 -22.813,-5.575L-53.164,-5.575C-52.283,-3.708 -51.391,-1.85 -50.488,0L-55.48,0C-61.639,-9.024 -67.428,-18.239 -72.847,-27.622L-62.908,-27.622C-62.113,-25.698 -61.307,-23.781 -60.49,-21.872L-15.516,-21.872C-14.703,-23.781 -13.9,-25.698 -13.108,-27.622L-3.169,-27.622ZM-42.295,-25.805C-48.048,-30.697 -56.388,-35.794 -68.035,-40.535C-67.218,-38.393 -66.388,-36.259 -65.544,-34.133L-76.534,-34.133C-81.503,-43.088 -86.142,-52.189 -90.449,-61.416L-75.495,-61.416C-74.554,-58.596 -73.59,-55.787 -72.604,-52.992C-49.775,-44.666 -35.59,-32.965 -30.535,-25.805L-42.295,-25.805Z" style="fill:none;fill-rule:nonzero;stroke:rgb(242,13,13);stroke-width:0.5px;"/>
        </g>
        <g transform="matrix(2.55135e-16,-4.16667,4.16667,2.55135e-16,4318.08,741.216)">
            <path d="M0,4.722C4.88,13.854 22.301,19.015 48.701,19.02C74.043,19.017 92.571,13.518 97.564,4.722L118.59,4.722C108.519,22.921 78.821,36.931 48.723,36.936C18.899,36.93 -10.527,23.088 -20.839,4.722L0,4.722ZM-22.458,0.485C-28.328,-17.847 0.949,-32.214 47.981,-32.202C95.033,-32.213 125.21,-17.59 120.014,0.485L98.499,0.485C98.087,-8.173 79.779,-13.418 48.875,-13.414C17.959,-13.418 -0.72,-8.088 -0.944,0.485L-22.458,0.485Z" style="fill:none;fill-rule:nonzero;stroke:rgb(242,13,13);stroke-width:0.5px;"/>
        </g>
        <g transform="matrix(2.55135e-16,-4.16667,4.16667,2.55135e-16,4037.18,497.655)">
            <path d="M0,-11.137C-0.069,-7.276 -0.143,-3.422 -0.222,0.424L-24.851,0.424C-24.981,-3.422 -25.102,-7.276 -25.214,-11.137L0,-11.137ZM-71.674,-1.603C-71.389,0.542 -71.092,2.683 -70.784,4.823L51.38,4.823C51.687,2.683 51.983,0.542 52.267,-1.603L77.005,-1.603C75.062,8.855 72.751,19.253 70.072,29.568L47.315,29.568C47.707,27.453 48.089,25.335 48.459,23.213L-67.851,23.213C-67.479,25.335 -67.096,27.453 -66.702,29.568L-89.459,29.568C-92.146,19.254 -94.463,8.855 -96.412,-1.603L-71.674,-1.603ZM-75.636,-40.705C-75.485,-38.537 -75.322,-36.37 -75.148,-34.205L55.728,-34.205C55.901,-36.37 56.063,-38.537 56.214,-40.705L82.53,-40.705C81.499,-30.132 80.101,-19.591 78.334,-9.105L53.216,-9.105C53.475,-11.255 53.723,-13.407 53.96,-15.562L-73.373,-15.562C-73.136,-13.407 -72.887,-11.255 -72.627,-9.105L-97.744,-9.105C-99.516,-19.591 -100.919,-30.132 -101.952,-40.705L-75.636,-40.705Z" style="fill:none;fill-rule:nonzero;stroke:rgb(242,13,13);stroke-width:0.5px;"/>
        </g>
        <g transform="matrix(2.55135e-16,-4.16667,4.16667,2.55135e-16,3812.1,145.078)">
            <path d="M0,-39.419C0.104,-33.604 0.098,-27.787 -0.019,-21.972L-26.926,-21.972C-26.877,-25.431 -26.855,-28.891 -26.861,-32.351C-37.278,-33.783 -47.699,-35.214 -58.117,-36.645C-58.133,-40.165 -58.165,-43.684 -58.212,-47.201C-38.842,-44.608 -19.424,-42.014 0,-39.419ZM-161.783,-25.82C-161.76,-23.046 -161.719,-20.273 -161.659,-17.5L-0.13,-17.5C-0.382,-9.062 -0.866,-0.631 -1.583,7.782L-28.044,7.782C-27.912,5.612 -27.791,3.441 -27.681,1.268C-72.114,1.269 -116.548,1.269 -160.982,1.268C-160.871,3.441 -160.75,5.612 -160.617,7.782L-187.078,7.782C-188.033,-3.396 -188.577,-14.606 -188.708,-25.82L-161.783,-25.82Z" style="fill:none;fill-rule:nonzero;stroke:rgb(242,13,13);stroke-width:0.5px;"/>
        </g>
        <g transform="matrix(2.55135e-16,-4.16667,4.16667,2.55135e-16,3421.43,263.984)">
            <path d="M0,16.201C-0.144,14.212 -0.298,12.223 -0.461,10.236L25.617,10.236C26.809,20.614 27.646,31.029 28.126,41.458L1.33,41.458C1.259,39.283 1.177,37.108 1.083,34.935L-132.671,34.935C-132.765,37.108 -132.848,39.283 -132.92,41.458L-159.715,41.458C-159.326,33.026 -158.703,24.603 -157.847,16.201L0,16.201ZM-157.159,9.881C-154.827,-8.083 -135.441,-17.32 -103.554,-17.326C-81.666,-17.325 -67.813,-13.007 -60.564,-5.389C-24.063,-9.464 5.089,-16.81 13.99,-25.257C17.317,-24.935 20.65,-24.612 23.991,-24.29C24.31,-6.321 -2.291,4.817 -43.454,11.66C-43.714,11.69 -43.975,11.72 -44.235,11.749L-73.498,11.749C-73.497,11.72 -73.497,11.69 -73.497,11.66C-74.503,4.631 -84.247,1.706 -102.006,1.705C-118.98,1.706 -129.889,5.077 -131.237,11.66C-131.239,11.69 -131.242,11.72 -131.244,11.749L-157.371,11.749C-157.302,11.126 -157.231,10.503 -157.159,9.881Z" style="fill:none;fill-rule:nonzero;stroke:rgb(242,13,13);stroke-width:0.5px;"/>
        </g>
        <g transform="matrix(2.55135e-16,-4.16667,4.16667,2.55135e-16,3125.26,631.675)">
            <path d="M0,13.668C10.604,15.315 21.396,16.964 32.364,18.615C32.262,15.429 32.155,12.25 32.045,9.08C39.705,7.985 47.271,6.891 54.739,5.799C55.411,11.235 56.038,16.697 56.622,22.182C64.566,23.343 72.593,24.505 80.7,25.668C80.225,22.935 79.731,20.208 79.22,17.486L101.873,17.486C103.93,25.303 105.775,33.169 107.409,41.073L83.174,41.073C82.906,39.258 82.63,37.445 82.346,35.634C44.484,29.442 8.325,23.275 -25.61,17.139C-16.977,15.981 -8.439,14.824 0,13.668ZM70.568,-21.318C70.041,-23.351 69.503,-25.381 68.954,-27.405L87.501,-27.405C91.532,-16.778 95.148,-6.017 98.349,4.849L76.703,4.849C76.225,2.578 75.735,0.312 75.231,-1.949C34.453,4.377 -9.813,10.742 -56.837,17.139C-55.197,10.944 -53.424,4.78 -51.517,-1.348C-7.138,-8.049 33.83,-14.708 70.568,-21.318Z" style="fill:none;fill-rule:nonzero;stroke:rgb(242,13,13);stroke-width:0.5px;"/>
        </g>
        <g transform="matrix(2.55135e-16,-4.16667,4.16667,2.55135e-16,2863.82,315.36)">
            <path d="M0,7.659C3.464,15.205 6.707,22.834 9.732,30.536L-8.286,30.536C-8.859,28.492 -9.444,26.452 -10.039,24.418L-96.796,24.418C-97.394,26.452 -97.981,28.491 -98.556,30.536L-116.573,30.536C-113.541,22.834 -110.288,15.205 -106.814,7.659L0,7.659ZM-104.119,1.913C-96.496,-13.044 -86.201,-19.746 -73.226,-19.767C-64.974,-19.762 -59.864,-16.027 -57.217,-8.83C-53.508,-18.29 -47.303,-22.869 -36.894,-22.877C-23.491,-22.853 -11.277,-14.763 -2.648,1.995C-2.401,2.514 -2.156,3.033 -1.911,3.552L-16.602,3.552C-16.638,3.443 -16.675,3.334 -16.712,3.224C-19.079,-3.412 -25.29,-6.963 -34.155,-6.966C-43.285,-6.963 -48.114,-3.331 -47.907,3.306C-47.902,3.388 -47.898,3.47 -47.894,3.552L-61.559,3.552C-61.557,3.525 -61.555,3.497 -61.553,3.47C-61.807,-1.855 -66.346,-4.121 -74.868,-4.124C-82.438,-4.121 -87.831,-1.937 -90.18,3.47C-90.189,3.497 -90.198,3.525 -90.207,3.552L-104.898,3.552C-104.64,3.005 -104.38,2.459 -104.119,1.913Z" style="fill:none;fill-rule:nonzero;stroke:rgb(242,13,13);stroke-width:0.5px;"/>
        </g>
        <g transform="matrix(2.55135e-16,-4.16667,4.16667,2.55135e-16,2746.01,589.782)">
            <path d="M0,-27.623C-0.903,-25.773 -1.795,-23.914 -2.676,-22.048L27.675,-22.048C26.798,-23.914 25.909,-25.772 25.01,-27.623L30.002,-27.623C36.143,-18.599 41.915,-9.384 47.32,0L37.38,0C36.589,-1.924 35.786,-3.841 34.972,-5.751L-10.002,-5.751C-10.819,-3.841 -11.625,-1.924 -12.419,0L-22.359,0C-16.939,-9.384 -11.15,-18.599 -4.992,-27.623L0,-27.623Z" style="fill:none;fill-rule:nonzero;stroke:rgb(242,13,13);stroke-width:0.5px;"/>
        </g>
        <g transform="matrix(2.55135e-16,-4.16667,4.16667,2.55135e-16,3287.73,3084.39)">
            <path d="M0,82.774C-6.068,79.679 -12.075,76.438 -18.016,73.051L-18.016,62.925C-14.482,64.385 -10.924,65.808 -7.344,67.193C-5.863,63.223 -4.378,58.993 -2.889,54.513C0.771,55.283 4.453,56.031 8.157,56.757C5.426,66.246 2.707,74.935 0,82.774ZM-14.076,10.738C-16.923,11.777 -19.756,12.838 -22.573,13.921L-22.573,70.416C-31.146,65.391 -39.577,60.058 -47.848,54.416L-47.848,49.425C-45.714,50.479 -43.57,51.518 -41.416,52.543L-41.416,21.592C-43.57,22.519 -45.714,23.46 -47.848,24.415L-47.848,19.422C-36.859,12.441 -25.588,5.967 -14.076,0L-14.076,10.738Z" style="fill:none;fill-rule:nonzero;stroke:rgb(242,13,13);stroke-width:0.5px;"/>
        </g>
        <g transform="matrix(2.55135e-16,-4.16667,4.16667,2.55135e-16,3152.1,2802.68)">
            <path d="M0,143.056C-8.077,140.492 -16.09,137.697 -24.03,134.671L-24.03,116.537C-18.521,118.058 -12.976,119.499 -7.399,120.859C-6.186,114.826 -4.97,108.681 -3.753,102.428C0.061,103.002 3.89,103.552 7.732,104.079C5.149,117.51 2.571,130.515 0,143.056ZM-7.99,92.509C-11.269,92.143 -14.537,91.763 -17.793,91.371L-17.793,78.229C-19.877,78.125 -21.956,78.018 -24.03,77.909L-24.03,59.23C-21.956,59.114 -19.877,59.001 -17.793,58.89L-17.793,45.748C-14.537,45.346 -11.269,44.957 -7.99,44.581L-7.99,92.509ZM-0.89,35.846C-4.184,36.316 -7.469,36.803 -10.741,37.308L-10.741,22.516C-15.193,23.524 -19.623,24.579 -24.03,25.681L-24.03,7.545C-16.382,4.83 -8.665,2.315 -0.89,0L-0.89,35.846ZM-28.881,132.789C-38.017,129.185 -47.051,125.272 -55.965,121.051L-55.965,106.669C-53.665,107.458 -51.358,108.232 -49.043,108.991L-49.043,32.511C-51.358,33.199 -53.665,33.899 -55.965,34.613L-55.965,20.23C-47.051,16.299 -38.017,12.655 -28.881,9.298L-28.881,132.789Z" style="fill:none;fill-rule:nonzero;stroke:rgb(242,13,13);stroke-width:0.5px;"/>
        </g>
        <g transform="matrix(2.55135e-16,-4.16667,4.16667,2.55135e-16,3547.66,2480.38)">
            <path d="M0,-59.371C-3.412,-59.205 -6.819,-59.025 -10.221,-58.831L-10.221,-83.876C-13.351,-83.561 -16.476,-83.226 -19.596,-82.869L-19.596,-107.237C-16.476,-107.747 -13.351,-108.227 -10.221,-108.677L-10.221,-120.58C-6.819,-121.14 -3.412,-121.659 0,-122.138L0,-59.371ZM-24.679,37.314C-22.208,37.653 -19.733,37.978 -17.255,38.288L-17.255,62.767C-29.339,60.68 -41.348,58.106 -53.247,55.043L-53.247,32.692C-50.807,33.147 -48.363,33.587 -45.914,34.013L-45.914,-102.427C-38.868,-103.981 -31.788,-105.378 -24.679,-106.62L-24.679,37.314ZM-55.553,-99.977C-54.017,-100.347 -52.479,-100.71 -50.94,-101.066L-50.94,-78.551C-53.45,-78.145 -55.955,-77.726 -58.455,-77.292C-59.522,-69.71 -60.588,-62.205 -61.652,-54.782C-65.246,-54.418 -68.829,-54.039 -72.401,-53.643C-70.152,-71.214 -67.899,-89.248 -65.641,-107.71C-61.89,-108.844 -58.126,-109.926 -54.35,-110.956C-54.751,-107.283 -55.152,-103.623 -55.553,-99.977Z" style="fill:none;fill-rule:nonzero;stroke:rgb(242,13,13);stroke-width:0.5px;"/>
        </g>
        <g transform="matrix(2.55135e-16,-4.16667,4.16667,2.55135e-16,3564.06,2141.06)">
            <path d="M0,-64.617C-3.436,-64.673 -6.873,-64.714 -10.311,-64.742L-10.311,-91.296C-13.474,-91.341 -16.638,-91.365 -19.802,-91.368L-19.802,-117.693C-16.638,-117.689 -13.474,-117.654 -10.311,-117.59L-10.311,-130.211C-6.873,-130.131 -3.436,-130.011 0,-129.851L0,-64.617ZM-24.96,39.184C-22.45,39.202 -19.939,39.205 -17.429,39.193L-17.429,65.513C-29.671,65.594 -41.916,65.187 -54.129,64.293L-54.129,38.309C-51.624,38.442 -49.119,38.56 -46.612,38.663L-46.612,-117.274C-39.401,-117.65 -32.181,-117.871 -24.96,-117.936L-24.96,39.184ZM-56.495,-116.4C-54.918,-116.514 -53.34,-116.62 -51.762,-116.718L-51.762,-90.686C-54.335,-90.573 -56.908,-90.447 -59.478,-90.307C-60.575,-81.538 -61.672,-72.794 -62.768,-64.075C-66.468,-63.951 -70.164,-63.811 -73.856,-63.654C-71.532,-84.892 -69.206,-106.31 -66.878,-127.87C-63.01,-128.282 -59.137,-128.641 -55.261,-128.949C-55.672,-124.763 -56.084,-120.58 -56.495,-116.4Z" style="fill:none;fill-rule:nonzero;stroke:rgb(242,13,13);stroke-width:0.5px;"/>
        </g>
        <g transform="matrix(2.55135e-16,-4.16667,4.16667,2.55135e-16,3699.25,1763.46)">
            <path d="M0,-116.186C-2.444,-116.587 -4.892,-116.973 -7.345,-117.347L-7.345,-49.566C-7.355,-3.295 -17.687,24.799 -37.67,31.379L-37.67,4.951C-30.941,1.861 -28.608,-10.343 -28.607,-37.965L-28.607,-120.237C-31.081,-120.534 -33.558,-120.816 -36.039,-121.086L-36.039,-145.713C-23.943,-143.847 -11.918,-141.528 0,-138.754L0,-116.186ZM-44.715,-121.972C-47.202,-122.21 -49.691,-122.434 -52.183,-122.645L-52.183,-36.943C-52.184,-9.362 -49.312,3.824 -42.773,5.55L-42.773,32.463C-63.729,34.366 -73.751,7.777 -73.74,-47.194L-73.74,-124.133C-76.243,-124.266 -78.747,-124.387 -81.253,-124.493L-81.253,-150.552C-69.034,-149.813 -56.843,-148.619 -44.715,-146.971L-44.715,-121.972Z" style="fill:none;fill-rule:nonzero;stroke:rgb(242,13,13);stroke-width:0.5px;"/>
        </g>
        <g transform="matrix(2.55135e-16,-4.16667,4.16667,2.55135e-16,3235.18,1470.76)">
            <path d="M0,101.852C-4.588,107.824 -11.423,113.326 -17.544,116.859L-17.544,97.621C-8.907,93.578 -4.604,83.569 -2.682,72.886C0.706,72.3 4.08,71.696 7.436,71.075C4.966,80.783 2.487,91.054 0,101.852ZM-17.544,-14.74C-11.136,-11.425 -5.94,-7.288 -2.011,-2.891C0.705,8.253 3.41,18.822 6.105,28.772C2.745,28.218 -0.632,27.68 -4.025,27.158C-6.525,16.762 -10.071,8.478 -17.544,4.856L-17.544,-14.74ZM-22.409,3.242C-35.09,1.148 -42.25,20.472 -42.24,51.345C-42.248,81.223 -34.404,100.478 -22.409,98.996L-22.409,119.331C-36.56,126.055 -63.689,119.106 -63.73,51.552C-63.693,-15.546 -37.052,-24.203 -22.409,-16.907L-22.409,3.242Z" style="fill:none;fill-rule:nonzero;stroke:rgb(242,13,13);stroke-width:0.5px;"/>
        </g>
        <g transform="matrix(2.55135e-16,-4.16667,4.16667,2.55135e-16,3358.69,1198.75)">
            <path d="M0,42.136C-7.238,46.868 -14.592,51.369 -22.05,55.638L-22.05,45.618C-16.875,43.471 -11.75,41.244 -6.679,38.936C-5.575,36.04 -4.474,33.324 -3.376,30.791C0.068,29.776 3.486,28.737 6.877,27.675C4.597,31.68 2.304,36.513 0,42.136ZM-7.217,28.351C-10.202,28.968 -13.205,29.573 -16.227,30.166L-16.227,23.805C-18.161,23.963 -20.102,24.119 -22.05,24.272L-22.05,13.95C-20.102,14.113 -18.161,14.279 -16.227,14.446L-16.227,8.086C-13.205,8.693 -10.202,9.314 -7.217,9.948L-7.217,28.351ZM-0.798,8.823C-3.756,7.964 -6.733,7.122 -9.728,6.297L-9.728,0.215C-13.802,-1.433 -17.91,-3.034 -22.05,-4.588L-22.05,-14.61C-14.866,-10.78 -7.778,-6.749 -0.798,-2.52L-0.798,8.823ZM-26.629,58.224C-35.293,63.047 -44.094,67.561 -53.013,71.768L-53.013,57.303C-50.713,56.517 -48.42,55.716 -46.135,54.901L-46.135,-12.991C-48.42,-13.73 -50.713,-14.455 -53.013,-15.166L-53.013,-29.632C-44.094,-25.714 -35.293,-21.51 -26.629,-17.018L-26.629,58.224Z" style="fill:none;fill-rule:nonzero;stroke:rgb(242,13,13);stroke-width:0.5px;"/>
        </g>
        <g transform="matrix(2.55135e-16,-4.16667,4.16667,2.55135e-16,5218.79,3115.63)">
            <path d="M0,77.649C-3.182,79.315 -7.862,78.373 -11.975,76.538L-11.975,65.5C-6.157,67.206 -3.173,62.262 -1.854,54.848C0.483,55.326 2.828,55.796 5.183,56.258C3.451,63.864 1.723,71 0,77.649ZM-11.975,1.025C-7.663,-1.027 -4.103,-1.666 -1.39,-0.869C0.484,5.653 2.364,12.72 4.251,20.311C1.898,20.809 -0.445,21.316 -2.779,21.833C-4.493,15.014 -6.942,11.054 -11.975,12.269L-11.975,1.025ZM-15.234,13.447C-23.685,18.345 -28.254,27.944 -28.261,38.794C-28.256,49.246 -23.233,59.045 -15.234,64.121L-15.234,74.881C-24.809,68.516 -41.98,51.345 -41.931,38.806C-41.977,26.385 -25.131,9.028 -15.234,2.784L-15.234,13.447Z" style="fill:none;fill-rule:nonzero;stroke:rgb(242,13,13);stroke-width:0.5px;"/>
        </g>
        <g transform="matrix(2.55135e-16,-4.16667,4.16667,2.55135e-16,5579.03,2851.93)">
            <path d="M0,-97.67C-1.708,-97.252 -3.413,-96.827 -5.114,-96.394L-5.114,-39.151C-5.102,0.81 -12.36,19.981 -25.855,15.573L-25.855,-2.827C-21.313,-2.924 -19.716,-11.314 -19.718,-31.776L-19.718,-92.472C-21.4,-91.996 -23.079,-91.512 -24.754,-91.021L-24.754,-108.348C-16.584,-111.698 -8.329,-114.799 0,-117.651L0,-97.67ZM-30.592,-89.276C-32.258,-88.768 -33.921,-88.252 -35.58,-87.729L-35.58,-33.453C-35.579,-16.081 -33.677,-7.033 -29.289,-3.894L-29.289,14.236C-43.333,6.322 -49.786,-11.761 -49.801,-41.051L-49.801,-83.026C-51.438,-82.46 -53.07,-81.886 -54.697,-81.305L-54.697,-94.751C-46.759,-98.718 -38.72,-102.436 -30.592,-105.905L-30.592,-89.276Z" style="fill:none;fill-rule:nonzero;stroke:rgb(242,13,13);stroke-width:0.5px;"/>
        </g>
        <g transform="matrix(2.55135e-16,-4.16667,4.16667,2.55135e-16,5060.55,2639.59)">
            <path d="M0,153.329C-3.467,158.908 -8.584,161.241 -13.106,161.455L-13.106,136.677C-6.715,136.029 -3.463,124.156 -2.022,108.957C0.528,109.173 3.082,109.381 5.64,109.58C3.758,124.374 1.878,138.963 0,153.329ZM-13.106,-8.057C-8.368,-8.126 -4.475,-6.203 -1.516,-2.51C0.529,11.981 2.576,26.725 4.627,41.699C2.07,41.915 -0.483,42.141 -3.031,42.375C-4.906,28.003 -7.577,18.246 -13.106,17.185L-13.106,-8.057ZM-16.692,17.389C-26.004,21.24 -31.106,44.29 -31.109,76.705C-31.107,108.023 -25.504,131.351 -16.692,136.012L-16.692,161.201C-27.194,158.347 -46.419,136.33 -46.392,76.711C-46.418,17.514 -27.55,-5.499 -16.692,-7.572L-16.692,17.389Z" style="fill:none;fill-rule:nonzero;stroke:rgb(242,13,13);stroke-width:0.5px;"/>
        </g>
        <g transform="matrix(2.55135e-16,-4.16667,4.16667,2.55135e-16,5111.52,2382.37)">
            <path d="M0,131.177C1.764,131.274 3.53,131.363 5.295,131.445L5.295,158.138C-3.974,157.536 -13.227,156.653 -22.448,155.49L-22.448,129.552C-20.521,129.726 -18.592,129.891 -16.663,130.047C-22.061,77.255 -27.45,25.442 -32.826,-24.896C-27.62,-25.674 -22.402,-26.362 -17.175,-26.961C-11.46,24.707 -5.734,77.604 0,131.177ZM-29.905,38.804C-31.293,51.173 -32.68,63.462 -34.066,75.664C-31.391,75.714 -28.713,75.762 -26.032,75.807C-25.106,84.853 -24.18,93.936 -23.253,103.054C-27.862,102.804 -32.464,102.524 -37.056,102.215C-38.027,110.765 -38.999,119.27 -39.97,127.725C-37.688,127.995 -35.404,128.253 -33.118,128.498L-33.118,154.016C-39.685,153.03 -46.233,151.9 -52.757,150.627L-52.757,126.077C-51.259,126.285 -49.76,126.489 -48.259,126.687C-43.128,89.101 -37.983,50.2 -32.826,10.334C-31.853,19.776 -30.879,29.267 -29.905,38.804Z" style="fill:none;fill-rule:nonzero;stroke:rgb(242,13,13);stroke-width:0.5px;"/>
        </g>
        <g transform="matrix(2.55135e-16,-4.16667,4.16667,2.55135e-16,5656.07,2063.01)">
            <path d="M0,-132.322C-1.787,-132.438 -3.575,-132.546 -5.363,-132.647C-4.261,-88.226 -3.159,-43.926 -2.057,0.235C-0.269,0.125 1.517,0.007 3.303,-0.118L3.303,26.228C-5.381,27.078 -14.087,27.68 -22.802,28.035L-22.802,1.174C-21.035,1.122 -19.267,1.064 -17.501,0.998C-18.654,-52.627 -19.807,-106.358 -20.961,-160.173C-13.965,-159.86 -6.976,-159.388 0,-158.756L0,-132.322ZM-31.495,-80.25C-29.162,-104.665 -26.828,-129.038 -24.496,-153.328C-24.029,-131.452 -23.563,-109.586 -23.097,-87.734C-26.828,-53.204 -30.561,-18.5 -34.295,16.23C-35.401,16.245 -36.506,16.256 -37.612,16.265C-42.844,-33.668 -48.078,-83.75 -53.309,-133.554C-57.067,-133.486 -60.823,-133.384 -64.578,-133.25L-64.578,-160.054C-56.136,-160.477 -47.684,-160.668 -39.233,-160.626C-36.653,-133.826 -34.074,-107.016 -31.495,-80.25ZM-52.572,-88.864C-53.358,-58.788 -54.144,-28.729 -54.93,1.306C-53.113,1.344 -51.295,1.374 -49.477,1.396L-49.477,28.346C-55.79,28.237 -62.101,27.998 -68.406,27.629L-68.406,0.884C-66.615,0.959 -64.824,1.026 -63.032,1.086C-61.756,-39.197 -60.479,-79.562 -59.203,-119.986C-58.073,-120.011 -56.944,-120.033 -55.814,-120.053C-54.734,-109.669 -53.653,-99.271 -52.572,-88.864Z" style="fill:none;fill-rule:nonzero;stroke:rgb(242,13,13);stroke-width:0.5px;"/>
        </g>
        <g transform="matrix(2.55135e-16,-4.16667,4.16667,2.55135e-16,5024.13,1859.55)">
            <path d="M0,171.115C-5.914,172.303 -11.849,173.372 -17.8,174.324L-17.8,148.997C-13.671,148.525 -9.549,148.012 -5.437,147.459C-4.542,139.431 -3.647,131.447 -2.753,123.509C0.05,123.269 2.849,123.017 5.642,122.754C3.764,138.661 1.883,154.788 0,171.115ZM-5.872,112.148C-8.291,112.287 -10.714,112.42 -13.14,112.546L-13.14,94.973C-14.692,95.001 -16.246,95.029 -17.8,95.055L-17.8,68.969C-16.246,69.015 -14.692,69.063 -13.14,69.112L-13.14,51.539C-10.714,51.699 -8.291,51.866 -5.872,52.041L-5.872,112.148ZM-0.652,42.895C-3.066,42.656 -5.484,42.426 -7.905,42.206L-7.905,23.327C-11.198,22.898 -14.496,22.494 -17.8,22.117L-17.8,-3.21C-12.067,-2.294 -6.35,-1.268 -0.652,-0.132L-0.652,42.895ZM-21.446,174.892C-28.328,175.936 -35.232,176.822 -42.15,177.551L-42.15,151.303C-40.365,151.169 -38.582,151.027 -36.799,150.878L-36.799,20.237C-38.582,20.088 -40.365,19.946 -42.15,19.811L-42.15,-6.436C-35.232,-5.707 -28.328,-4.821 -21.446,-3.778L-21.446,174.892Z" style="fill:none;fill-rule:nonzero;stroke:rgb(242,13,13);stroke-width:0.5px;"/>
        </g>
        <g transform="matrix(2.55135e-16,-4.16667,4.16667,2.55135e-16,5072.05,1671.47)">
            <path d="M0,148.11C-4.6,149.538 -9.219,150.892 -13.857,152.171L-13.857,129.882C-11.098,129.339 -8.346,128.776 -5.601,128.195C-4.464,119.597 -3.329,111.108 -2.195,102.731C0.592,102.405 3.372,102.068 6.144,101.721C4.1,116.788 2.052,132.26 0,148.11ZM-10.792,18.838C-13,18.391 -15.212,17.956 -17.427,17.534L-17.427,153.14C-24.171,154.94 -30.951,156.583 -37.761,158.068L-37.761,134.097C-36.004,133.824 -34.25,133.542 -32.497,133.253L-32.497,14.856C-34.25,14.567 -36.004,14.286 -37.761,14.012L-37.761,-9.958C-28.713,-7.985 -19.718,-5.734 -10.792,-3.206L-10.792,18.838Z" style="fill:none;fill-rule:nonzero;stroke:rgb(242,13,13);stroke-width:0.5px;"/>
        </g>
        <g transform="matrix(2.55135e-16,-4.16667,4.16667,2.55135e-16,5647.65,1517.79)">
            <path d="M0,-127.852C14.879,-118.638 25.92,-92.414 25.926,-64.586C25.921,-36.779 14.675,-9.996 0,-0.333L0,-19.59C7.022,-24.555 11.166,-40.609 11.169,-64.013C11.166,-87.409 6.954,-103.815 0,-108.595L0,-127.852ZM-3.448,-109.793C-10.91,-110.26 -15.248,-93.728 -15.244,-64.188C-15.247,-35.77 -10.632,-18.162 -3.448,-18.392L-3.448,1.308C-18.295,6.869 -30.392,-20.408 -30.385,-64.195C-30.393,-107.544 -18.434,-134.721 -3.448,-129.315L-3.448,-109.793Z" style="fill:none;fill-rule:nonzero;stroke:rgb(242,13,13);stroke-width:0.5px;"/>
        </g>
        <g transform="matrix(2.55135e-16,-4.16667,4.16667,2.55135e-16,5432.72,1181.66)">
            <path d="M0,-25.022C-1.733,-25.865 -3.474,-26.698 -5.221,-27.521L-5.221,-11.885C-7.536,-14.215 -9.863,-17.065 -12.201,-20.409L-12.201,-30.743C-13.966,-31.541 -15.738,-32.329 -17.516,-33.107L-17.516,-41.329C-11.603,-37.708 -5.763,-33.937 0,-30.016L0,-25.022ZM-37.569,-21.556L-37.569,16.349C-35.745,15.643 -33.927,14.926 -32.115,14.2L-32.115,24.864C-38.141,28.242 -44.233,31.471 -50.387,34.549L-50.387,21.122C-48.536,20.46 -46.691,19.789 -44.852,19.108L-44.852,-37.82C-44.763,-37.793 -44.674,-37.767 -44.586,-37.741C-42.237,-31.926 -39.899,-26.524 -37.569,-21.556ZM-5.221,-7.451L-5.221,8.486C-6.547,9.361 -7.877,10.227 -9.21,11.086C-20.24,4.702 -31.536,-14.396 -43.058,-43.462C-45.491,-44.373 -47.934,-45.267 -50.387,-46.143L-50.387,-59.571C-43.876,-56.314 -37.435,-52.89 -31.068,-49.299C-22.303,-29.136 -13.682,-14.792 -5.221,-7.451Z" style="fill:none;fill-rule:nonzero;stroke:rgb(242,13,13);stroke-width:0.5px;"/>
        </g>
    </g>
    <g transform="matrix(2.55135e-16,-4.16667,4.16667,2.55135e-16,49.3701,3447.76)">
        <path d="M0,0L813.543,0" style="fill:none;fill-rule:nonzero;stroke:rgb(29,29,27);stroke-width:0.5px;"/>
    </g>
    <g transform="matrix(2.55135e-16,-4.16667,4.16667,2.55135e-16,1017.87,3447.76)">
        <path d="M0,0L581.102,0" style="fill:none;fill-rule:nonzero;stroke:rgb(29,29,27);stroke-width:0.5px;"/>
    </g>
    <g transform="matrix(4.99995,2.55135e-16,3.06159e-16,-4.16667,2954.85,1026.5)">
        <path d="M-581.103,-581.103L581.103,-581.103" style="fill:none;fill-rule:nonzero;stroke:rgb(29,29,27);stroke-width:0.45px;"/>
    </g>
    <g transform="matrix(4.99995,2.55135e-16,3.06159e-16,-4.16667,2954.85,-1394.76)">
        <path d="M-581.103,-581.103L581.103,-581.103" style="fill:none;fill-rule:nonzero;stroke:rgb(29,29,27);stroke-width:0.45px;"/>
    </g>
    <g transform="matrix(2.55135e-16,-4.16667,4.16667,2.55135e-16,4891.89,3447.76)">
        <path d="M0,0L813.543,0" style="fill:none;fill-rule:nonzero;stroke:rgb(29,29,27);stroke-width:0.5px;"/>
    </g>
    <g transform="matrix(2.55135e-16,-4.16667,4.16667,2.55135e-16,3923.39,3447.76)">
        <path d="M0,0L581.102,0" style="fill:none;fill-rule:nonzero;stroke:rgb(29,29,27);stroke-width:0.5px;"/>
    </g>
    <g transform="matrix(2.55135e-16,-4.16667,4.16667,2.55135e-16,2954.88,3447.76)">
        <path d="M0,0L581.102,0" style="fill:none;fill-rule:nonzero;stroke:rgb(29,29,27);stroke-width:0.5px;"/>
    </g>
    <g transform="matrix(2.55135e-16,-4.16667,4.16667,2.55135e-16,1986.38,3447.76)">
        <path d="M0,0L581.102,0" style="fill:none;fill-rule:nonzero;stroke:rgb(29,29,27);stroke-width:0.5px;"/>
    </g>
    <g transform="matrix(4.16667,2.55135e-16,2.55135e-16,-4.16667,2470.63,-2363.26)">
        <path d="M-581.103,-581.103L581.103,-581.103" style="fill:none;fill-rule:nonzero;stroke:rgb(29,29,27);stroke-width:0.5px;"/>
    </g>
    <g transform="matrix(2.55135e-16,-4.16667,4.16667,2.55135e-16,2470.63,1026.5)">
        <path d="M0,0L232.441,0" style="fill:none;fill-rule:nonzero;stroke:rgb(29,29,27);stroke-width:0.5px;"/>
    </g>
    <g transform="matrix(2.55135e-16,-4.16667,4.16667,2.55135e-16,5860.28,3447.8)">
        <path d="M0,0L581.102,0" style="fill:none;fill-rule:nonzero;stroke:rgb(29,29,27);stroke-width:0.5px;"/>
    </g>
</svg>
