<?xml version="1.0" encoding="UTF-8" standalone="no"?>
<!DOCTYPE svg PUBLIC "-//W3C//DTD SVG 1.1//EN" "http://www.w3.org/Graphics/SVG/1.1/DTD/svg11.dtd">
<svg width="100%" height="100%" viewBox="0 0 5906 3544" version="1.1" xmlns="http://www.w3.org/2000/svg" xmlns:xlink="http://www.w3.org/1999/xlink" xml:space="preserve" xmlns:serif="http://www.serif.com/" style="fill-rule:evenodd;clip-rule:evenodd;stroke-miterlimit:10;">
    <g transform="matrix(4.99995,2.55135e-16,3.06159e-16,-4.16667,2954.85,1026.5)">
        <path d="M-581.103,-581.103L581.103,-581.103" style="fill:none;fill-rule:nonzero;stroke:rgb(29,29,27);stroke-width:0.45px;"/>
    </g>
    <g>
        <g transform="matrix(2.55135e-16,-4.16667,4.16667,2.55135e-16,665.845,3006.32)">
            <path d="M0,-70.626C-1.383,-70.185 -2.764,-69.738 -4.141,-69.286C-7.637,-47.001 -11.115,-26.565 -14.575,-8.141C-15.755,-13.161 -16.933,-18.014 -18.109,-22.697C-15.798,-36.434 -13.478,-51.199 -11.15,-66.935C-11.865,-66.689 -12.579,-66.443 -13.292,-66.195L-13.292,-80.356C-8.89,-82.497 -4.459,-84.563 0,-86.553L0,-70.626ZM-16.587,-65.036C-16.932,-64.914 -17.277,-64.791 -17.622,-64.667C-19.732,-57.453 -21.834,-50.657 -23.929,-44.299C-24.937,-47.844 -25.942,-51.256 -26.946,-54.533C-26.163,-56.998 -25.379,-59.527 -24.594,-62.119C-25.52,-61.773 -26.444,-61.425 -27.367,-61.074L-27.367,-73.195C-23.795,-75.093 -20.201,-76.94 -16.587,-78.736L-16.587,-65.036ZM-30.372,-59.921C-31.012,-59.673 -31.651,-59.424 -32.29,-59.174C-26.923,-43.474 -21.504,-23.753 -16.039,-0.481C-17.136,5.195 -18.231,10.666 -19.324,15.927C-21.228,14.967 -23.125,13.994 -25.017,13.006C-27.833,1.472 -30.637,-9.076 -33.426,-18.572C-34.662,-15.613 -35.894,-12.82 -37.124,-10.199C-37.898,-13.654 -38.67,-16.997 -39.442,-20.226C-38.393,-22.641 -37.343,-25.187 -36.291,-27.862C-39.468,-37.902 -42.626,-46.538 -45.765,-53.672C-46.06,-53.546 -46.354,-53.421 -46.648,-53.295L-46.648,-62.317C-41.278,-65.527 -35.852,-68.616 -30.372,-71.583L-30.372,-59.921ZM-49.581,-52.03C-50.245,-51.741 -50.908,-51.451 -51.57,-51.159C-47.462,-39.569 -43.32,-24.382 -39.145,-5.9C-40.728,-2.79 -42.306,0.033 -43.879,2.558C-45.728,1.474 -47.57,0.376 -49.406,-0.736C-54.58,-20.996 -59.7,-35.984 -64.762,-45.115C-66.1,-44.477 -67.433,-43.835 -68.762,-43.186L-68.762,-48.18C-62.458,-52.481 -56.062,-56.604 -49.581,-60.547L-49.581,-52.03Z" style="fill:none;fill-rule:nonzero;stroke:rgb(242,13,13);stroke-width:0.5px;"/>
        </g>
        <g transform="matrix(2.55135e-16,-4.16667,4.16667,2.55135e-16,352.862,2837.58)">
            <path d="M0,95.504C1.536,95.87 3.074,96.229 4.614,96.583L4.614,117.429C-3.472,114.83 -11.494,112 -19.44,108.94L-19.44,90.519C-17.779,90.976 -16.115,91.426 -14.448,91.868C-19.112,52.644 -23.752,16.34 -28.364,-16.638C-23.898,-18.475 -19.406,-20.237 -14.891,-21.925C-9.954,14.122 -4.99,53.417 0,95.504ZM-25.856,26.588C-27.048,35.222 -28.239,43.66 -29.427,51.896C-27.134,52.012 -24.834,52.126 -22.527,52.238C-21.73,58.604 -20.932,65.063 -20.134,71.614C-24.105,70.964 -28.057,70.29 -31.989,69.591C-32.821,75.216 -33.652,80.738 -34.482,86.155C-32.531,86.751 -30.575,87.336 -28.614,87.912L-28.614,105.29C-34.247,102.976 -39.84,100.544 -45.388,97.995L-45.388,82.701C-44.114,83.119 -42.838,83.533 -41.559,83.942C-37.187,60.971 -32.788,35.356 -28.364,7.385C-27.529,13.676 -26.693,20.078 -25.856,26.588Z" style="fill:none;fill-rule:nonzero;stroke:rgb(242,13,13);stroke-width:0.5px;"/>
        </g>
        <g transform="matrix(2.55135e-16,-4.16667,4.16667,2.55135e-16,199.735,2660.23)">
            <path d="M0,164.583C-4.259,163.611 -8.506,162.578 -12.739,161.483L-12.739,138.551C-10.221,139.016 -7.698,139.465 -5.17,139.9C-4.125,131.002 -3.078,122.019 -2.03,112.954C0.544,113.184 3.124,113.405 5.707,113.617C3.803,130.87 1.9,147.867 0,164.583ZM-9.936,23.139C-11.958,23.504 -13.977,23.879 -15.992,24.265L-15.992,160.629C-22.124,158.995 -28.227,157.231 -34.294,155.337L-34.294,134.161C-32.729,134.509 -31.162,134.852 -29.592,135.189L-29.592,27.027C-31.162,27.365 -32.729,27.709 -34.294,28.06L-34.294,6.881C-26.233,4.358 -18.11,2.064 -9.936,0L-9.936,23.139Z" style="fill:none;fill-rule:nonzero;stroke:rgb(242,13,13);stroke-width:0.5px;"/>
        </g>
        <g transform="matrix(2.55135e-16,-4.16667,4.16667,2.55135e-16,163.61,2480.77)">
            <path d="M0,180.937C-4.324,180.376 -8.641,179.754 -12.949,179.071L-12.949,153.59C-10.386,153.881 -7.82,154.156 -5.252,154.415C-4.189,144.542 -3.126,134.616 -2.062,124.641C0.553,124.775 3.171,124.901 5.791,125.018C3.859,143.809 1.929,162.456 0,180.937ZM-10.098,25.609C-12.154,25.834 -14.209,26.068 -16.261,26.313L-16.261,178.533C-22.507,177.495 -28.734,176.328 -34.936,175.031L-34.936,150.705C-33.336,150.944 -31.735,151.176 -30.132,151.403L-30.132,28.123C-31.735,28.351 -33.336,28.584 -34.936,28.824L-34.936,4.496C-26.695,2.768 -18.412,1.269 -10.098,0L-10.098,25.609Z" style="fill:none;fill-rule:nonzero;stroke:rgb(242,13,13);stroke-width:0.5px;"/>
        </g>
        <g transform="matrix(2.55135e-16,-4.16667,4.16667,2.55135e-16,380.382,2307.97)">
            <path d="M0,74.864C-2.232,74.83 -4.464,74.79 -6.695,74.743L-6.695,55.898C-8.123,55.884 -9.551,55.868 -10.978,55.851L-10.978,28.193C-9.551,28.184 -8.123,28.175 -6.695,28.167L-6.695,9.322C-4.464,9.286 -2.232,9.255 0,9.229L0,74.864ZM5.493,-4.085C3.26,-4.059 1.027,-4.025 -1.206,-3.984L-1.206,-29.901C-4.465,-29.804 -7.722,-29.682 -10.978,-29.536L-10.978,-56.389C-5.492,-56.733 -0.001,-56.98 5.493,-57.128L5.493,-4.085ZM-14.323,104.831C-12.361,104.929 -10.399,105.018 -8.436,105.098L-8.436,131.992C-16.712,131.519 -24.976,130.824 -33.219,129.906L-33.219,103.609C-31.597,103.738 -29.974,103.86 -28.351,103.977L-28.351,-28.519C-29.974,-28.402 -31.597,-28.279 -33.219,-28.149L-33.219,-54.45C-26.931,-55.152 -20.631,-55.724 -14.323,-56.166L-14.323,104.831Z" style="fill:none;fill-rule:nonzero;stroke:rgb(242,13,13);stroke-width:0.5px;"/>
        </g>
        <g transform="matrix(2.55135e-16,-4.16667,4.16667,2.55135e-16,145.129,2115.12)">
            <path d="M0,188.338C-4.349,188.605 -8.701,188.81 -13.055,188.954L-13.055,161.917C-10.465,161.856 -7.876,161.779 -5.287,161.687C-4.216,151.229 -3.145,140.787 -2.075,130.363C0.558,130.306 3.189,130.24 5.818,130.165C3.88,149.48 1.94,168.878 0,188.338ZM-10.175,26.531C-12.252,26.472 -14.328,26.424 -16.405,26.386L-16.405,189.052C-22.726,189.215 -29.049,189.248 -35.37,189.152L-35.37,162.059C-33.74,162.076 -32.109,162.088 -30.478,162.093L-30.478,26.279C-32.109,26.285 -33.74,26.296 -35.37,26.314L-35.37,-0.782C-26.971,-0.91 -18.569,-0.809 -10.175,-0.479L-10.175,26.531Z" style="fill:none;fill-rule:nonzero;stroke:rgb(242,13,13);stroke-width:0.5px;"/>
        </g>
        <g transform="matrix(2.55135e-16,-4.16667,4.16667,2.55135e-16,934.608,1968.38)">
            <path d="M0,-190.307C14.357,-185.215 25.218,-146.664 25.219,-96.141C25.218,-45.624 14.158,-6.098 0,-0.261L0,-28.96C6.778,-33.621 10.813,-57.677 10.814,-95.154C10.814,-132.63 6.711,-157.206 0,-161.608L0,-190.307ZM-3.324,-162.196C-10.508,-160.096 -14.647,-136.083 -14.646,-95.419C-14.646,-56.329 -10.241,-30.753 -3.324,-28.373L-3.324,0.472C-17.625,0.346 -29.072,-39.362 -29.069,-95.423C-29.072,-150.938 -17.758,-190.406 -3.324,-190.779L-3.324,-162.196Z" style="fill:none;fill-rule:nonzero;stroke:rgb(242,13,13);stroke-width:0.5px;"/>
        </g>
        <g transform="matrix(2.55135e-16,-4.16667,4.16667,2.55135e-16,708.955,1546.93)">
            <path d="M0,-87.183C-1.408,-87.572 -2.819,-87.957 -4.231,-88.336C-7.817,-63.397 -11.417,-36.846 -15.03,-8.848C-16.263,-15.441 -17.498,-22.161 -18.734,-29.003C-16.304,-50.148 -13.881,-70.574 -11.464,-90.226C-12.206,-90.415 -12.949,-90.602 -13.692,-90.788L-13.692,-110.625C-9.105,-109.021 -4.54,-107.34 0,-105.584L0,-87.183ZM-17.136,-91.638C-17.498,-91.726 -17.86,-91.814 -18.222,-91.902C-20.438,-82.77 -22.659,-73.322 -24.884,-63.577C-25.954,-69.814 -27.025,-76.137 -28.097,-82.542C-27.261,-86.281 -26.426,-89.978 -25.591,-93.632C-26.576,-93.856 -27.562,-94.079 -28.548,-94.298L-28.548,-115.535C-24.73,-114.346 -20.926,-113.106 -17.136,-111.815L-17.136,-91.638ZM-31.769,-95.006C-32.456,-95.155 -33.144,-95.303 -33.833,-95.449C-28.044,-60.229 -22.286,-27.234 -16.561,3.064C-17.711,12.095 -18.861,21.27 -20.013,30.583C-22.018,31.25 -24.027,31.902 -26.04,32.539C-29.038,16.54 -32.045,-0.147 -35.059,-17.457C-36.395,-11.16 -37.732,-4.769 -39.07,1.71C-39.912,-4.87 -40.754,-11.514 -41.597,-18.22C-40.451,-23.969 -39.307,-29.652 -38.164,-35.263C-41.616,-55.553 -45.078,-76.629 -48.549,-98.392C-48.874,-98.453 -49.2,-98.514 -49.526,-98.574L-49.526,-121.514C-43.578,-119.972 -37.657,-118.309 -31.769,-116.524L-31.769,-95.006ZM-52.784,-99.169C-53.523,-99.301 -54.263,-99.433 -55.003,-99.563C-50.41,-60.489 -45.833,-22.948 -41.273,12.759C-43.002,21.195 -44.733,29.774 -46.467,38.486C-48.504,39.028 -50.545,39.555 -52.589,40.069C-58.35,-4.886 -64.137,-52.437 -69.944,-102.001C-71.478,-102.232 -73.013,-102.457 -74.55,-102.677L-74.55,-127.252C-67.261,-125.795 -60.003,-124.16 -52.784,-122.346L-52.784,-99.169Z" style="fill:none;fill-rule:nonzero;stroke:rgb(242,13,13);stroke-width:0.5px;"/>
        </g>
        <g transform="matrix(2.55135e-16,-4.16667,4.16667,2.55135e-16,338.855,1388.33)">
            <path d="M0,95.47C-4.972,97.943 -9.983,100.318 -15.031,102.597L-15.031,86.949C-11.528,85.819 -8.043,84.657 -4.577,83.46C-3.822,78.639 -3.069,73.916 -2.316,69.293C0.044,68.784 2.395,68.266 4.737,67.738C3.162,76.54 1.583,85.789 0,95.47ZM-4.944,63.131C-6.984,63.432 -9.03,63.728 -11.083,64.018L-11.083,53.426C-12.396,53.49 -13.712,53.553 -15.031,53.616L-15.031,37.498C-13.712,37.61 -12.396,37.723 -11.083,37.838L-11.083,27.245C-9.03,27.615 -6.984,27.99 -4.944,28.372L-4.944,63.131ZM-0.548,23.867C-2.579,23.364 -4.615,22.869 -6.659,22.382L-6.659,11.333C-9.438,10.383 -12.228,9.455 -15.031,8.548L-15.031,-7.102C-10.169,-4.901 -5.34,-2.61 -0.548,-0.228L-0.548,23.867ZM-18.125,103.979C-23.972,106.566 -29.867,109.022 -35.805,111.349L-35.805,93.201C-34.273,92.772 -32.744,92.337 -31.218,91.896L-31.218,3.581C-32.744,3.138 -34.273,2.702 -35.805,2.271L-35.805,-15.879C-29.867,-13.545 -23.972,-11.082 -18.125,-8.488L-18.125,103.979Z" style="fill:none;fill-rule:nonzero;stroke:rgb(242,13,13);stroke-width:0.5px;"/>
        </g>
        <g transform="matrix(2.55135e-16,-4.16667,4.16667,2.55135e-16,671.887,1269.56)">
            <path d="M0,-64.331C11.877,-56.72 17.837,-48.387 17.852,-41.208C17.849,-36.051 15.048,-32.98 10.056,-30.618C12.728,-19.856 17.53,-14.284 22.998,-15.835C22.789,-15.035 22.58,-14.22 22.371,-13.389C10.726,-5.457 3.35,-9.638 -1.178,-24.129C-1.198,-24.22 -1.218,-24.311 -1.237,-24.403L-1.237,-34.92C-1.218,-34.919 -1.198,-34.918 -1.178,-34.917C3.476,-35.142 5.393,-38.12 5.396,-43.739C5.394,-49.093 3.183,-53.425 -1.178,-55.648C-1.198,-55.656 -1.218,-55.664 -1.237,-55.673L-1.237,-65.064C-0.824,-64.82 -0.412,-64.576 0,-64.331ZM-4.19,-7.395C-2.869,-7.941 -1.551,-8.492 -0.236,-9.048L-0.236,0.174C-7.105,4.24 -14.067,8.108 -21.112,11.778L-21.112,-0.758C-19.643,-1.305 -18.177,-1.858 -16.716,-2.417L-16.716,-61.906C-18.177,-62.467 -19.643,-63.022 -21.112,-63.571L-21.112,-76.109C-15.416,-73.133 -9.773,-70.027 -4.19,-66.791L-4.19,-7.395Z" style="fill:none;fill-rule:nonzero;stroke:rgb(242,13,13);stroke-width:0.5px;"/>
        </g>
        <g transform="matrix(2.55135e-16,-4.16667,4.16667,2.55135e-16,1672.01,3147.88)">
            <path d="M0,-79.87C4.855,-82.274 9.376,-83.201 12.842,-82.419C14.921,-76.042 17.007,-69.125 19.1,-61.694C16.49,-61.109 13.891,-60.511 11.303,-59.901C9.538,-65.232 6.301,-69.749 0,-67.96L0,-79.87ZM23.997,-25.332C22.282,-25.564 20.573,-25.8 18.867,-26.039L18.867,-19.44C18.868,-12.428 19.409,-9.567 21.118,-5.338L21.118,-4.775C17.235,-0.008 11.426,3.331 4.03,1.6L4.03,-28.217C2.124,-28.51 0.225,-28.807 -1.668,-29.108L-1.668,-39.77C6.762,-39.777 15.322,-39.783 23.997,-39.789L23.997,-25.332ZM-3.785,-66.392C-12.99,-60.928 -17.918,-51.491 -17.926,-39.755C-17.92,-28.24 -11.506,-16.809 -1.819,-12.114C-1.062,-11.799 -0.38,-11.625 0.228,-11.378L0.228,0.352C-1.214,-0.263 -2.728,-1.053 -4.313,-2.003C-22.343,-14.633 -33.732,-30.606 -33.754,-39.74C-33.733,-48.269 -21.98,-64.479 -3.785,-77.745L-3.785,-66.392Z" style="fill:none;fill-rule:nonzero;stroke:rgb(242,13,13);stroke-width:0.5px;"/>
        </g>
        <g transform="matrix(2.55135e-16,-4.16667,4.16667,2.55135e-16,1211.56,2838.02)">
            <path d="M0,141.827C-6.639,139.602 -13.233,137.22 -19.776,134.68L-19.776,116.451C-15.236,117.711 -10.672,118.916 -6.085,120.067C-5.086,114.022 -4.087,107.88 -3.086,101.641C0.051,102.115 3.198,102.574 6.354,103.018C4.232,116.348 2.114,129.294 0,141.827ZM-6.57,91.885C-9.268,91.594 -11.957,91.294 -14.638,90.987L-14.638,77.836C-16.354,77.768 -18.067,77.698 -19.776,77.627L-19.776,58.851C-18.067,58.727 -16.354,58.605 -14.638,58.485L-14.638,45.335C-11.957,44.947 -9.268,44.57 -6.57,44.202L-6.57,91.885ZM-0.732,35.546C-3.44,36.001 -6.141,36.468 -8.834,36.949L-8.834,22.211C-12.497,23.149 -16.144,24.122 -19.776,25.13L-19.776,6.901C-13.474,4.454 -7.124,2.154 -0.732,0L-0.732,35.546ZM-23.775,133.106C-31.307,130.097 -38.769,126.879 -46.151,123.45L-46.151,108.425C-44.247,109.057 -42.337,109.68 -40.423,110.292L-40.423,31.29C-42.337,31.903 -44.247,32.525 -46.151,33.157L-46.151,18.132C-38.769,14.703 -31.307,11.484 -23.775,8.476L-23.775,133.106Z" style="fill:none;fill-rule:nonzero;stroke:rgb(242,13,13);stroke-width:0.5px;"/>
        </g>
        <g transform="matrix(2.55135e-16,-4.16667,4.16667,2.55135e-16,1874.41,2674.82)">
            <path d="M0,-170.513C16.81,-174.679 25.681,-158.493 25.67,-126.13C25.671,-104.112 21.546,-89.998 14.349,-83.301C18.197,-48.529 25.154,-18.011 33.243,-5.814C32.934,-2.482 32.625,0.845 32.316,4.166C15.137,-2.513 4.739,-31.288 -1.662,-68.334C-1.69,-68.569 -1.718,-68.804 -1.746,-69.038L-1.746,-95.177C-1.718,-95.178 -1.69,-95.179 -1.662,-95.179C4.904,-96.202 7.666,-105.383 7.664,-121.953C7.665,-137.805 4.487,-147.177 -1.662,-146.77C-1.69,-146.765 -1.718,-146.76 -1.746,-146.755L-1.746,-170.095C-1.164,-170.235 -0.582,-170.375 0,-170.513ZM-5.896,-30.564C-4.044,-30.231 -2.189,-29.906 -0.333,-29.59L-0.333,-6.154C-10.032,-8.464 -19.665,-11.096 -29.212,-14.05L-29.212,-35.233C-27.221,-34.793 -25.226,-34.362 -23.227,-33.942L-23.227,-142.645C-25.226,-142.225 -27.221,-141.795 -29.212,-141.354L-29.212,-162.538C-21.493,-164.926 -13.717,-167.104 -5.896,-169.072L-5.896,-30.564Z" style="fill:none;fill-rule:nonzero;stroke:rgb(242,13,13);stroke-width:0.5px;"/>
        </g>
        <g transform="matrix(2.55135e-16,-4.16667,4.16667,2.55135e-16,1228.24,2261.93)">
            <path d="M0,134.346C2.045,134.367 4.09,134.379 6.135,134.381C6.134,143.377 6.134,152.372 6.135,161.367C-4.601,161.352 -15.337,160.962 -26.048,160.197L-26.048,133.545C-23.809,133.659 -21.57,133.762 -19.329,133.853C-25.597,79.962 -31.858,26.591 -38.108,-25.603C-32.056,-26.196 -25.994,-26.668 -19.925,-27.021C-13.289,26.21 -6.645,80.246 0,134.346ZM-34.713,40.204C-36.326,52.942 -37.939,65.623 -39.55,78.235C-36.44,78.274 -33.327,78.309 -30.212,78.34C-29.136,87.647 -28.06,96.979 -26.983,106.333C-32.338,106.166 -37.687,105.96 -43.027,105.713C-44.157,114.574 -45.286,123.397 -46.416,132.178C-43.762,132.399 -41.106,132.603 -38.447,132.791L-38.447,159.142C-46.083,158.388 -53.701,157.442 -61.294,156.306L-61.294,130.764C-59.55,130.95 -57.805,131.13 -56.059,131.302C-50.088,92.142 -44.103,51.81 -38.108,10.774C-36.977,20.547 -35.845,30.359 -34.713,40.204Z" style="fill:none;fill-rule:nonzero;stroke:rgb(242,13,13);stroke-width:0.5px;"/>
        </g>
        <g transform="matrix(2.55135e-16,-4.16667,4.16667,2.55135e-16,1772.13,1941.29)">
            <path d="M0,-127.496C-2.333,-127.754 -4.668,-127.998 -7.005,-128.23L-7.005,-61.046C-10.103,-71.243 -13.204,-81.588 -16.309,-92.047L-16.309,-129.083C-18.652,-129.28 -20.997,-129.465 -23.343,-129.636L-23.343,-155.941C-15.541,-155.143 -7.757,-154.145 0,-152.946L0,-127.496ZM-49.52,-84.827L-49.52,3.516C-47.165,3.441 -44.81,3.352 -42.457,3.251L-42.457,29.999C-50.283,30.471 -58.12,30.743 -65.958,30.814L-65.958,3.834C-63.601,3.818 -61.244,3.79 -58.887,3.749L-58.887,-117.774C-58.773,-117.772 -58.66,-117.771 -58.547,-117.769C-55.537,-106.768 -52.528,-95.778 -49.52,-84.827ZM-7.005,-41.996L-7.005,26.478C-8.779,26.724 -10.555,26.96 -12.331,27.185C-27.023,-22.926 -41.796,-76.944 -56.587,-131.2C-59.71,-131.266 -62.834,-131.309 -65.958,-131.329L-65.958,-158.31C-57.665,-158.234 -49.374,-157.934 -41.096,-157.41C-29.699,-117.941 -18.326,-78.943 -7.005,-41.996Z" style="fill:none;fill-rule:nonzero;stroke:rgb(242,13,13);stroke-width:0.5px;"/>
        </g>
        <g transform="matrix(2.55135e-16,-4.16667,4.16667,2.55135e-16,1751.81,1795.34)">
            <path d="M0,-117.744C-2.024,-118.085 -4.051,-118.416 -6.081,-118.737L-6.081,0.994C-4.051,0.673 -2.024,0.342 0,0.001L0,23.504C-9.871,25.832 -19.81,27.826 -29.798,29.488L-29.798,4.277C-27.75,4.034 -25.704,3.78 -23.66,3.517L-23.66,-121.26C-25.704,-121.524 -27.75,-121.777 -29.798,-122.021L-29.798,-147.232C-19.81,-145.57 -9.871,-143.575 0,-141.248L0,-117.744Z" style="fill:none;fill-rule:nonzero;stroke:rgb(242,13,13);stroke-width:0.5px;"/>
        </g>
        <g transform="matrix(2.55135e-16,-4.16667,4.16667,2.55135e-16,1682.65,1502.12)">
            <path d="M0,-84.828C-1.932,-85.406 -3.869,-85.974 -5.81,-86.532L-5.81,-34.585C-5.824,0.598 -13.977,23.49 -29.893,31.981L-29.893,10.362C-24.532,7.132 -22.681,-2.866 -22.679,-25.02L-22.679,-91.098C-24.646,-91.599 -26.618,-92.089 -28.593,-92.569L-28.593,-112.65C-18.959,-109.372 -9.421,-105.761 0,-101.818L0,-84.828ZM-35.51,-94.206C-37.495,-94.664 -39.484,-95.111 -41.476,-95.548L-41.476,-23.448C-41.478,-0.208 -39.179,10.628 -33.962,11.364L-33.962,33.602C-50.685,38.47 -58.776,16.688 -58.759,-31.728L-58.759,-99.071C-60.772,-99.45 -62.787,-99.82 -64.806,-100.179L-64.806,-123.298C-54.962,-120.845 -45.19,-118.059 -35.51,-114.94L-35.51,-94.206Z" style="fill:none;fill-rule:nonzero;stroke:rgb(242,13,13);stroke-width:0.5px;"/>
        </g>
        <g transform="matrix(2.55135e-16,-4.16667,4.16667,2.55135e-16,1572.63,1192.48)">
            <path d="M0,-29.947C-1.771,-30.792 -3.549,-31.627 -5.334,-32.452C-4.234,-20.885 -3.136,-10.333 -2.041,-0.816C-0.264,-1.653 1.505,-2.5 3.267,-3.357L3.267,1.637C-5.302,7.469 -14.043,12.97 -22.936,18.14L-22.936,8.438C-21.132,7.688 -19.335,6.929 -17.544,6.16C-18.713,-10.953 -19.884,-29.274 -21.059,-48.774C-13.937,-44.586 -6.914,-40.184 0,-35.569L0,-29.947ZM-31.853,-21.715C-29.447,-31.619 -27.051,-40.49 -24.666,-48.275C-24.189,-39.898 -23.713,-31.711 -23.237,-23.716C-27.046,-11.676 -30.883,2.812 -34.746,19.548C-35.89,20.087 -37.036,20.622 -38.184,21.152C-43.62,1.203 -49.106,-23.414 -54.639,-52.133C-58.613,-53.488 -62.612,-54.799 -66.633,-56.065L-66.633,-72.114C-57.592,-68.128 -48.665,-63.832 -39.87,-59.224C-37.185,-45.53 -34.513,-33.002 -31.853,-21.715ZM-53.861,-28.01C-54.691,-12.058 -55.523,4.275 -56.356,20.982C-54.43,20.333 -52.51,19.673 -50.595,19.004L-50.595,32.925C-57.244,36.179 -63.961,39.26 -70.741,42.167L-70.741,25.609C-68.815,25.019 -66.895,24.419 -64.979,23.808C-63.614,-0.437 -62.252,-23.905 -60.893,-46.567C-59.691,-46.252 -58.49,-45.934 -57.292,-45.613C-56.146,-39.568 -55.003,-33.699 -53.861,-28.01Z" style="fill:none;fill-rule:nonzero;stroke:rgb(242,13,13);stroke-width:0.5px;"/>
        </g>
        <g transform="matrix(2.55135e-16,-4.16667,4.16667,2.55135e-16,2622.41,3174.5)">
            <path d="M0,-70.968C14.848,-80.325 22.017,-76.235 21.992,-59.825C21.997,-49.735 18.069,-42.394 10.761,-39.463C20.371,-37.386 25.248,-28.737 25.238,-14.886C25.268,3.757 16.55,9.357 -0.081,-0.738C-0.594,-1.034 -1.106,-1.331 -1.618,-1.628L-1.618,-11.379C-1.511,-11.335 -1.403,-11.291 -1.295,-11.247C5.258,-8.425 8.88,-11.316 8.876,-19.255C8.88,-27.437 5.176,-31.964 -1.376,-32.136C-1.457,-32.14 -1.537,-32.144 -1.618,-32.148L-1.618,-41.216C-1.591,-41.219 -1.564,-41.222 -1.537,-41.225C3.72,-42.107 6.018,-46.259 6.015,-53.278C6.019,-59.514 3.801,-62.408 -1.537,-60.266C-1.564,-60.254 -1.591,-60.242 -1.618,-60.23L-1.618,-69.982C-1.079,-70.312 -0.54,-70.641 0,-70.968ZM-5.648,-4.001C-13.017,-8.394 -20.277,-13.017 -27.418,-17.869L-27.418,-22.864C-25.523,-21.953 -23.619,-21.054 -21.707,-20.166L-21.707,-50.786C-23.619,-49.832 -25.523,-48.865 -27.418,-47.886L-27.418,-52.881C-20.277,-57.99 -13.017,-62.858 -5.648,-67.483L-5.648,-4.001Z" style="fill:none;fill-rule:nonzero;stroke:rgb(242,13,13);stroke-width:0.5px;"/>
        </g>
        <g transform="matrix(2.55135e-16,-4.16667,4.16667,2.55135e-16,2690.51,2764.31)">
            <path d="M0,-109.024C-2.153,-108.552 -4.301,-108.067 -6.445,-107.57L-6.445,-43.791C-6.427,0.711 -15.583,22.255 -32.563,17.208L-32.563,-3.233C-26.849,-3.319 -24.837,-12.666 -24.839,-35.435L-24.839,-102.976C-26.957,-102.409 -29.07,-101.829 -31.178,-101.236L-31.178,-120.49C-20.898,-124.492 -10.497,-128.088 0,-131.279L0,-109.024ZM-38.52,-99.117C-40.616,-98.496 -42.706,-97.862 -44.791,-97.217L-44.791,-37.199C-44.789,-17.997 -42.399,-7.964 -36.882,-4.44L-36.882,15.671C-54.541,6.578 -62.618,-13.59 -62.64,-45.484L-62.64,-91.338C-64.691,-90.622 -66.736,-89.893 -68.775,-89.152L-68.775,-103.75C-58.833,-108.757 -48.74,-113.359 -38.52,-117.554L-38.52,-99.117Z" style="fill:none;fill-rule:nonzero;stroke:rgb(242,13,13);stroke-width:0.5px;"/>
        </g>
        <g transform="matrix(2.55135e-16,-4.16667,4.16667,2.55135e-16,2829.24,2616.97)">
            <path d="M0,-173.715C25.5,-179.315 40.446,-146.265 40.425,-86.572C40.444,-28.966 24.776,5.6 0,0.108C-0.03,0.102 -0.06,0.096 -0.09,0.09L-0.09,-24.947C-0.06,-24.943 -0.03,-24.938 0,-24.934C12.878,-24.401 20.607,-46.757 20.602,-86.253C20.608,-127.288 13.239,-148.633 0,-148.67C-0.03,-148.666 -0.06,-148.661 -0.09,-148.656L-0.09,-173.696C-0.06,-173.702 -0.03,-173.709 0,-173.715ZM-4.587,-0.849C-13.062,-2.664 -21.491,-4.722 -29.862,-7.024L-29.862,-29.733C-27.703,-29.313 -25.54,-28.905 -23.373,-28.508L-23.373,-144.813C-25.54,-144.386 -27.703,-143.947 -29.862,-143.496L-29.862,-166.205C-21.491,-168.629 -13.062,-170.796 -4.587,-172.707L-4.587,-0.849Z" style="fill:none;fill-rule:nonzero;stroke:rgb(242,13,13);stroke-width:0.5px;"/>
        </g>
        <g transform="matrix(2.55135e-16,-4.16667,4.16667,2.55135e-16,2868.01,2296.52)">
            <path d="M0,-192.452C25.941,-192.851 40.871,-156.393 40.866,-95.923C40.871,-37.619 25.208,0.399 0,-0.239C-0.03,-0.24 -0.061,-0.241 -0.091,-0.242L-0.091,-27.933C-0.061,-27.932 -0.03,-27.931 0,-27.931C13.104,-29.305 20.898,-53.945 20.897,-95.662C20.898,-139.028 13.47,-162.589 0,-164.758C-0.03,-164.757 -0.061,-164.756 -0.091,-164.755L-0.091,-192.449C-0.061,-192.45 -0.03,-192.451 0,-192.452ZM-4.672,-0.411C-13.312,-0.771 -21.943,-1.375 -30.552,-2.223L-30.552,-29.063C-28.332,-28.908 -26.109,-28.765 -23.886,-28.634L-23.886,-163.985C-26.109,-163.843 -28.332,-163.69 -30.552,-163.523L-30.552,-190.364C-21.943,-191.256 -13.312,-191.892 -4.672,-192.272L-4.672,-0.411Z" style="fill:none;fill-rule:nonzero;stroke:rgb(242,13,13);stroke-width:0.5px;"/>
        </g>
        <g transform="matrix(2.55135e-16,-4.16667,4.16667,2.55135e-16,2094.84,1901.24)">
            <path d="M0,178.477C-5.876,179.521 -11.77,180.45 -17.678,181.263L-17.678,155.03C-14.163,154.688 -10.654,154.317 -7.15,153.917C-5.7,143.787 -4.252,133.731 -2.804,123.757C0.755,123.533 4.308,123.293 7.853,123.038C5.239,141.217 2.621,159.711 0,178.477ZM-13.772,24.035C-16.586,23.722 -19.404,23.429 -22.225,23.156L-22.225,181.865C-30.81,182.959 -39.422,183.809 -48.05,184.416L-48.05,157.26C-45.824,157.149 -43.6,157.027 -41.376,156.894L-41.376,21.611C-43.6,21.467 -45.824,21.336 -48.05,21.217L-48.05,-5.939C-36.587,-5.091 -25.151,-3.789 -13.772,-2.035L-13.772,24.035Z" style="fill:none;fill-rule:nonzero;stroke:rgb(242,13,13);stroke-width:0.5px;"/>
        </g>
        <g transform="matrix(2.55135e-16,-4.16667,4.16667,2.55135e-16,2162.35,1640.56)">
            <path d="M0,146.502C-7.151,148.86 -14.355,151.035 -21.601,153.028L-21.601,130.32C-16.573,129.342 -11.566,128.302 -6.582,127.2C-5.497,120.107 -4.414,113.107 -3.331,106.203C0.062,105.738 3.444,105.257 6.814,104.758C4.548,118.239 2.277,132.164 0,146.502ZM-7.11,96.625C-10.042,96.888 -12.983,97.143 -15.931,97.389L-15.931,81.822C-17.818,81.867 -19.708,81.912 -21.601,81.955L-21.601,58.566C-19.708,58.679 -17.818,58.796 -15.931,58.915L-15.931,43.348C-12.983,43.709 -10.043,44.083 -7.11,44.469L-7.11,96.625ZM-0.788,37.183C-3.709,36.669 -6.638,36.171 -9.575,35.689L-9.575,19.209C-13.569,18.283 -17.579,17.399 -21.601,16.558L-21.601,-6.15C-14.621,-4.129 -7.68,-1.929 -0.788,0.449L-0.788,37.183ZM-26.044,154.226C-34.435,156.442 -42.882,158.414 -51.374,160.143L-51.374,135.351C-49.183,135.035 -46.996,134.709 -44.812,134.37L-44.812,12.204C-46.996,11.841 -49.183,11.49 -51.374,11.151L-51.374,-13.641C-42.882,-11.821 -34.435,-9.744 -26.044,-7.411L-26.044,154.226Z" style="fill:none;fill-rule:nonzero;stroke:rgb(242,13,13);stroke-width:0.5px;"/>
        </g>
        <g transform="matrix(2.55135e-16,-4.16667,4.16667,2.55135e-16,2638.29,1474.15)">
            <path d="M0,-81.059C-2.064,-81.749 -4.134,-82.427 -6.209,-83.093L-6.209,2.534C-4.134,1.915 -2.064,1.285 0,0.642L0,16.951C-10.066,21.38 -20.272,25.423 -30.596,29.081L-30.596,9.22C-28.479,8.689 -26.367,8.148 -24.26,7.594L-24.26,-88.531C-26.367,-89.126 -28.479,-89.708 -30.596,-90.278L-30.596,-110.14C-20.272,-106.288 -10.066,-102.031 0,-97.368L0,-81.059Z" style="fill:none;fill-rule:nonzero;stroke:rgb(242,13,13);stroke-width:0.5px;"/>
        </g>
        <g transform="matrix(2.55135e-16,-4.16667,4.16667,2.55135e-16,2453.02,1206.71)">
            <path d="M0,20.451C1.886,19.575 3.763,18.688 5.633,17.789L5.633,22.784C-4.182,29.454 -14.224,35.69 -24.462,41.491L-24.462,31.018C-22.322,30.16 -20.191,29.29 -18.069,28.405C-24.006,12.065 -30.012,-10.536 -36.081,-38.615C-30.204,-35.352 -24.387,-31.941 -18.633,-28.385C-12.343,-5.487 -6.129,11.084 0,20.451ZM-32.792,-7.218C-34.352,-1.813 -35.915,3.948 -37.484,10.055C-34.458,9.895 -31.447,9.732 -28.453,9.565C-27.419,13.401 -26.387,17.062 -25.356,20.542C-30.481,21.721 -35.654,22.856 -40.873,23.947C-41.978,28.619 -43.084,33.458 -44.192,38.46C-41.588,37.537 -38.994,36.595 -36.411,35.633L-36.411,48.019C-43.829,51.923 -51.342,55.605 -58.938,59.066L-58.938,43.445C-57.194,42.883 -55.454,42.313 -53.718,41.734C-47.784,16.743 -41.904,-4.551 -36.081,-21.594C-34.983,-16.614 -33.887,-11.82 -32.792,-7.218Z" style="fill:none;fill-rule:nonzero;stroke:rgb(242,13,13);stroke-width:0.5px;"/>
        </g>
        <g transform="matrix(2.55135e-16,-4.16667,4.16667,2.55135e-16,3578.71,3082.45)">
            <path d="M0,-64.87C-3.313,-63.661 -6.608,-62.42 -9.883,-61.148L-9.883,-3.724C-6.608,-2.451 -3.313,-1.21 0,-0L0,12.947C-16.156,4.693 -31.88,-4.603 -47.064,-14.94L-47.064,-19.932C-43.95,-18.417 -40.814,-16.933 -37.656,-15.481L-37.656,-49.392C-40.814,-47.94 -43.95,-46.456 -47.064,-44.942L-47.064,-49.933C-31.88,-60.269 -16.156,-69.564 0,-77.817L0,-64.87Z" style="fill:none;fill-rule:nonzero;stroke:rgb(242,13,13);stroke-width:0.5px;"/>
        </g>
        <g transform="matrix(2.55135e-16,-4.16667,4.16667,2.55135e-16,3690.86,2579.41)">
            <path d="M0,-121.19C-4.101,-120.637 -8.193,-120.045 -12.273,-119.411L-12.273,-56.831C-17.682,-66.377 -23.071,-75.527 -28.438,-84.18L-28.438,-116.68C-32.488,-115.939 -36.525,-115.158 -40.548,-114.337L-40.548,-136.286C-27.17,-140.108 -13.637,-143.305 0,-145.875L0,-121.19ZM-84.685,-73.192L-84.685,-15.183C-80.785,-14.062 -76.866,-12.98 -72.929,-11.939L-72.929,6.987C-86.02,2.143 -98.916,-3.326 -111.564,-9.421L-111.564,-23.666C-107.76,-22.356 -103.934,-21.087 -100.087,-19.857L-100.087,-90.962C-99.902,-91.01 -99.716,-91.057 -99.531,-91.104C-94.615,-85.916 -89.666,-79.913 -84.685,-73.192ZM-12.273,-39.092L-12.273,24.685C-15.371,24.013 -18.462,23.307 -21.546,22.569C-47.054,-30.357 -72.094,-75.048 -96.327,-100.033C-101.443,-98.439 -106.523,-96.774 -111.564,-95.038L-111.564,-109.283C-98.182,-115.731 -84.524,-121.479 -70.65,-126.526C-51.549,-105.684 -32.038,-74.892 -12.273,-39.092Z" style="fill:none;fill-rule:nonzero;stroke:rgb(242,13,13);stroke-width:0.5px;"/>
        </g>
        <g transform="matrix(2.55135e-16,-4.16667,4.16667,2.55135e-16,3856.21,2258.17)">
            <path d="M0,-197.984C9.635,-197.088 18.519,-193.39 25.289,-188.039C29.351,-172.499 33.412,-156.985 37.469,-141.575C32.41,-141.724 27.346,-141.835 22.279,-141.907C18.819,-154.026 12.496,-166.613 0,-168.636L0,-197.984ZM46.93,-72.697C43.629,-72.617 40.324,-72.547 37.018,-72.487L37.018,-59.677C37.018,-46.074 38.07,-40.761 41.375,-34.007L41.375,-32.947C33.867,-21.15 22.584,-8.387 7.979,-2.701L7.979,-72.223C4.215,-72.223 0.451,-72.236 -3.311,-72.261L-3.311,-99.167C13.446,-99.168 30.223,-99.167 46.93,-99.165L46.93,-72.697ZM-7.526,-168.496C-25.886,-164.928 -35.922,-139.546 -35.923,-99.165C-35.924,-58.836 -22.883,-29.738 -3.613,-29.213C-2.107,-29.185 -0.753,-29.437 0.452,-29.423L0.452,-0.609C-2.408,-0.119 -5.419,0.072 -8.579,-0.046C-44.571,-2.166 -68.193,-44.521 -68.188,-99.159C-68.195,-150.768 -43.824,-194.646 -7.526,-198.056L-7.526,-168.496Z" style="fill:none;fill-rule:nonzero;stroke:rgb(242,13,13);stroke-width:0.5px;"/>
        </g>
        <g transform="matrix(2.55135e-16,-4.16667,4.16667,2.55135e-16,3131.84,1673.15)">
            <path d="M0,149.633C-11.824,153.226 -23.778,156.325 -35.826,158.932L-35.826,134.934C-27.466,133.641 -19.151,132.179 -10.894,130.547C-9.097,123.072 -7.302,115.725 -5.511,108.515C0.107,107.797 5.696,107.03 11.254,106.215C7.517,120.042 3.765,134.543 0,149.633ZM-11.769,98.807C-16.628,99.216 -21.508,99.6 -26.404,99.958L-26.404,83.587C-29.538,83.668 -32.678,83.744 -35.826,83.817L-35.826,59.094C-32.678,59.222 -29.538,59.355 -26.404,59.495L-26.404,43.124C-21.508,43.576 -16.628,44.06 -11.769,44.575L-11.769,98.807ZM-1.304,37.37C-6.134,36.647 -10.985,35.965 -15.855,35.325L-15.855,18.126C-22.479,16.875 -29.138,15.732 -35.826,14.698L-35.826,-9.3C-24.221,-6.789 -12.703,-3.822 -1.304,-0.396L-1.304,37.37ZM-43.213,160.465C-57.171,163.243 -71.246,165.363 -85.38,166.825L-85.38,140.575C-81.734,140.306 -78.092,140.005 -74.455,139.673L-74.455,9.96C-78.092,9.628 -81.734,9.327 -85.38,9.058L-85.38,-17.192C-71.245,-15.731 -57.171,-13.611 -43.213,-10.833L-43.213,160.465Z" style="fill:none;fill-rule:nonzero;stroke:rgb(242,13,13);stroke-width:0.5px;"/>
        </g>
        <g transform="matrix(2.55135e-16,-4.16667,4.16667,2.55135e-16,3644.79,1393.17)">
            <path d="M0,-96.588C27.625,-81.729 40.99,-67.213 41.055,-59.214C41.043,-53.129 34.72,-49.68 23.258,-46.193C29.395,-31.228 40.393,-25.787 52.676,-31.927C52.207,-30.96 51.737,-29.958 51.267,-28.92C25.022,-10.414 7.774,-14.497 -2.744,-36.187C-2.79,-36.324 -2.835,-36.46 -2.881,-36.597L-2.881,-52.477C-2.836,-52.475 -2.79,-52.473 -2.744,-52.471C8.097,-52.763 12.506,-56.99 12.518,-65.083C12.509,-72.769 7.415,-79.619 -2.744,-83.767C-2.79,-83.783 -2.835,-83.799 -2.881,-83.815L-2.881,-97.994C-1.919,-97.529 -0.959,-97.06 0,-96.588ZM-9.776,-10.445C-6.686,-11.466 -3.61,-12.513 -0.548,-13.587L-0.548,0.268C-16.541,8.115 -32.936,14.956 -49.632,20.79L-49.632,1.081C-46.15,0.211 -42.681,-0.69 -39.225,-1.622L-39.225,-94.966C-42.681,-95.898 -46.15,-96.799 -49.632,-97.669L-49.632,-117.378C-36.132,-112.661 -22.829,-107.286 -9.776,-101.253L-9.776,-10.445Z" style="fill:none;fill-rule:nonzero;stroke:rgb(242,13,13);stroke-width:0.5px;"/>
        </g>
        <g transform="matrix(2.55135e-16,-4.16667,4.16667,2.55135e-16,4135.61,2903.32)">
            <path d="M0,133.293C-13.329,127.927 -26.447,121.875 -39.299,115.136L-39.299,101.217C-30.381,104.559 -21.336,107.665 -12.18,110.534C-10.187,105.514 -8.19,100.243 -6.187,94.735C0.093,95.899 6.421,96.995 12.793,98.024C8.509,110.727 4.244,122.523 0,133.293ZM-13.149,85.181C-18.53,84.452 -23.873,83.689 -29.174,82.89L-29.174,72.12C-32.566,71.941 -35.942,71.758 -39.299,71.57L-39.299,57.231C-35.942,56.902 -32.566,56.581 -29.174,56.27L-29.174,45.5C-23.873,44.493 -18.53,43.531 -13.149,42.612L-13.149,85.181ZM-1.468,33.315C-6.902,34.416 -12.301,35.574 -17.66,36.788L-17.66,23.914C-24.949,26.285 -32.165,28.808 -39.299,31.481L-39.299,17.562C-26.919,11.071 -14.293,5.217 -1.468,0L-1.468,33.315ZM-47.134,110.925C-61.852,102.817 -76.201,93.793 -90.097,83.854L-90.097,78.86C-86.513,80.692 -82.898,82.481 -79.254,84.226L-79.254,48.472C-82.898,50.218 -86.513,52.006 -90.097,53.839L-90.097,48.845C-76.201,38.905 -61.852,29.882 -47.134,21.774L-47.134,110.925Z" style="fill:none;fill-rule:nonzero;stroke:rgb(242,13,13);stroke-width:0.5px;"/>
        </g>
        <g transform="matrix(2.55135e-16,-4.16667,4.16667,2.55135e-16,4034.93,2461.23)">
            <path d="M0,185.232C-11.19,183.771 -22.334,181.876 -33.405,179.545L-33.405,154.144C-26.819,155.135 -20.207,156.016 -13.576,156.787C-10.831,146.876 -8.084,136.798 -5.333,126.58C1.429,126.951 8.209,127.261 15.002,127.511C9.994,147.133 4.992,166.426 0,185.232ZM-26.071,25.822C-31.365,26.551 -36.644,27.351 -41.906,28.221L-41.906,177.667C-57.915,173.96 -73.757,169.339 -89.346,163.801L-89.346,142.892C-85.325,143.913 -81.287,144.89 -77.234,145.824L-77.234,35.199C-81.287,36.133 -85.325,37.11 -89.346,38.131L-89.346,17.222C-68.634,9.864 -47.477,4.123 -26.071,0L-26.071,25.822Z" style="fill:none;fill-rule:nonzero;stroke:rgb(242,13,13);stroke-width:0.5px;"/>
        </g>
        <g transform="matrix(2.55135e-16,-4.16667,4.16667,2.55135e-16,4016.42,1991.4)">
            <path d="M0,189.741C-11.191,191.188 -22.428,192.201 -33.682,192.778L-33.682,164.869C-26.987,164.624 -20.299,164.268 -13.622,163.803C-10.859,152.983 -8.099,142.233 -5.341,131.58C1.44,131.276 8.205,130.911 14.949,130.484C9.977,149.818 4.993,169.624 0,189.741ZM-26.24,25.355C-31.603,25.093 -36.972,24.901 -42.343,24.78L-42.343,193.137C-58.687,193.652 -75.055,193.25 -91.363,191.933L-91.363,164.265C-87.157,164.508 -82.946,164.707 -78.733,164.863L-78.733,25.043C-82.946,25.199 -87.157,25.398 -91.363,25.641L-91.363,-2.027C-69.696,-3.777 -47.923,-3.911 -26.24,-2.427L-26.24,25.355Z" style="fill:none;fill-rule:nonzero;stroke:rgb(242,13,13);stroke-width:0.5px;"/>
        </g>
        <g transform="matrix(2.55135e-16,-4.16667,4.16667,2.55135e-16,4638.14,1648.72)">
            <path d="M0,-108.517C-4.042,-109.483 -8.099,-110.405 -12.171,-111.284L-12.171,2.768C-8.099,1.889 -4.042,0.967 0,0.001L0,21.66C-19.711,28.251 -39.799,33.394 -60.098,37.086L-60.098,11.026C-55.936,10.485 -51.782,9.9 -47.639,9.272L-47.639,-117.788C-51.782,-118.416 -55.936,-119.001 -60.098,-119.542L-60.098,-145.603C-39.799,-141.91 -19.711,-136.768 0,-130.176L0,-108.517Z" style="fill:none;fill-rule:nonzero;stroke:rgb(242,13,13);stroke-width:0.5px;"/>
        </g>
        <g transform="matrix(2.55135e-16,-4.16667,4.16667,2.55135e-16,4304.5,1221.92)">
            <path d="M0,51.63C-12.249,59.781 -24.819,67.246 -37.656,74.024L-37.656,60.27C-28.749,56.908 -19.97,53.311 -11.338,49.477C-9.459,45.62 -7.588,42.071 -5.723,38.844C0.123,37.187 5.899,35.463 11.599,33.67C7.766,38.198 3.9,44.223 0,51.63ZM-12.252,36.144C-17.336,37.107 -22.471,38.036 -27.652,38.929L-27.652,30.39C-30.968,30.59 -34.303,30.784 -37.656,30.974L-37.656,16.805C-34.303,17.135 -30.968,17.475 -27.652,17.824L-27.652,9.285C-22.471,10.411 -17.336,11.581 -12.252,12.796L-12.252,36.144ZM-1.352,12.516C-6.361,10.87 -11.423,9.281 -16.535,7.749L-16.535,-0.119C-23.487,-3.11 -30.53,-5.951 -37.656,-8.64L-37.656,-22.393C-25.291,-15.864 -13.173,-8.698 -1.352,-0.896L-1.352,12.516ZM-45.549,78.088C-60.5,85.593 -75.793,92.183 -91.345,97.857L-91.345,77.303C-87.333,76.257 -83.338,75.168 -79.363,74.035L-79.363,-22.405C-83.339,-23.538 -87.333,-24.628 -91.345,-25.673L-91.345,-46.227C-75.793,-40.553 -60.5,-33.963 -45.549,-26.458L-45.549,78.088Z" style="fill:none;fill-rule:nonzero;stroke:rgb(242,13,13);stroke-width:0.5px;"/>
        </g>
        <g transform="matrix(2.55135e-16,-4.16667,4.16667,2.55135e-16,2221.45,212.258)">
            <path d="M0,-114.978C-7.141,-88.495 -16.745,-62.589 -28.812,-37.66C-31.254,-42.77 -34.54,-47.921 -38.578,-53.11C-34.244,-67.274 -30.45,-81.719 -27.196,-96.373C-35.416,-100.072 -44.109,-103.786 -53.219,-107.511C-52.448,-115.693 -51.754,-123.934 -51.138,-132.222C-33.093,-126.449 -15.97,-120.7 0,-114.978ZM-116.512,-49.959C-112.538,-37.236 -108.126,-24.743 -103.276,-12.533C-98.09,-9.917 -93.397,-7.313 -89.226,-4.723C-87.724,2.382 -86.146,9.387 -84.491,16.279C-89.367,12.221 -95.986,8.124 -104.205,3.99C-118.127,-18.187 -129.892,-41.419 -139.498,-65.378C-131.285,-60.204 -123.592,-55.063 -116.512,-49.959ZM-150.604,-125.129C-91.938,-90.614 -45.586,-56.984 -35.141,-25.108C-42.752,-10.6 -51.221,3.545 -60.547,17.244L-62.295,17.244C-54.97,-12.792 -90.198,-44.968 -144.488,-78.42C-150.076,-93.749 -154.8,-109.347 -158.658,-125.129L-150.604,-125.129Z" style="fill:none;fill-rule:nonzero;stroke:rgb(242,13,13);stroke-width:0.5px;"/>
        </g>
        <g transform="matrix(2.55135e-16,-4.16667,4.16667,2.55135e-16,1165.04,648.739)">
            <path d="M0,37.603C12.815,41.914 25.582,46.223 38.227,50.528C38.294,42.22 38.333,33.897 38.343,25.573C47.685,22.697 57.032,19.822 66.359,16.946C66.413,31.249 66.18,45.557 65.662,59.813C74.466,62.83 83.182,65.845 91.783,68.857C92.32,61.779 92.737,54.685 93.035,47.582L119.5,47.582C118.304,67.984 115.73,88.314 111.777,108.404L87.514,108.404C88.163,103.791 88.76,99.164 89.305,94.528C52.618,78.674 11.882,62.696 -29.537,46.675C-19.755,43.652 -9.899,40.628 0,37.603ZM89.048,-54.707C88.397,-60.087 87.675,-65.453 86.884,-70.801L110.896,-70.801C116.709,-42.724 119.821,-14.155 120.232,14.449L93.558,14.449C93.496,8.471 93.351,2.494 93.121,-3.477C40.674,13.227 -13.976,29.974 -66.083,46.675C-66.998,30.503 -67.048,14.288 -66.233,-1.889C-12.205,-19.578 41.33,-37.22 89.048,-54.707Z" style="fill:none;fill-rule:nonzero;stroke:rgb(242,13,13);stroke-width:0.5px;"/>
        </g>
        <g transform="matrix(2.55135e-16,-4.16667,4.16667,2.55135e-16,788.168,432.125)">
            <path d="M0,-122.462C7.386,-112.999 17.482,-98.692 24.949,-85.648L10.248,-85.648C2.11,-104.016 -6.986,-112.902 -13.304,-116.908C-14.917,-123.943 -16.613,-130.878 -18.389,-137.702C-13.942,-132.68 -7.752,-127.599 0,-122.462ZM-75.62,-85.648C-67.907,-99.29 -60.149,-110.153 -53.977,-118.301C-45.373,-123.931 -38.449,-129.497 -33.424,-134.993C-35.307,-128.139 -37.103,-121.177 -38.811,-114.116C-45.656,-108.899 -53.472,-101.538 -60.642,-85.648L-75.62,-85.648ZM-64.568,-75.258C-73.428,-48.037 -56.043,-32.195 -25.36,-32.253C4.393,-32.208 21.659,-49.523 13.886,-75.258L30.547,-75.258C38.003,-60.079 44.742,-37.668 37.574,-18.819C30.903,-0.009 10.325,15.24 -25.375,15.196C-60.815,15.239 -81.637,0.271 -88.461,-18.41C-95.783,-37.126 -89.107,-59.555 -81.076,-75.258L-64.568,-75.258Z" style="fill:none;fill-rule:nonzero;stroke:rgb(242,13,13);stroke-width:0.5px;"/>
        </g>
        <g transform="matrix(2.55135e-16,-4.16667,4.16667,2.55135e-16,4545.45,581.737)">
            <path d="M0,16.902C5.206,18.644 9.994,20.38 14.346,22.11C14.555,18.771 14.759,15.41 14.958,12.028C18.874,10.86 22.991,9.689 27.303,8.516C25.985,14.351 24.61,20.126 23.178,25.835C25.811,27.043 28.223,28.248 30.407,29.451C31.656,26.625 32.88,23.784 34.08,20.925L43.578,20.925C38.713,29.134 33.563,37.211 28.129,45.142L23.136,45.142C24.02,43.321 24.893,41.492 25.756,39.656C19.336,33.377 7.169,27.009 -10.034,20.561C-6.926,19.344 -3.579,18.124 0,16.902ZM49.691,-21.333C50.43,-23.628 51.155,-25.93 51.865,-28.24L68.682,-28.24C63.42,-16.115 57.599,-4.188 51.22,7.496L39.494,7.496C40.438,5.054 41.366,2.601 42.276,0.139C13.945,7.028 -8.224,13.839 -23.228,20.561C-27.247,14.052 -31.078,7.46 -34.724,0.793C-13.123,-6.496 15.39,-13.875 49.691,-21.333Z" style="fill:none;fill-rule:nonzero;stroke:rgb(242,13,13);stroke-width:0.5px;"/>
        </g>
        <g transform="matrix(2.55135e-16,-4.16667,4.16667,2.55135e-16,4161.51,606.331)">
            <path d="M0,39.596L64.646,39.596C65.349,36.88 66.034,34.155 66.699,31.423L87.193,31.423C84.069,40.509 80.648,49.508 76.928,58.405L59.427,58.405C60.22,55.729 60.993,53.045 61.747,50.351L-21.49,50.351C-21.521,50.221 -21.553,50.091 -21.584,49.961C-14.883,46.52 -7.672,43.065 0,39.596ZM35.401,-10.395L99.338,-10.395C98.831,-8.27 98.308,-6.148 97.77,-4.03C46.083,13.489 1.135,30.776 -31.495,47.719C-30.451,51.297 -29.371,54.859 -28.256,58.405L-45.756,58.405C-49.865,48.992 -53.625,39.465 -57.038,29.842C-31.791,16.594 -0.176,3.165 35.401,-10.395ZM-46.566,-18.809C-46.104,-15.999 -45.621,-13.194 -45.118,-10.395L17.618,-10.395C8.076,-6.684 -1.159,-2.984 -10.038,0.706L-43.012,0.706C-42.456,3.49 -41.879,6.268 -41.282,9.039L-63.83,9.039C-66.585,-0.176 -69.029,-9.465 -71.162,-18.809L-46.566,-18.809Z" style="fill:none;fill-rule:nonzero;stroke:rgb(242,13,13);stroke-width:0.5px;"/>
        </g>
        <g transform="matrix(2.55135e-16,-4.16667,4.16667,2.55135e-16,3844.93,158.591)">
            <path d="M0,22.408C-1.343,32.107 -2.999,41.768 -4.967,51.373L-29.921,51.373C-29.562,48.895 -29.217,46.413 -28.886,43.929L-156.047,43.929C-155.697,46.414 -155.33,48.895 -154.948,51.373L-179.902,51.373C-181.957,41.768 -183.686,32.107 -185.088,22.408L0,22.408ZM-185.814,17.161C-189.51,-12.001 -153.744,-28.965 -92.219,-28.946C-32.875,-28.963 4.449,-11.174 0.695,17.161C0.691,17.195 0.687,17.23 0.682,17.264L-26.187,17.264C-26.184,17.23 -26.181,17.195 -26.178,17.161C-26.361,2.433 -50.373,-6.375 -91.93,-6.371C-135.111,-6.376 -158.061,2.021 -158.941,17.161C-158.938,17.195 -158.935,17.23 -158.931,17.264L-185.8,17.264C-185.805,17.23 -185.81,17.195 -185.814,17.161Z" style="fill:none;fill-rule:nonzero;stroke:rgb(242,13,13);stroke-width:0.5px;"/>
        </g>
        <g transform="matrix(2.55135e-16,-4.16667,4.16667,2.55135e-16,3486.61,258.154)">
            <path d="M0,18.908C-0.096,16.596 -0.204,14.285 -0.324,11.976L26.976,11.976C27.866,24.042 28.276,36.14 28.208,48.236L0.548,48.236C0.558,45.713 0.553,43.19 0.534,40.667L-138.021,40.667C-138.041,43.19 -138.046,45.713 -138.036,48.236L-165.695,48.236C-165.753,38.455 -165.484,28.674 -164.888,18.908L0,18.908ZM-164.378,11.561C-162.495,-9.33 -142.06,-20.09 -108.452,-20.095C-85.378,-20.094 -70.776,-15.065 -63.186,-6.201C-24.795,-10.943 6.064,-19.493 15.568,-29.328C19.075,-28.952 22.588,-28.576 26.108,-28.2C26.163,-7.282 -2.244,5.674 -45.346,13.63C-45.619,13.665 -45.892,13.699 -46.165,13.734L-76.783,13.734C-76.782,13.699 -76.782,13.665 -76.782,13.63C-77.836,5.459 -88.067,2.054 -106.714,2.054C-124.536,2.054 -135.941,5.975 -137.199,13.63C-137.2,13.665 -137.202,13.699 -137.204,13.734L-164.542,13.734C-164.489,13.009 -164.434,12.285 -164.378,11.561Z" style="fill:none;fill-rule:nonzero;stroke:rgb(242,13,13);stroke-width:0.5px;"/>
        </g>
        <g transform="matrix(2.55135e-16,-4.16667,4.16667,2.55135e-16,3311.3,230.027)">
            <path d="M0,-50.621C2.591,-42.505 4.948,-34.325 7.07,-26.093L-16.395,-26.093C-17.438,-31.805 -18.561,-37.492 -19.764,-43.15C-27.092,-44.382 -34.32,-45.611 -41.444,-46.84C-41.955,-50.692 -42.489,-54.53 -43.044,-58.353C-29.171,-55.782 -14.809,-53.205 0,-50.621ZM-51.284,-42.55C-50.995,-39.221 -50.716,-35.882 -50.449,-32.533L-66.526,-32.533C-66.475,-30.39 -66.425,-28.243 -66.376,-26.093L-90.55,-26.093C-90.432,-28.243 -90.31,-30.39 -90.185,-32.533L-106.262,-32.533C-105.88,-35.882 -105.481,-39.221 -105.066,-42.55L-51.284,-42.55ZM8.34,-21.047C10.68,-11.515 12.708,-1.916 14.422,7.732L-11.187,7.732C-11.5,5.243 -11.828,2.758 -12.171,0.276L-138.447,0.276C-138.811,2.758 -139.159,5.243 -139.492,7.732L-165.101,7.732C-163.311,-1.916 -161.194,-11.515 -158.75,-21.047L8.34,-21.047ZM-112.524,-49.726C-113.082,-46.411 -113.619,-43.086 -114.135,-39.752L-131.138,-39.752C-132.133,-35.216 -133.073,-30.663 -133.96,-26.093L-157.425,-26.093C-155.291,-34.022 -152.929,-41.903 -150.341,-49.726L-112.524,-49.726Z" style="fill:none;fill-rule:nonzero;stroke:rgb(242,13,13);stroke-width:0.5px;"/>
        </g>
        <g transform="matrix(2.55135e-16,-4.16667,4.16667,2.55135e-16,2755.28,720.353)">
            <path d="M0,43.628C-0.351,44.721 -0.698,45.816 -1.042,46.913C29.891,40.109 56.886,33.364 79.196,26.687C85.443,29.219 92.056,31.76 99.012,34.31C100.372,37.307 101.697,40.317 102.987,43.339C72.326,51.858 35.017,60.473 -7.499,69.17C-8.113,71.467 -8.712,73.771 -9.297,76.079L-30.056,76.079C-26.205,65.13 -21.905,54.303 -17.156,43.628L0,43.628ZM19.763,-8.235C19.533,-7.718 19.303,-7.201 19.074,-6.683C22.329,-3.515 26.391,-0.327 31.208,2.878C27.591,4.42 23.758,5.966 19.717,7.516C17.885,6.307 16.161,5.101 14.548,3.897C13.96,5.317 13.378,6.74 12.803,8.167L0.608,8.167C3.698,2.645 6.917,-2.824 10.266,-8.235L19.763,-8.235ZM10.948,12.832C10.557,13.83 10.169,14.83 9.784,15.831C33.958,7.415 52.452,-0.886 64.102,-9.055C68.791,-7.416 73.846,-5.77 79.254,-4.12C80.915,-1.247 82.541,1.642 84.133,4.545C77.127,8.87 68.372,13.227 58.03,17.616C62.182,19.559 66.572,21.509 71.19,23.464C67.123,24.695 62.894,25.927 58.508,27.162C54.489,25.484 50.643,23.81 46.979,22.14C33.925,27.18 18.867,32.26 2.048,37.375C1.887,37.855 1.728,38.335 1.569,38.815L-14.979,38.815C-10.948,30.043 -6.609,21.377 -1.965,12.832L10.948,12.832ZM31.388,-32.451C30.373,-30.483 29.371,-28.506 28.383,-26.521C34.332,-21.482 44.369,-16.387 58.088,-11.239C55.512,-9.483 52.616,-7.721 49.409,-5.952C38.882,-9.428 30.184,-12.881 23.453,-16.309C22.96,-15.257 22.471,-14.202 21.985,-13.144L13.349,-13.144C17.507,-19.669 21.856,-26.107 26.395,-32.451L31.388,-32.451Z" style="fill:none;fill-rule:nonzero;stroke:rgb(242,13,13);stroke-width:0.5px;"/>
        </g>
        <g transform="matrix(2.55135e-16,-4.16667,4.16667,2.55135e-16,5660.81,2644.27)">
            <path d="M0,-118.864C-4.186,-118.26 -8.36,-117.617 -12.521,-116.935C-9.956,-79.721 -7.386,-41.573 -4.811,-2.588C-0.635,-1.835 3.554,-1.129 7.754,-0.469L7.754,23.376C-12.67,18.988 -32.837,13.093 -52.569,5.693L-52.569,-13.398C-48.567,-12.301 -44.547,-11.249 -40.511,-10.242C-43.146,-51.472 -45.774,-91.268 -48.394,-129.505C-32.504,-134.609 -16.342,-138.854 0,-142.24L0,-118.864ZM-72.095,-70.592C-66.897,-86.169 -61.664,-103.381 -56.399,-121.992C-55.346,-107.114 -54.291,-91.966 -53.236,-76.555C-61.68,-51.571 -70.045,-29.847 -78.315,-12.241C-80.764,-13.214 -83.204,-14.207 -85.635,-15.222C-97.145,-48.424 -108.462,-73.937 -119.549,-89.327C-127.512,-86.432 -135.356,-83.364 -143.067,-80.124L-143.067,-86.584C-125.73,-97.05 -107.719,-106.265 -89.196,-114.23C-83.542,-101.897 -77.84,-87.245 -72.095,-70.592ZM-117.986,-72.086C-119.654,-59.943 -121.318,-48.677 -122.976,-38.321C-119.141,-36.629 -115.278,-34.985 -111.388,-33.389L-111.388,-21.647C-124.898,-29.228 -138.085,-37.6 -150.883,-46.761L-150.883,-51.752C-147.248,-49.85 -143.581,-47.993 -139.885,-46.184C-137.252,-55.476 -134.603,-66.93 -131.941,-80.426C-129.585,-81.149 -127.218,-81.859 -124.84,-82.558C-122.565,-79.504 -120.28,-76.007 -117.986,-72.086Z" style="fill:none;fill-rule:nonzero;stroke:rgb(242,13,13);stroke-width:0.5px;"/>
        </g>
        <g transform="matrix(2.55135e-16,-4.16667,4.16667,2.55135e-16,5686.74,2316.12)">
            <path d="M0,-131.793C-4.274,-131.675 -8.545,-131.517 -12.812,-131.321L-12.812,-0.562C-8.545,-0.328 -4.274,-0.141 0,-0.001L0,26.304C-20.841,25.367 -41.628,22.916 -62.18,18.95L-62.18,-5.378C-57.966,-4.783 -53.742,-4.235 -49.509,-3.733L-49.509,-128.651C-53.742,-128.228 -57.966,-127.767 -62.18,-127.266L-62.18,-151.594C-41.628,-155.102 -20.841,-157.269 0,-158.097L0,-131.793Z" style="fill:none;fill-rule:nonzero;stroke:rgb(242,13,13);stroke-width:0.5px;"/>
        </g>
        <g transform="matrix(2.55135e-16,-4.16667,4.16667,2.55135e-16,5638.55,1704.52)">
            <path d="M0,-108.601C-4.686,-109.498 -9.392,-110.343 -14.116,-111.139L-14.116,-52.837C-20.377,-61.55 -26.669,-70.823 -32.987,-80.517L-32.987,-114.033C-37.754,-114.694 -42.535,-115.304 -47.33,-115.864L-47.33,-140.263C-31.387,-137.59 -15.583,-134.112 0,-129.829L0,-108.601ZM-101.102,-74.922L-101.102,11.292C-96.246,11.075 -91.394,10.797 -86.549,10.459L-86.549,36.357C-102.661,37.894 -118.843,38.521 -135.013,38.237L-135.013,11.834C-130.15,11.896 -125.286,11.898 -120.424,11.84L-120.424,-107.254C-120.189,-107.252 -119.955,-107.25 -119.721,-107.248C-113.511,-96.457 -107.303,-85.637 -101.102,-74.922ZM-14.116,-36.311L-14.116,23.106C-17.702,24.086 -21.298,25.019 -24.903,25.905C-54.717,-13.027 -85.162,-67.036 -115.679,-120.395C-122.122,-120.504 -128.568,-120.523 -135.013,-120.453L-135.013,-146.857C-117.906,-147.122 -100.785,-146.486 -83.748,-144.949C-60.292,-105.388 -36.996,-66.916 -14.116,-36.311Z" style="fill:none;fill-rule:nonzero;stroke:rgb(242,13,13);stroke-width:0.5px;"/>
        </g>
        <g transform="matrix(2.55135e-16,-4.16667,4.16667,2.55135e-16,5380.69,1198.21)">
            <path d="M0,-4.24C-4.98,-5.419 -10.018,-6.558 -15.112,-7.657L-15.112,-15.504C-19.798,-17.346 -24.531,-19.127 -29.307,-20.847L-29.307,-31.004C-24.531,-28.516 -19.798,-25.939 -15.112,-23.275L-15.112,-27.004C-10.018,-23.678 -4.98,-20.233 0,-16.668L0,-4.24ZM-37.132,32.864C-33.305,31.27 -29.505,29.63 -25.733,27.943L-25.733,37.517C-44.13,48.768 -63.19,58.504 -82.734,66.726L-82.734,49.3C-78.726,48.067 -74.739,46.788 -70.774,45.463L-70.774,-50.149C-59.366,-45.592 -48.14,-40.574 -37.132,-35.096L-37.132,32.864ZM-86.528,-55.934C-83.995,-55.031 -81.469,-54.105 -78.952,-53.158L-78.952,-36.162C-83.056,-37.23 -87.182,-38.258 -91.329,-39.244C-93.098,-33.482 -94.871,-27.523 -96.647,-21.376C-102.643,-22.13 -108.679,-22.836 -114.75,-23.497C-110.928,-40.218 -107.119,-56.078 -103.326,-70.966C-97.022,-68.692 -90.76,-66.264 -84.547,-63.684C-85.207,-61.138 -85.867,-58.554 -86.528,-55.934Z" style="fill:none;fill-rule:nonzero;stroke:rgb(242,13,13);stroke-width:0.5px;"/>
        </g>
    </g>
    <g transform="matrix(2.55135e-16,-4.16667,4.16667,2.55135e-16,49.2199,3447.52)">
        <path d="M0,0L813.543,0" style="fill:none;fill-rule:nonzero;stroke:rgb(29,29,27);stroke-width:0.5px;"/>
    </g>
    <g transform="matrix(2.55135e-16,-4.16667,4.16667,2.55135e-16,1017.72,3447.52)">
        <path d="M0,0L581.102,0" style="fill:none;fill-rule:nonzero;stroke:rgb(29,29,27);stroke-width:0.5px;"/>
    </g>
    <g transform="matrix(2.55135e-16,-4.16667,4.16667,2.55135e-16,4891.74,3447.52)">
        <path d="M0,0L813.543,0" style="fill:none;fill-rule:nonzero;stroke:rgb(29,29,27);stroke-width:0.5px;"/>
    </g>
    <g transform="matrix(2.55135e-16,-4.16667,4.16667,2.55135e-16,3923.24,3447.52)">
        <path d="M0,0L581.102,0" style="fill:none;fill-rule:nonzero;stroke:rgb(29,29,27);stroke-width:0.5px;"/>
    </g>
    <g transform="matrix(2.55135e-16,-4.16667,4.16667,2.55135e-16,2954.73,3447.52)">
        <path d="M0,0L581.102,0" style="fill:none;fill-rule:nonzero;stroke:rgb(29,29,27);stroke-width:0.5px;"/>
    </g>
    <g transform="matrix(2.55135e-16,-4.16667,4.16667,2.55135e-16,1986.23,3447.52)">
        <path d="M0,0L581.102,0" style="fill:none;fill-rule:nonzero;stroke:rgb(29,29,27);stroke-width:0.5px;"/>
    </g>
    <g transform="matrix(4.16667,2.55135e-16,2.55135e-16,-4.16667,2470.48,-2363.5)">
        <path d="M-581.103,-581.103L581.103,-581.103" style="fill:none;fill-rule:nonzero;stroke:rgb(29,29,27);stroke-width:0.5px;"/>
    </g>
    <g transform="matrix(2.55135e-16,-4.16667,4.16667,2.55135e-16,2470.48,1026.26)">
        <path d="M0,0L232.441,0" style="fill:none;fill-rule:nonzero;stroke:rgb(29,29,27);stroke-width:0.5px;"/>
    </g>
    <g transform="matrix(4.99995,2.55135e-16,3.06159e-16,-4.16667,2954.85,-1394.76)">
        <path d="M-581.103,-581.103L581.103,-581.103" style="fill:none;fill-rule:nonzero;stroke:rgb(29,29,27);stroke-width:0.45px;"/>
    </g>
    <g transform="matrix(2.55135e-16,-4.16667,4.16667,2.55135e-16,5860.28,3447.8)">
        <path d="M0,0L581.102,0" style="fill:none;fill-rule:nonzero;stroke:rgb(29,29,27);stroke-width:0.5px;"/>
    </g>
</svg>
