<?xml version="1.0" encoding="UTF-8" standalone="no"?>
<!DOCTYPE svg PUBLIC "-//W3C//DTD SVG 1.1//EN" "http://www.w3.org/Graphics/SVG/1.1/DTD/svg11.dtd">
<svg width="100%" height="100%" viewBox="0 0 5906 3544" version="1.1" xmlns="http://www.w3.org/2000/svg" xmlns:xlink="http://www.w3.org/1999/xlink" xml:space="preserve" xmlns:serif="http://www.serif.com/" style="fill-rule:evenodd;clip-rule:evenodd;stroke-miterlimit:10;">
    <g transform="matrix(4.99995,2.55135e-16,3.06159e-16,-4.16667,2954.85,1026.5)">
        <path d="M-581.103,-581.103L581.103,-581.103" style="fill:none;fill-rule:nonzero;stroke:rgb(29,29,27);stroke-width:0.45px;"/>
    </g>
    <g transform="matrix(2.55135e-16,-4.16667,4.16667,2.55135e-16,49.1706,3447.36)">
        <path d="M0,0L813.543,0" style="fill:none;fill-rule:nonzero;stroke:rgb(29,29,27);stroke-width:0.5px;"/>
    </g>
    <g transform="matrix(2.55135e-16,-4.16667,4.16667,2.55135e-16,1017.67,3447.36)">
        <path d="M0,0L581.102,0" style="fill:none;fill-rule:nonzero;stroke:rgb(29,29,27);stroke-width:0.5px;"/>
    </g>
    <g transform="matrix(2.55135e-16,-4.16667,4.16667,2.55135e-16,4891.69,3447.36)">
        <path d="M0,0L813.543,0" style="fill:none;fill-rule:nonzero;stroke:rgb(29,29,27);stroke-width:0.5px;"/>
    </g>
    <g transform="matrix(2.55135e-16,-4.16667,4.16667,2.55135e-16,3923.19,3447.36)">
        <path d="M0,0L581.102,0" style="fill:none;fill-rule:nonzero;stroke:rgb(29,29,27);stroke-width:0.5px;"/>
    </g>
    <g transform="matrix(2.55135e-16,-4.16667,4.16667,2.55135e-16,2954.68,3447.36)">
        <path d="M0,0L581.102,0" style="fill:none;fill-rule:nonzero;stroke:rgb(29,29,27);stroke-width:0.5px;"/>
    </g>
    <g transform="matrix(2.55135e-16,-4.16667,4.16667,2.55135e-16,1986.18,3447.36)">
        <path d="M0,0L581.102,0" style="fill:none;fill-rule:nonzero;stroke:rgb(29,29,27);stroke-width:0.5px;"/>
    </g>
    <g transform="matrix(2.55135e-16,-4.16667,4.16667,2.55135e-16,2513.39,3010.99)">
        <path d="M0,-30.254C-3.281,-29.72 -6.548,-29.172 -9.798,-28.608L-9.798,-42.968C-12.788,-42.053 -15.764,-41.116 -18.726,-40.156L-18.726,-53.166C-15.764,-54.538 -12.788,-55.877 -9.798,-57.185L-9.798,-64.009C-6.548,-65.635 -3.281,-67.218 0,-68.757L0,-30.254ZM-23.543,22.589C-21.205,23.47 -18.858,24.335 -16.502,25.185L-16.502,38.503C-27.992,32.787 -39.271,26.548 -50.3,19.787L-50.3,11.625C-48.039,12.63 -45.767,13.618 -43.484,14.591L-43.484,-40.863C-36.919,-44.418 -30.269,-47.805 -23.543,-51.025L-23.543,22.589ZM-52.435,-35.806C-51.014,-36.616 -49.589,-37.417 -48.16,-38.211L-48.16,-29.691C-50.49,-28.786 -52.809,-27.865 -55.117,-26.93C-56.102,-24.061 -57.085,-21.363 -58.065,-18.838C-61.375,-18.065 -64.661,-17.274 -67.922,-16.465C-65.868,-21.142 -63.805,-26.772 -61.733,-33.315C-58.289,-35.69 -54.818,-38.009 -51.322,-40.273C-51.693,-38.754 -52.064,-37.265 -52.435,-35.806Z" style="fill:none;fill-rule:nonzero;stroke:rgb(242,13,13);stroke-width:0.5px;"/>
    </g>
    <g transform="matrix(2.55135e-16,-4.16667,4.16667,2.55135e-16,2798.73,2801.59)">
        <path d="M0,-151.711C22.118,-157.188 39.445,-125.562 39.428,-76.21C39.443,-26.844 21.808,5.477 0,0.23L0,-22.718C10.445,-23.207 16.773,-42.695 16.768,-75.467C16.773,-108.248 10.343,-128.251 0,-128.766L0,-151.711ZM-5.11,-127.884C-16.124,-122.936 -22.346,-104.377 -22.352,-76.092C-22.347,-48.948 -15.718,-29.024 -5.11,-23.71L-5.11,-1.258C-27.063,-11.871 -43.93,-44.123 -43.935,-76.375C-43.929,-108.34 -27.266,-139.767 -5.11,-150.134L-5.11,-127.884Z" style="fill:none;fill-rule:nonzero;stroke:rgb(242,13,13);stroke-width:0.5px;"/>
    </g>
    <g transform="matrix(2.55135e-16,-4.16667,4.16667,2.55135e-16,2760.02,2206.1)">
        <path d="M0,-131.444C-2.592,-131.475 -5.185,-131.492 -7.778,-131.495C-6.18,-87.668 -4.581,-43.84 -2.983,-0.043C-0.391,-0.066 2.202,-0.104 4.794,-0.158L4.794,26.033C-7.81,26.397 -20.428,26.242 -33.021,25.567L-33.021,-0.496C-30.467,-0.397 -27.912,-0.313 -25.356,-0.245C-27.024,-52.691 -28.692,-105.042 -30.36,-157.252C-20.248,-157.702 -10.121,-157.841 0,-157.667L0,-131.444ZM-45.568,-79.369C-42.204,-102.817 -38.837,-126.466 -35.468,-150.232C-34.794,-129.1 -34.12,-107.941 -33.446,-86.756C-38.838,-53.176 -44.225,-19.891 -49.604,12.795C-51.197,12.67 -52.789,12.537 -54.38,12.397C-61.911,-35.728 -69.426,-82.854 -76.915,-128.125C-82.295,-127.591 -87.662,-126.995 -93.013,-126.335L-93.013,-150.411C-80.982,-152.518 -68.871,-154.171 -56.713,-155.369C-53.002,-130.363 -49.287,-104.992 -45.568,-79.369ZM-75.861,-86.944C-76.986,-59.139 -78.111,-31.487 -79.236,-4.001C-76.636,-3.707 -74.032,-3.428 -71.426,-3.166L-71.426,21.881C-80.477,20.625 -89.494,19.098 -98.464,17.298L-98.464,-6.487C-95.916,-6.117 -93.365,-5.762 -90.81,-5.424C-88.989,-41.545 -87.167,-78.088 -85.344,-115.011C-83.731,-115.153 -82.116,-115.291 -80.5,-115.425C-78.955,-106.011 -77.408,-96.515 -75.861,-86.944Z" style="fill:none;fill-rule:nonzero;stroke:rgb(242,13,13);stroke-width:0.5px;"/>
    </g>
    <g transform="matrix(2.55135e-16,-4.16667,4.16667,2.55135e-16,2249.37,1849.83)">
        <path d="M0,115.48C2.509,115.098 5.014,114.701 7.515,114.289L7.515,137.397C-5.614,140.387 -18.859,142.787 -32.176,144.599L-32.176,119.506C-29.393,119.232 -26.613,118.939 -23.836,118.628C-31.603,69.903 -39.398,19.04 -47.211,-32.961C-39.646,-32.239 -32.097,-31.341 -24.574,-30.268C-16.349,20.565 -8.154,69.522 0,115.48ZM-42.971,31.113C-44.984,43.279 -46.999,55.538 -49.014,67.873C-45.124,67.814 -41.238,67.747 -37.358,67.673C-36.018,76.494 -34.678,85.266 -33.339,93.983C-39.999,94.377 -46.677,94.706 -53.366,94.97C-54.782,103.779 -56.198,112.622 -57.615,121.49C-54.286,121.299 -50.959,121.081 -47.636,120.836L-47.636,146.435C-57.182,147.404 -66.755,148.073 -76.339,148.441L-76.339,122.29C-74.138,122.228 -71.938,122.156 -69.738,122.071C-62.218,81.554 -54.706,41.41 -47.211,2.347C-45.797,11.979 -44.384,21.569 -42.971,31.113Z" style="fill:none;fill-rule:nonzero;stroke:rgb(242,13,13);stroke-width:0.5px;"/>
    </g>
    <g transform="matrix(2.55135e-16,-4.16667,4.16667,2.55135e-16,2537.29,1538.7)">
        <path d="M0,-38.468C-3.328,-38.953 -6.671,-39.423 -10.026,-39.878L-10.026,-58.47C-13.113,-59.209 -16.211,-59.925 -19.319,-60.618L-19.319,-79.947C-16.211,-78.956 -13.113,-77.933 -10.026,-76.877L-10.026,-85.713C-6.671,-84.401 -3.328,-83.045 0,-81.646L0,-38.468ZM-24.395,36.512C-21.92,35.913 -19.451,35.298 -16.989,34.667L-16.989,53.773C-28.996,58.021 -41.16,61.746 -53.442,64.949L-53.442,42.764C-50.923,42.288 -48.41,41.796 -45.902,41.289L-45.902,-87.801C-38.686,-85.945 -31.515,-83.923 -24.395,-81.733L-24.395,36.512ZM-55.824,-90.018C-54.235,-89.646 -52.648,-89.266 -51.063,-88.878L-51.063,-66.868C-53.647,-67.31 -56.237,-67.738 -58.831,-68.15C-59.938,-60.731 -61.046,-53.232 -62.155,-45.657C-65.897,-45.984 -69.649,-46.292 -73.411,-46.584C-71.042,-65.894 -68.678,-84.851 -66.317,-103.417C-62.394,-102.471 -58.481,-101.469 -54.58,-100.412C-54.995,-96.962 -55.409,-93.497 -55.824,-90.018Z" style="fill:none;fill-rule:nonzero;stroke:rgb(242,13,13);stroke-width:0.5px;"/>
    </g>
    <g transform="matrix(2.55135e-16,-4.16667,4.16667,2.55135e-16,2650.97,1335.43)">
        <path d="M0,-81.841C10.274,-75.712 19.118,-66.628 25.393,-59.695C31.669,-52.465 35.377,-47.386 35.385,-42.405C35.377,-37.43 31.602,-32.156 25.29,-24.579C18.979,-17.304 10.132,-7.726 0,-1.128L0,-13.319C9.691,-19.385 15.341,-29.591 15.348,-41.747C15.341,-53.887 9.598,-64.08 0,-69.652L0,-81.841ZM-4.767,-71.508C-15.1,-74.354 -21.178,-63.116 -21.168,-41.18C-21.176,-20.055 -14.716,-8.293 -4.767,-11.285L-4.767,1.695C-25.323,13.792 -42.431,-4.638 -42.41,-40.865C-42.432,-76.722 -25.516,-95.633 -4.767,-84.371L-4.767,-71.508Z" style="fill:none;fill-rule:nonzero;stroke:rgb(242,13,13);stroke-width:0.5px;"/>
    </g>
    <g transform="matrix(2.55135e-16,-4.16667,4.16667,2.55135e-16,3592.18,3179.87)">
        <path d="M0,-68.565C14.182,-76.58 21.022,-72.45 20.999,-57.008C21.003,-47.514 17.254,-40.729 10.277,-38.196C19.453,-35.91 24.106,-27.657 24.097,-14.633C24.125,2.885 15.808,8.015 -0.078,-1.697C-0.567,-1.983 -1.057,-2.269 -1.546,-2.556L-1.546,-11.852C-1.443,-11.808 -1.34,-11.765 -1.237,-11.721C5.022,-8.942 8.481,-11.62 8.477,-19.129C8.481,-26.87 4.945,-31.262 -1.314,-31.634C-1.391,-31.641 -1.469,-31.647 -1.546,-31.653L-1.546,-40.299C-1.52,-40.301 -1.494,-40.303 -1.468,-40.305C3.553,-40.948 5.748,-44.802 5.745,-51.455C5.748,-57.364 3.631,-60.211 -1.468,-58.457C-1.494,-58.447 -1.52,-58.437 -1.546,-58.427L-1.546,-67.723C-1.031,-68.005 -0.516,-68.285 0,-68.565ZM-5.396,-4.845C-12.437,-9.079 -19.377,-13.525 -26.208,-18.184L-26.208,-23.174C-24.395,-22.278 -22.574,-21.393 -20.745,-20.519L-20.745,-50.581C-22.574,-49.789 -24.395,-48.988 -26.208,-48.177L-26.208,-53.167C-19.377,-57.506 -12.437,-61.648 -5.396,-65.592L-5.396,-4.845Z" style="fill:none;fill-rule:nonzero;stroke:rgb(242,13,13);stroke-width:0.5px;"/>
    </g>
    <g transform="matrix(2.55135e-16,-4.16667,4.16667,2.55135e-16,3171.27,2861.59)">
        <path d="M0,134.466C-6.809,132.094 -13.569,129.553 -20.271,126.844L-20.271,109.728C-15.621,111.09 -10.943,112.393 -6.24,113.637C-5.216,107.954 -4.191,102.17 -3.165,96.286C0.051,96.814 3.279,97.325 6.518,97.818C4.34,110.441 2.168,122.666 0,134.466ZM-6.737,86.974C-9.503,86.639 -12.26,86.295 -15.007,85.941L-15.007,73.557C-16.766,73.463 -18.52,73.367 -20.271,73.269L-20.271,55.636C-18.52,55.533 -16.766,55.431 -15.007,55.331L-15.007,42.947C-12.26,42.584 -9.503,42.231 -6.737,41.887L-6.737,86.974ZM-0.75,33.693C-3.528,34.128 -6.298,34.575 -9.058,35.035L-9.058,21.114C-12.813,22.033 -16.551,22.985 -20.271,23.971L-20.271,6.855C-13.815,4.425 -7.306,2.139 -0.75,0L-0.75,33.693ZM-24.367,125.164C-32.082,121.956 -39.719,118.522 -47.267,114.863L-47.267,101.048C-45.32,101.732 -43.368,102.405 -41.409,103.067L-41.409,30.002C-43.368,30.602 -45.32,31.211 -47.267,31.83L-47.267,18.015C-39.719,14.607 -32.082,11.409 -24.367,8.42L-24.367,125.164Z" style="fill:none;fill-rule:nonzero;stroke:rgb(242,13,13);stroke-width:0.5px;"/>
    </g>
    <g transform="matrix(2.55135e-16,-4.16667,4.16667,2.55135e-16,3109.33,2621.19)">
        <path d="M0,165.191C-7.032,163.754 -14.033,162.148 -20.997,160.374L-20.997,138.116C-16.165,139.008 -11.315,139.841 -6.449,140.615C-5.39,133.356 -4.33,126.032 -3.27,118.647C0.055,118.972 3.386,119.279 6.724,119.568C4.48,135.022 2.238,150.238 0,165.191ZM-6.964,107.389C-9.826,107.18 -12.682,106.962 -15.532,106.734L-15.532,90.891C-17.356,90.831 -19.178,90.769 -20.997,90.705L-20.997,67.775C-19.178,67.707 -17.356,67.641 -15.532,67.576L-15.532,51.734C-12.682,51.5 -9.826,51.277 -6.964,51.062L-6.964,107.389ZM-0.775,41.433C-3.644,41.698 -6.508,41.974 -9.367,42.264L-9.367,24.761C-13.254,25.339 -17.131,25.951 -20.997,26.597L-20.997,4.339C-14.289,2.747 -7.546,1.301 -0.775,0L-0.775,41.433ZM-25.256,159.267C-33.282,157.139 -41.257,154.785 -49.169,152.207L-49.169,132.199C-47.128,132.681 -45.083,133.152 -43.034,133.612L-43.034,30.675C-45.083,31.091 -47.128,31.518 -49.169,31.954L-49.169,11.946C-41.257,9.545 -33.282,7.352 -25.256,5.37L-25.256,159.267Z" style="fill:none;fill-rule:nonzero;stroke:rgb(242,13,13);stroke-width:0.5px;"/>
    </g>
    <g transform="matrix(2.55135e-16,-4.16667,4.16667,2.55135e-16,3559.8,2343.25)">
        <path d="M0,-62.785C-2.919,-62.728 -5.836,-62.661 -8.752,-62.584L-8.752,-88.625C-11.435,-88.5 -14.116,-88.359 -16.795,-88.204L-16.795,-113.815C-14.116,-114.037 -11.435,-114.238 -8.752,-114.417L-8.752,-126.794C-5.836,-127.017 -2.919,-127.21 0,-127.374L0,-62.785ZM-21.161,38.503C-19.037,38.657 -16.911,38.801 -14.785,38.934L-14.785,64.589C-25.155,63.695 -35.498,62.447 -45.792,60.842L-45.792,36.219C-43.681,36.458 -41.568,36.685 -39.454,36.902L-39.454,-111.649C-33.37,-112.441 -27.271,-113.119 -21.161,-113.684L-21.161,38.503ZM-47.787,-110.25C-46.457,-110.445 -45.127,-110.636 -43.796,-110.82L-43.796,-86.109C-45.966,-85.898 -48.134,-85.677 -50.3,-85.446C-51.224,-77.126 -52.147,-68.847 -53.07,-60.611C-56.186,-60.416 -59.296,-60.208 -62.401,-59.989C-60.446,-79.899 -58.489,-100.065 -56.53,-120.461C-53.274,-121.078 -50.013,-121.658 -46.746,-122.2C-47.093,-118.21 -47.44,-114.226 -47.787,-110.25Z" style="fill:none;fill-rule:nonzero;stroke:rgb(242,13,13);stroke-width:0.5px;"/>
    </g>
    <g transform="matrix(2.55135e-16,-4.16667,4.16667,2.55135e-16,3838.84,2173.45)">
        <path d="M0,-183.52C17.701,-182.789 26.861,-163.828 26.863,-131.028C26.862,-108.57 22.586,-94.295 15.062,-86.992C19.086,-50.055 26.346,-19.861 34.715,-9.903C34.396,-6.492 34.076,-3.078 33.756,0.34C15.96,-1.113 4.99,-28.868 -1.753,-69.977C-1.782,-70.238 -1.811,-70.498 -1.84,-70.758L-1.84,-99.939L-1.753,-99.939C5.171,-100.982 8.059,-110.827 8.059,-128.713C8.059,-145.814 4.732,-156.588 -1.753,-157.522C-1.782,-157.523 -1.811,-157.523 -1.84,-157.524L-1.84,-183.578C-1.227,-183.56 -0.613,-183.54 0,-183.52ZM-6.223,-26.899C-4.265,-26.93 -2.307,-26.971 -0.35,-27.021L-0.35,-0.98C-10.574,-0.621 -20.808,-0.605 -31.033,-0.933L-31.033,-26.987C-28.9,-26.937 -26.767,-26.899 -24.634,-26.871L-24.634,-157.627C-26.767,-157.602 -28.9,-157.567 -31.033,-157.522L-31.033,-183.575C-22.766,-183.823 -14.492,-183.86 -6.223,-183.689L-6.223,-26.899Z" style="fill:none;fill-rule:nonzero;stroke:rgb(242,13,13);stroke-width:0.5px;"/>
    </g>
    <g transform="matrix(2.55135e-16,-4.16667,4.16667,2.55135e-16,3819.64,1872.34)">
        <path d="M0,-175.105C18.623,-168.393 32.594,-132.757 32.596,-88.958C32.595,-45.175 18.366,-8.398 0,-0.767L0,-27.093C8.79,-32.11 14.005,-54.226 14.007,-87.924C14.005,-121.621 8.704,-144.123 0,-148.779L0,-175.105ZM-4.313,-149.576C-13.639,-148.246 -19.029,-126.002 -19.026,-87.945C-19.028,-51.352 -13.292,-27.726 -4.313,-26.233L-4.313,0.349C-22.877,2.308 -37.823,-34.587 -37.816,-87.862C-37.823,-140.618 -23.05,-177.413 -4.313,-175.922L-4.313,-149.576Z" style="fill:none;fill-rule:nonzero;stroke:rgb(242,13,13);stroke-width:0.5px;"/>
    </g>
    <g transform="matrix(2.55135e-16,-4.16667,4.16667,2.55135e-16,3725.37,1560.75)">
        <path d="M0,-131.204C17.818,-121.436 30.981,-94.638 30.988,-67.008C30.982,-39.406 17.573,-11.6 0,-0.909L0,-20.585C8.408,-25.951 13.361,-42.445 13.365,-66.162C13.361,-89.872 8.326,-106.574 0,-111.528L0,-131.204ZM-4.129,-112.77C-13.067,-113.293 -18.272,-96.279 -18.267,-65.928C-18.271,-36.727 -12.735,-18.735 -4.129,-19.231L-4.129,0.928C-21.915,7.303 -36.442,-20.688 -36.431,-65.739C-36.443,-110.341 -22.083,-138.507 -4.129,-132.75L-4.129,-112.77Z" style="fill:none;fill-rule:nonzero;stroke:rgb(242,13,13);stroke-width:0.5px;"/>
    </g>
    <g transform="matrix(2.55135e-16,-4.16667,4.16667,2.55135e-16,3437.36,1194.42)">
        <path d="M0,-5.731C-2.484,-6.348 -4.983,-6.954 -7.496,-7.55L-7.496,-13.98C-9.807,-14.948 -12.13,-15.9 -14.464,-16.837L-14.464,-24.432C-12.13,-23.093 -9.807,-21.732 -7.496,-20.349L-7.496,-23.405C-4.983,-21.685 -2.484,-19.936 0,-18.157L0,-5.731ZM-18.281,22.535C-16.419,21.711 -14.564,20.876 -12.716,20.03L-12.716,27.321C-21.728,33.014 -30.915,38.351 -40.254,43.333L-40.254,31.631C-38.339,30.891 -36.431,30.14 -34.529,29.378L-34.529,-35.371C-29.057,-32.587 -23.64,-29.689 -18.281,-26.677L-18.281,22.535ZM-42.066,-39C-40.857,-38.414 -39.65,-37.824 -38.446,-37.227L-38.446,-25.79C-40.409,-26.47 -42.379,-27.14 -44.356,-27.8C-45.2,-23.942 -46.044,-19.96 -46.89,-15.857C-49.744,-16.389 -52.612,-16.908 -55.493,-17.416C-53.679,-28.581 -51.87,-39.139 -50.067,-49.064C-47.07,-47.486 -44.087,-45.871 -41.12,-44.218C-41.435,-42.501 -41.751,-40.761 -42.066,-39Z" style="fill:none;fill-rule:nonzero;stroke:rgb(242,13,13);stroke-width:0.5px;"/>
    </g>
    <g transform="matrix(4.16667,2.55135e-16,2.55135e-16,-4.16667,2470.43,-2363.67)">
        <path d="M-581.103,-581.103L581.103,-581.103" style="fill:none;fill-rule:nonzero;stroke:rgb(29,29,27);stroke-width:0.5px;"/>
    </g>
    <g transform="matrix(2.55135e-16,-4.16667,4.16667,2.55135e-16,2470.43,1026.1)">
        <path d="M0,0L232.441,0" style="fill:none;fill-rule:nonzero;stroke:rgb(29,29,27);stroke-width:0.5px;"/>
    </g>
    <g transform="matrix(2.55135e-16,-4.16667,4.16667,2.55135e-16,4568.19,431.473)">
        <path d="M0,10.455C1.234,7.491 2.44,4.509 3.62,1.512L14.888,1.512C7.96,14.259 0.366,26.716 -7.895,38.828L-12.886,38.828C-11.705,36.438 -10.543,34.035 -9.399,31.619L-41.044,31.619C-40.009,34.035 -38.957,36.439 -37.888,38.828L-42.879,38.828C-48.764,29.564 -54.285,20.098 -59.444,10.455L0,10.455ZM-63.046,3.577C-74.059,-16.669 -66.945,-28.366 -45.648,-28.327C-22.618,-28.373 -12.334,-17.295 -15.962,3.783C-16.034,4.299 -16.106,4.814 -16.179,5.328L-26.976,5.328C-26.976,5.293 -26.977,5.259 -26.977,5.225C-27.468,-1.673 -32.79,-5.861 -41.571,-5.857C-50.231,-5.861 -53.896,-1.568 -51.492,5.225C-51.48,5.259 -51.467,5.293 -51.455,5.328L-62.144,5.328C-62.446,4.745 -62.747,4.161 -63.046,3.577Z" style="fill:none;fill-rule:nonzero;stroke:rgb(242,13,13);stroke-width:0.5px;"/>
    </g>
    <g transform="matrix(2.55135e-16,-4.16667,4.16667,2.55135e-16,4221.59,748.314)">
        <path d="M0,6.3C5.136,18.268 23.885,25.02 52.265,25.026C79.504,25.021 99.636,17.828 105.157,6.3L127.819,6.3C116.634,30.157 83.831,48.438 51.959,48.442C20.375,48.436 -11.549,30.376 -22.461,6.3L0,6.3ZM-24.129,0.747C-29.976,-23.292 2.184,-42.142 52.164,-42.123C102.162,-42.14 135.034,-22.956 129.399,0.747L106.215,0.747C105.833,-10.604 86.107,-17.487 52.92,-17.481C19.718,-17.486 -0.526,-10.493 -0.945,0.747L-24.129,0.747Z" style="fill:none;fill-rule:nonzero;stroke:rgb(242,13,13);stroke-width:0.5px;"/>
    </g>
    <g transform="matrix(2.55135e-16,-4.16667,4.16667,2.55135e-16,3921.14,256.619)">
        <path d="M0,-26.514C0.138,-29.32 0.257,-32.128 0.358,-34.937L26.342,-34.937C25.666,-21.239 24.373,-7.569 22.462,6.024L-2.454,6.024C-2.17,3.237 -1.905,0.446 -1.658,-2.348C-51.844,-2.347 -102.029,-2.347 -152.215,-2.348C-153.115,-10.383 -153.817,-18.442 -154.321,-26.514L0,-26.514ZM-150.612,8.658C-150.848,6.903 -151.074,5.146 -151.291,3.389L-126.271,3.389C-126.023,6.254 -125.758,9.117 -125.475,11.975C-117.049,13.195 -108.671,14.414 -100.347,15.632C-100.104,19.744 -99.84,23.848 -99.556,27.942C-119.585,25.365 -139.943,22.783 -160.585,20.198C-161.365,15.902 -162.08,11.597 -162.729,7.284C-158.682,7.742 -154.643,8.2 -150.612,8.658ZM-102.487,-54.456C-102.478,-50.605 -102.451,-46.753 -102.406,-42.903L-128.737,-42.903C-128.665,-39.361 -128.566,-35.821 -128.44,-32.282L-154.392,-32.282C-154.571,-35.821 -154.713,-39.361 -154.816,-42.903L-167.331,-42.903C-167.46,-46.753 -167.537,-50.605 -167.564,-54.456L-102.487,-54.456Z" style="fill:none;fill-rule:nonzero;stroke:rgb(242,13,13);stroke-width:0.5px;"/>
    </g>
    <g transform="matrix(2.55135e-16,-4.16667,4.16667,2.55135e-16,3471.77,634.624)">
        <path d="M0,18.754C12.365,20.945 24.794,23.136 37.269,25.329C37.233,21.097 37.188,16.869 37.134,12.645C46.112,11.186 55.054,9.728 63.954,8.27C64.252,15.522 64.473,22.788 64.617,30.061C73.493,31.6 82.385,33.14 91.286,34.68C91.195,31.061 91.074,27.444 90.921,23.829L116.846,23.829C117.451,34.213 117.701,44.615 117.596,55.014L91.464,55.014C91.482,52.627 91.486,50.238 91.476,47.851C51.106,39.685 10.635,31.521 -29.099,23.368C-19.373,21.829 -9.671,20.291 0,18.754ZM86.557,-28.064C86.211,-30.8 85.846,-33.532 85.463,-36.26L109.312,-36.26C112.088,-21.938 114.169,-7.497 115.553,7.004L89.985,7.004C89.775,3.973 89.544,0.945 89.29,-2.08C39.304,6.382 -12.475,14.869 -64.868,23.368C-64.414,15.138 -63.751,6.92 -62.882,-1.275C-11.184,-10.237 39.07,-19.171 86.557,-28.064Z" style="fill:none;fill-rule:nonzero;stroke:rgb(242,13,13);stroke-width:0.5px;"/>
    </g>
    <g transform="matrix(2.55135e-16,-4.16667,4.16667,2.55135e-16,3238.19,313.729)">
        <path d="M0,-26.866C-0.602,-29.568 -1.223,-32.263 -1.863,-34.951L18.064,-34.951C22.372,-21.843 26.062,-8.562 29.134,4.842L6.157,4.842C5.7,2.094 5.225,-0.65 4.731,-3.388L-129.213,-3.388C-127.408,-11.264 -125.404,-19.093 -123.203,-26.866L0,-26.866ZM-131.337,7.442C-130.982,5.708 -130.618,3.976 -130.244,2.246L-107.428,2.246C-107.855,5.066 -108.263,7.892 -108.655,10.724C-100.965,11.931 -93.201,13.14 -85.365,14.35C-85.672,18.434 -85.958,22.527 -86.224,26.63C-106.142,24.047 -125.737,21.467 -144.961,18.892C-144.08,14.611 -143.135,10.342 -142.123,6.085C-138.542,6.537 -134.947,6.989 -131.337,7.442ZM-78.2,-53.496C-78.7,-49.863 -79.182,-46.215 -79.647,-42.552L-99.056,-42.552C-99.81,-39.183 -100.538,-35.801 -101.239,-32.409L-121.399,-32.409C-120.396,-35.801 -119.356,-39.183 -118.278,-42.552L-127.502,-42.552C-126.162,-46.215 -124.77,-49.863 -123.326,-53.496L-78.2,-53.496Z" style="fill:none;fill-rule:nonzero;stroke:rgb(242,13,13);stroke-width:0.5px;"/>
    </g>
    <g transform="matrix(2.55135e-16,-4.16667,4.16667,2.55135e-16,2804.6,664.365)">
        <path d="M0,2.575C-3.051,13.829 8.698,20.457 31.634,20.446C53.727,20.455 66.018,13.409 62.812,2.575L76.349,2.575C89.22,24.962 69.826,43.64 31.963,43.616C-5.508,43.643 -25.401,25.174 -13.416,2.575L0,2.575ZM-10.72,-2.616C-4.2,-13.801 5.444,-23.412 12.676,-30.226C20.23,-37.041 25.372,-41.059 30.333,-41.068C35.286,-41.059 40.637,-36.967 48.561,-30.114C56.157,-23.261 66.326,-13.646 73.341,-2.616L60.647,-2.616C54.211,-13.165 43.564,-19.303 31.029,-19.312C18.509,-19.303 7.884,-13.063 1.974,-2.616L-10.72,-2.616Z" style="fill:none;fill-rule:nonzero;stroke:rgb(242,13,13);stroke-width:0.5px;"/>
    </g>
    <g transform="matrix(4.99995,2.55135e-16,3.06159e-16,-4.16667,2954.85,-1394.76)">
        <path d="M-581.103,-581.103L581.103,-581.103" style="fill:none;fill-rule:nonzero;stroke:rgb(29,29,27);stroke-width:0.45px;"/>
    </g>
    <g transform="matrix(2.55135e-16,-4.16667,4.16667,2.55135e-16,655.44,3204.83)">
        <path d="M0,-64.284C2.452,-65.267 4.918,-65.402 6.79,-64.047L6.79,-68.403C8.684,-69.529 10.585,-70.639 12.493,-71.734L12.493,-48.205C10.271,-47.676 8.058,-47.14 5.855,-46.594C4.652,-54.302 2.319,-55.704 0,-55.286L0,-64.284ZM-3.307,-53.703C-5.22,-52.219 -6.467,-49.942 -6.467,-47.444C-6.466,-44.004 -2.926,-42.995 1.858,-40.099C7.958,-36.539 15.996,-31.402 16.001,-15.406C16.008,1.058 8.464,7.45 -1.721,0.492L-1.721,-8.733C0.792,-8.174 2.523,-9.916 2.523,-13.532C2.524,-18.057 -0.743,-20.908 -5.415,-24.928C-11.481,-30.234 -18.975,-32.789 -18.969,-40.191C-18.965,-46.477 -12.413,-56.212 -3.307,-62.638L-3.307,-53.703ZM-14.632,-24.256C-12.687,-17.927 -8.447,-12.753 -5.02,-10.237L-5.02,-2.026C-8.576,-5.138 -11.968,-9.089 -13.853,-11.995C-13.701,-10.931 -13.549,-9.853 -13.397,-8.764C-15.327,-9.99 -17.249,-11.233 -19.163,-12.491C-20.087,-17.346 -21.01,-21.8 -21.931,-25.843C-19.511,-25.305 -17.078,-24.776 -14.632,-24.256Z" style="fill:none;fill-rule:nonzero;stroke:rgb(242,13,13);stroke-width:0.5px;"/>
    </g>
    <g transform="matrix(2.55135e-16,-4.16667,4.16667,2.55135e-16,713.415,2888.71)">
        <path d="M0,-93.77C-1.741,-93.317 -3.479,-92.857 -5.213,-92.389L-5.213,-37.356C-5.198,1.116 -12.601,19.271 -26.336,14.275L-26.336,-3.128C-21.713,-3.03 -20.086,-10.958 -20.088,-30.428L-20.088,-88.153C-21.801,-87.639 -23.51,-87.118 -25.216,-86.589L-25.216,-102.994C-16.9,-106.603 -8.49,-109.952 0,-113.041L0,-93.77ZM-31.156,-84.709C-32.852,-84.162 -34.543,-83.607 -36.231,-83.044L-36.231,-32.231C-36.229,-15.978 -34.295,-7.427 -29.831,-4.277L-29.831,12.814C-44.119,4.438 -50.67,-12.681 -50.687,-39.463L-50.687,-77.992C-52.35,-77.384 -54.007,-76.768 -55.661,-76.145L-55.661,-88.381C-47.599,-92.636 -39.426,-96.63 -31.156,-100.364L-31.156,-84.709Z" style="fill:none;fill-rule:nonzero;stroke:rgb(242,13,13);stroke-width:0.5px;"/>
    </g>
    <g transform="matrix(2.55135e-16,-4.16667,4.16667,2.55135e-16,771.443,2633.73)">
        <path d="M0,-120.203C-2.05,-119.893 -4.098,-119.573 -6.143,-119.242L-6.143,-56.921C-8.853,-66.411 -11.558,-75.694 -14.258,-84.744L-14.258,-117.876C-16.295,-117.519 -18.329,-117.151 -20.36,-116.774L-20.36,-139.668C-13.607,-141.423 -6.818,-143.023 0,-144.465L0,-120.203ZM-42.827,-75.951L-42.827,-6.698C-40.823,-6.246 -38.814,-5.804 -36.802,-5.372L-36.802,16.206C-43.493,14.196 -50.144,12.029 -56.747,9.706L-56.747,-10.017C-54.762,-9.518 -52.771,-9.029 -50.777,-8.549L-50.777,-100.149C-50.681,-100.168 -50.585,-100.186 -50.489,-100.204C-47.942,-92.423 -45.388,-84.33 -42.827,-75.951ZM-6.143,-39.253L-6.143,24.262C-7.695,23.911 -9.245,23.553 -10.794,23.186C-23.603,-27.068 -36.295,-72.676 -48.83,-110.767C-51.476,-110.141 -54.116,-109.496 -56.747,-108.834L-56.747,-128.559C-49.761,-131.018 -42.722,-133.302 -35.638,-135.41C-25.885,-106.879 -16.047,-74.415 -6.143,-39.253Z" style="fill:none;fill-rule:nonzero;stroke:rgb(242,13,13);stroke-width:0.5px;"/>
    </g>
    <g transform="matrix(2.55135e-16,-4.16667,4.16667,2.55135e-16,365.808,2461.39)">
        <path d="M0,73.945C-2.503,73.829 -5.005,73.706 -7.503,73.574L-7.503,55.424C-9.103,55.383 -10.701,55.34 -12.298,55.295L-12.298,28.784C-10.701,28.76 -9.103,28.737 -7.503,28.716L-7.503,10.566C-5.005,10.464 -2.503,10.369 0,10.281L0,73.945ZM6.163,-2.858C3.656,-2.743 1.151,-2.618 -1.352,-2.485L-1.352,-27.592C-5.005,-27.277 -8.654,-26.93 -12.298,-26.552L-12.298,-52.292C-6.159,-53.183 -0.004,-53.95 6.163,-54.593L6.163,-2.858ZM-16.039,101.998C-13.846,102.238 -11.65,102.468 -9.452,102.686L-9.452,128.538C-18.718,127.252 -27.948,125.683 -37.129,123.832L-37.129,99.323C-35.322,99.583 -33.514,99.836 -31.704,100.08L-31.704,-24.234C-33.514,-23.989 -35.322,-23.737 -37.129,-23.476L-37.129,-47.988C-30.126,-49.401 -23.094,-50.649 -16.039,-51.733L-16.039,101.998Z" style="fill:none;fill-rule:nonzero;stroke:rgb(242,13,13);stroke-width:0.5px;"/>
    </g>
    <g transform="matrix(2.55135e-16,-4.16667,4.16667,2.55135e-16,128.781,2244.27)">
        <path d="M0,189.806C-4.912,189.785 -9.823,189.685 -14.732,189.508L-14.732,162.49C-11.812,162.566 -8.891,162.622 -5.969,162.658C-4.76,152.199 -3.552,141.73 -2.342,131.256C0.63,131.266 3.602,131.266 6.574,131.255C4.383,150.774 2.191,170.301 0,189.806ZM-11.484,27.05C-13.826,27.099 -16.167,27.16 -18.508,27.235L-18.508,189.356C-25.63,189.04 -32.745,188.56 -39.848,187.915L-39.848,161.352C-38.016,161.471 -36.183,161.582 -34.349,161.685L-34.349,27.932C-36.183,28.035 -38.016,28.146 -39.848,28.265L-39.848,1.699C-30.411,0.842 -20.952,0.276 -11.484,0L-11.484,27.05Z" style="fill:none;fill-rule:nonzero;stroke:rgb(242,13,13);stroke-width:0.5px;"/>
    </g>
    <g transform="matrix(2.55135e-16,-4.16667,4.16667,2.55135e-16,933.203,2078.16)">
        <path d="M0,-196.239C16.277,-191.846 28.622,-151.989 28.622,-99.155C28.622,-46.325 16.052,-5.445 0,-0.269L0,-29.863C7.684,-34.396 12.266,-59.236 12.267,-98.121C12.266,-137.007 7.609,-162.38 0,-166.645L0,-196.239ZM-3.768,-167.126C-11.91,-164.656 -16.594,-139.936 -16.593,-98.39C-16.594,-58.455 -11.608,-32.13 -3.768,-29.382L-3.768,0.308C-19.978,-0.744 -32.912,-41.758 -32.909,-98.391C-32.912,-154.474 -20.13,-195.23 -3.768,-196.547L-3.768,-167.126Z" style="fill:none;fill-rule:nonzero;stroke:rgb(242,13,13);stroke-width:0.5px;"/>
    </g>
    <g transform="matrix(2.55135e-16,-4.16667,4.16667,2.55135e-16,710.563,1598.97)">
        <path d="M0,-94.062C-1.602,-94.467 -3.208,-94.865 -4.816,-95.257C-8.895,-68.597 -12.992,-40.26 -17.105,-10.456C-18.508,-17.49 -19.913,-24.653 -21.32,-31.94C-18.555,-54.442 -15.796,-76.219 -13.046,-97.2C-13.89,-97.393 -14.735,-97.584 -15.581,-97.773L-15.581,-118.915C-10.36,-117.28 -5.166,-115.549 0,-113.723L0,-94.062ZM-19.502,-98.637C-19.914,-98.726 -20.326,-98.815 -20.737,-98.904C-23.259,-89.153 -25.786,-79.078 -28.319,-68.705C-29.537,-75.328 -30.756,-82.035 -31.976,-88.823C-31.024,-92.805 -30.074,-96.744 -29.124,-100.64C-30.244,-100.864 -31.366,-101.084 -32.488,-101.302L-32.488,-123.852C-28.144,-122.674 -23.814,-121.431 -19.502,-120.124L-19.502,-98.637ZM-36.153,-102C-36.936,-102.146 -37.719,-102.292 -38.503,-102.435C-31.916,-65.193 -25.362,-30.108 -18.847,2.22C-20.155,11.827 -21.464,21.579 -22.775,31.469C-25.057,32.142 -27.344,32.797 -29.635,33.434C-33.047,16.373 -36.468,-1.384 -39.899,-19.752C-41.418,-13.087 -42.939,-6.331 -44.462,0.509C-45.42,-6.468 -46.378,-13.508 -47.337,-20.607C-46.034,-26.68 -44.732,-32.688 -43.431,-38.628C-47.358,-60.119 -51.297,-82.372 -55.246,-105.264C-55.616,-105.322 -55.986,-105.379 -56.357,-105.435L-56.357,-129.635C-49.591,-128.187 -42.855,-126.585 -36.153,-124.829L-36.153,-102ZM-60.063,-105.991C-60.904,-106.114 -61.745,-106.236 -62.587,-106.356C-57.364,-65.323 -52.157,-25.687 -46.969,12.166C-48.936,21.059 -50.905,30.088 -52.878,39.239C-55.195,39.754 -57.517,40.25 -59.841,40.729C-66.393,-6.818 -72.972,-56.822 -79.572,-108.541C-81.315,-108.741 -83.06,-108.934 -84.806,-109.12L-84.806,-134.791C-76.525,-133.558 -68.274,-132.098 -60.063,-130.412L-60.063,-105.991Z" style="fill:none;fill-rule:nonzero;stroke:rgb(242,13,13);stroke-width:0.5px;"/>
    </g>
    <g transform="matrix(2.55135e-16,-4.16667,4.16667,2.55135e-16,311.296,1418.6)">
        <path d="M0,102.018C-5.645,104.707 -11.339,107.273 -17.077,109.716L-17.077,92.968C-13.096,91.757 -9.136,90.503 -5.198,89.207C-4.342,84.046 -3.486,78.991 -2.631,74.044C0.049,73.491 2.718,72.926 5.376,72.348C3.589,81.758 1.797,91.655 0,102.018ZM-5.615,67.462C-7.932,67.788 -10.257,68.108 -12.59,68.422L-12.59,57.085C-14.082,57.155 -15.578,57.224 -17.077,57.292L-17.077,40.04C-15.578,40.16 -14.082,40.281 -12.59,40.403L-12.59,29.067C-10.257,29.463 -7.932,29.866 -5.615,30.278L-5.615,67.462ZM-0.623,25.471C-2.928,24.926 -5.242,24.391 -7.563,23.867L-7.563,12.045C-10.721,11.021 -13.892,10.025 -17.077,9.055L-17.077,-7.695C-11.55,-5.341 -6.064,-2.872 -0.623,-0.289L-0.623,25.471ZM-20.595,111.196C-27.243,113.959 -33.948,116.558 -40.703,118.993L-40.703,99.597C-38.96,99.149 -37.221,98.692 -35.485,98.228L-35.485,3.793C-37.221,3.328 -38.96,2.871 -40.703,2.422L-40.703,-16.975C-33.948,-14.54 -27.243,-11.94 -20.595,-9.175L-20.595,111.196Z" style="fill:none;fill-rule:nonzero;stroke:rgb(242,13,13);stroke-width:0.5px;"/>
    </g>
    <g transform="matrix(2.55135e-16,-4.16667,4.16667,2.55135e-16,665.213,1283.9)">
        <path d="M0,-67.853C13.441,-59.401 20.159,-50.454 20.178,-43.186C20.174,-37.934 17.015,-34.824 11.374,-32.339C14.393,-21.136 19.82,-15.599 25.984,-17.62C25.748,-16.803 25.512,-15.969 25.277,-15.116C12.142,-6.093 3.79,-10.187 -1.334,-25.458C-1.356,-25.555 -1.378,-25.651 -1.401,-25.747L-1.401,-36.848C-1.378,-36.848 -1.356,-36.846 -1.334,-36.845C3.934,-37.078 6.102,-40.19 6.105,-46.072C6.102,-51.674 3.602,-56.277 -1.334,-58.725C-1.356,-58.735 -1.378,-58.744 -1.401,-58.753L-1.401,-68.666C-0.933,-68.396 -0.466,-68.125 0,-67.853ZM-4.745,-7.728C-3.248,-8.333 -1.755,-8.945 -0.266,-9.564L-0.266,0.16C-8.042,4.681 -15.934,8.95 -23.929,12.968L-23.929,-0.411C-22.262,-1.01 -20.599,-1.616 -18.94,-2.231L-18.94,-65.62C-20.599,-66.235 -22.262,-66.842 -23.929,-67.441L-23.929,-80.821C-17.465,-77.571 -11.068,-74.157 -4.745,-70.578L-4.745,-7.728Z" style="fill:none;fill-rule:nonzero;stroke:rgb(242,13,13);stroke-width:0.5px;"/>
    </g>
    <g transform="matrix(2.55135e-16,-4.16667,4.16667,2.55135e-16,1339.2,3136.18)">
        <path d="M0,73.495C-2.848,75.109 -7.038,74.298 -10.724,72.645L-10.724,62.142C-5.512,63.67 -2.84,58.956 -1.659,51.929C0.432,52.369 2.532,52.802 4.639,53.228C3.088,60.421 1.542,67.182 0,73.495ZM-10.724,0.786C-6.861,-1.069 -3.672,-1.614 -1.245,-0.823C0.433,5.378 2.116,12.078 3.804,19.261C1.699,19.72 -0.398,20.187 -2.487,20.661C-4.023,14.192 -6.214,10.411 -10.724,11.487L-10.724,0.786ZM-13.645,12.554C-21.222,17.05 -25.327,26.204 -25.333,36.727C-25.329,46.866 -20.816,56.207 -13.645,60.883L-13.645,71.145C-22.222,65.331 -37.659,49.502 -37.619,36.738C-37.657,24.09 -22.511,8.071 -13.645,2.384L-13.645,12.554Z" style="fill:none;fill-rule:nonzero;stroke:rgb(242,13,13);stroke-width:0.5px;"/>
    </g>
    <g transform="matrix(2.55135e-16,-4.16667,4.16667,2.55135e-16,1738.62,2995.76)">
        <path d="M0,-118.743C13.27,-124.064 23.651,-99.813 23.644,-59.758C23.65,-19.683 13.084,5.321 0,0.553L0,-17.463C6.268,-17.68 10.06,-32.982 10.058,-59.007C10.06,-85.043 6.206,-100.661 0,-100.728L0,-118.743ZM-3.067,-99.894C-9.68,-95.719 -13.425,-81.194 -13.428,-59.169C-13.426,-38.028 -9.436,-22.567 -3.067,-18.297L-3.067,-0.709C-16.243,-9.409 -26.433,-33.99 -26.437,-59.16C-26.432,-84.101 -16.364,-108.438 -3.067,-117.322L-3.067,-99.894Z" style="fill:none;fill-rule:nonzero;stroke:rgb(242,13,13);stroke-width:0.5px;"/>
    </g>
    <g transform="matrix(2.55135e-16,-4.16667,4.16667,2.55135e-16,1833.41,2781.52)">
        <path d="M0,-157.562C12.907,-161.621 19.72,-146.951 19.712,-116.906C19.714,-96.492 16.545,-83.398 11.018,-77.229C13.973,-45.119 19.315,-16.782 25.53,-5.185C25.292,-2.097 25.055,0.984 24.818,4.059C11.621,-2.735 3.64,-29.338 -1.277,-63.463C-1.298,-63.679 -1.319,-63.895 -1.34,-64.112L-1.34,-88.179C-1.319,-88.18 -1.298,-88.18 -1.277,-88.181C3.766,-89.125 5.886,-97.598 5.885,-112.881C5.886,-127.505 3.446,-136.105 -1.277,-135.683C-1.298,-135.679 -1.319,-135.674 -1.34,-135.67L-1.34,-157.159C-0.894,-157.294 -0.447,-157.429 0,-157.562ZM-4.527,-28.71C-3.105,-28.395 -1.681,-28.084 -0.255,-27.779L-0.255,-6.197C-7.704,-8.426 -15.102,-10.85 -22.441,-13.467L-22.441,-32.976C-20.91,-32.585 -19.377,-32.201 -17.841,-31.823L-17.841,-131.86C-19.377,-131.482 -20.91,-131.098 -22.441,-130.708L-22.441,-150.216C-16.506,-152.333 -10.534,-154.322 -4.527,-156.184L-4.527,-28.71Z" style="fill:none;fill-rule:nonzero;stroke:rgb(242,13,13);stroke-width:0.5px;"/>
    </g>
    <g transform="matrix(2.55135e-16,-4.16667,4.16667,2.55135e-16,1763.46,2450.07)">
        <path d="M0,-130.755C-1.824,-130.608 -3.647,-130.453 -5.469,-130.29L-5.469,-62.319C-7.884,-72.658 -10.297,-82.895 -12.707,-93.011L-12.707,-129.602C-14.525,-129.418 -16.342,-129.227 -18.158,-129.028L-18.158,-154.569C-12.12,-155.495 -6.066,-156.301 0,-156.985L0,-130.755ZM-38.304,-84.306L-38.304,-3.616C-36.501,-3.359 -34.696,-3.11 -32.889,-2.868L-32.889,21.958C-38.897,20.834 -44.885,19.591 -50.849,18.226L-50.849,-5.535C-49.056,-5.242 -47.26,-4.956 -45.462,-4.679L-45.462,-113.378C-45.376,-113.389 -45.289,-113.4 -45.202,-113.41C-42.906,-103.885 -40.607,-94.178 -38.304,-84.306ZM-5.469,-43.046L-5.469,26.23C-6.852,26.057 -8.235,25.878 -9.616,25.692C-21.041,-27.708 -32.414,-78.908 -43.707,-125.696C-46.091,-125.335 -48.472,-124.96 -50.849,-124.571L-50.849,-148.333C-44.539,-149.776 -38.203,-151.084 -31.844,-152.257C-23.09,-117.797 -14.294,-81.075 -5.469,-43.046Z" style="fill:none;fill-rule:nonzero;stroke:rgb(242,13,13);stroke-width:0.5px;"/>
    </g>
    <g transform="matrix(2.55135e-16,-4.16667,4.16667,2.55135e-16,1335.72,2297.41)">
        <path d="M0,74.716C-2.209,74.688 -4.418,74.653 -6.626,74.612L-6.626,55.773C-8.04,55.76 -9.453,55.746 -10.865,55.731L-10.865,28.073C-9.453,28.065 -8.04,28.058 -6.626,28.051L-6.626,9.212C-4.418,9.181 -2.209,9.154 0,9.132L0,74.716ZM5.436,-4.156C3.226,-4.135 1.016,-4.108 -1.193,-4.073L-1.193,-29.972C-4.418,-29.89 -7.643,-29.784 -10.865,-29.655L-10.865,-56.507C-5.436,-56.813 -0.001,-57.024 5.436,-57.138L5.436,-4.156ZM-14.176,104.724C-12.234,104.812 -10.292,104.892 -8.349,104.963L-8.349,131.854C-16.54,131.436 -24.721,130.801 -32.882,129.947L-32.882,103.6C-31.276,103.72 -29.67,103.834 -28.062,103.942L-28.062,-28.731C-29.67,-28.623 -31.276,-28.509 -32.882,-28.389L-32.882,-54.736C-26.657,-55.387 -20.42,-55.911 -14.176,-56.308L-14.176,104.724Z" style="fill:none;fill-rule:nonzero;stroke:rgb(242,13,13);stroke-width:0.5px;"/>
    </g>
    <g transform="matrix(2.55135e-16,-4.16667,4.16667,2.55135e-16,1101.36,2106.59)">
        <path d="M0,187.684C-4.302,187.97 -8.607,188.195 -12.915,188.36L-12.915,161.395C-10.352,161.324 -7.791,161.239 -5.23,161.138C-4.171,150.711 -3.111,140.3 -2.052,129.909C0.552,129.847 3.155,129.777 5.756,129.698C3.838,148.945 1.919,168.281 0,187.684ZM-10.066,26.393C-12.119,26.327 -14.174,26.272 -16.229,26.226L-16.229,188.475C-22.482,188.669 -28.738,188.737 -34.993,188.678L-34.993,161.622C-33.38,161.633 -31.766,161.638 -30.152,161.636L-30.152,26.066C-31.766,26.065 -33.38,26.07 -34.993,26.081L-34.993,-0.975C-26.682,-1.053 -18.369,-0.908 -10.066,-0.539L-10.066,26.393Z" style="fill:none;fill-rule:nonzero;stroke:rgb(242,13,13);stroke-width:0.5px;"/>
    </g>
    <g transform="matrix(2.55135e-16,-4.16667,4.16667,2.55135e-16,1887.5,1961.45)">
        <path d="M0,-189.385C14.197,-184.268 24.937,-145.912 24.938,-95.681C24.937,-45.456 14.001,-6.124 0,-0.26L0,-28.82C6.702,-33.477 10.694,-57.416 10.694,-94.695C10.693,-131.974 6.637,-156.428 0,-160.825L0,-189.385ZM-3.287,-161.418C-10.392,-159.347 -14.485,-135.446 -14.484,-94.954C-14.485,-56.029 -10.128,-30.575 -3.287,-28.227L-3.287,0.481C-17.43,0.419 -28.752,-39.09 -28.749,-94.956C-28.752,-150.279 -17.562,-189.554 -3.287,-189.866L-3.287,-161.418Z" style="fill:none;fill-rule:nonzero;stroke:rgb(242,13,13);stroke-width:0.5px;"/>
    </g>
    <g transform="matrix(2.55135e-16,-4.16667,4.16667,2.55135e-16,1662.41,1544.73)">
        <path d="M0,-86.571C-1.393,-86.957 -2.788,-87.339 -4.185,-87.715C-7.729,-62.95 -11.288,-36.584 -14.861,-8.777C-16.08,-15.323 -17.301,-21.996 -18.523,-28.79C-16.121,-49.791 -13.725,-70.076 -11.334,-89.59C-12.068,-89.777 -12.803,-89.964 -13.538,-90.148L-13.538,-109.848C-9.002,-108.254 -4.489,-106.585 0,-104.843L0,-86.571ZM-16.943,-90.993C-17.301,-91.081 -17.66,-91.168 -18.018,-91.255C-20.208,-82.187 -22.404,-72.803 -24.604,-63.124C-25.662,-69.319 -26.721,-75.599 -27.78,-81.96C-26.954,-85.674 -26.128,-89.346 -25.302,-92.975C-26.276,-93.198 -27.251,-93.419 -28.226,-93.638L-28.226,-114.731C-24.451,-113.547 -20.69,-112.314 -16.943,-111.03L-16.943,-90.993ZM-31.41,-94.342C-32.09,-94.49 -32.771,-94.637 -33.452,-94.783C-27.728,-59.795 -22.035,-27.028 -16.375,3.054C-17.511,12.024 -18.649,21.137 -19.788,30.388C-21.77,31.052 -23.757,31.703 -25.746,32.339C-28.711,16.454 -31.683,-0.118 -34.664,-17.31C-35.985,-11.053 -37.307,-4.704 -38.63,1.735C-39.462,-4.801 -40.295,-11.401 -41.128,-18.062C-39.995,-23.776 -38.864,-29.422 -37.733,-34.998C-41.146,-55.152 -44.569,-76.091 -48.001,-97.717C-48.323,-97.778 -48.645,-97.838 -48.967,-97.898L-48.967,-120.693C-43.086,-119.153 -37.233,-117.494 -31.41,-115.716L-31.41,-94.342ZM-52.189,-98.493C-52.92,-98.625 -53.651,-98.757 -54.383,-98.887C-49.842,-60.052 -45.316,-22.752 -40.807,12.714C-42.517,21.098 -44.229,29.625 -45.943,38.285C-47.958,38.827 -49.975,39.355 -51.996,39.87C-57.692,-4.789 -63.413,-52.046 -69.156,-101.328C-70.672,-101.559 -72.191,-101.786 -73.71,-102.006L-73.71,-126.441C-66.503,-124.976 -59.327,-123.337 -52.189,-121.524L-52.189,-98.493Z" style="fill:none;fill-rule:nonzero;stroke:rgb(242,13,13);stroke-width:0.5px;"/>
    </g>
    <g transform="matrix(2.55135e-16,-4.16667,4.16667,2.55135e-16,1294.95,1387.88)">
        <path d="M0,94.775C-4.917,97.228 -9.872,99.587 -14.864,101.85L-14.864,86.311C-11.401,85.188 -7.954,84.033 -4.527,82.845C-3.781,78.057 -3.036,73.366 -2.291,68.775C0.042,68.269 2.367,67.754 4.683,67.229C3.126,75.973 1.565,85.161 0,94.775ZM-4.89,62.658C-6.907,62.957 -8.93,63.252 -10.96,63.541L-10.96,53.023C-12.259,53.087 -13.56,53.151 -14.864,53.215L-14.864,37.209C-13.56,37.319 -12.259,37.431 -10.96,37.544L-10.96,27.025C-8.93,27.39 -6.907,27.761 -4.89,28.138L-4.89,62.658ZM-0.542,23.659C-2.55,23.162 -4.565,22.673 -6.586,22.191L-6.586,11.219C-9.334,10.279 -12.093,9.361 -14.864,8.463L-14.864,-7.076C-10.056,-4.897 -5.281,-2.629 -0.542,-0.273L-0.542,23.659ZM-17.924,103.224C-23.706,105.793 -29.535,108.236 -35.406,110.551L-35.406,92.529C-33.891,92.102 -32.379,91.669 -30.871,91.23L-30.871,3.544C-32.38,3.106 -33.891,2.673 -35.406,2.246L-35.406,-15.776C-29.535,-13.461 -23.706,-11.019 -17.924,-8.45L-17.924,103.224Z" style="fill:none;fill-rule:nonzero;stroke:rgb(242,13,13);stroke-width:0.5px;"/>
    </g>
    <g transform="matrix(2.55135e-16,-4.16667,4.16667,2.55135e-16,1625.79,1270.4)">
        <path d="M0,-64.03C11.748,-56.513 17.645,-48.245 17.659,-41.074C17.657,-35.926 14.885,-32.856 9.948,-30.5C12.589,-19.783 17.342,-14.213 22.752,-15.725C22.545,-14.926 22.338,-14.113 22.131,-13.283C10.609,-5.442 3.313,-9.626 -1.165,-24.038C-1.185,-24.128 -1.205,-24.219 -1.224,-24.309L-1.224,-34.771C-1.205,-34.77 -1.185,-34.769 -1.165,-34.768C3.438,-34.997 5.336,-37.964 5.338,-43.558C5.336,-48.888 3.147,-53.192 -1.165,-55.388C-1.185,-55.397 -1.205,-55.405 -1.224,-55.413L-1.224,-64.754C-0.816,-64.513 -0.408,-64.272 0,-64.03ZM-4.146,-7.399C-2.838,-7.94 -1.534,-8.486 -0.233,-9.037L-0.233,0.137C-7.028,4.165 -13.914,8 -20.883,11.64L-20.883,-0.816C-19.429,-1.358 -17.979,-1.907 -16.533,-2.462L-16.533,-61.568C-17.979,-62.123 -19.429,-62.671 -20.883,-63.214L-20.883,-75.67C-15.249,-72.727 -9.668,-69.657 -4.146,-66.46L-4.146,-7.399Z" style="fill:none;fill-rule:nonzero;stroke:rgb(242,13,13);stroke-width:0.5px;"/>
    </g>
    <g transform="matrix(2.55135e-16,-4.16667,4.16667,2.55135e-16,2189.53,509.03)">
        <path d="M0,20.866C6.154,19.122 11.022,15.323 13.358,12.256L21.16,12.256C18.305,15.439 14.634,18.478 11.879,20.168C12.905,20.031 13.942,19.895 14.991,19.759C13.882,21.489 12.761,23.212 11.627,24.928C6.889,25.758 2.501,26.585 -1.531,27.411C-1.014,25.241 -0.503,23.059 0,20.866ZM-37.667,7.763C-38.449,5.57 -38.442,3.365 -37.086,1.691L-41.163,1.691C-42.12,-0.002 -43.066,-1.701 -44,-3.405L-22.084,-3.405C-21.656,-1.42 -21.222,0.558 -20.782,2.528C-28.038,3.603 -29.464,5.689 -29.182,7.763L-37.667,7.763ZM-27.85,10.723C-26.545,12.435 -24.441,13.551 -22.061,13.551C-18.781,13.55 -17.665,10.38 -14.805,6.102C-11.274,0.644 -6.356,-6.535 8.492,-6.539C23.767,-6.545 29.751,0.19 23.459,9.304L14.74,9.304C15.235,7.055 13.587,5.507 10.189,5.507C5.935,5.506 3.254,8.427 -0.603,12.61C-5.686,18.039 -8.344,24.759 -15.689,24.755C-21.961,24.751 -30.862,18.873 -36.315,10.723L-27.85,10.723Z" style="fill:none;fill-rule:nonzero;stroke:rgb(242,13,13);stroke-width:0.5px;"/>
    </g>
    <g transform="matrix(2.55135e-16,-4.16667,4.16667,2.55135e-16,2087.47,375.18)">
        <path d="M0,-14.012C0.5,-15.533 0.995,-17.057 1.482,-18.584L17.258,-18.584C13.975,-11.136 10.482,-3.764 6.778,3.521L-6.11,3.521C-5.56,2.027 -5.016,0.53 -4.479,-0.972L-85.129,-0.972C-87.092,-5.29 -88.988,-9.637 -90.817,-14.012L0,-14.012ZM-82.269,4.932C-82.711,3.992 -83.15,3.05 -83.586,2.108L-70.498,2.108C-70,3.645 -69.497,5.178 -68.988,6.708C-64.584,7.36 -60.273,8.012 -56.057,8.663C-55.637,10.861 -55.21,13.05 -54.777,15.231C-64.335,13.858 -74.406,12.482 -84.973,11.102C-86.256,8.809 -87.516,6.507 -88.755,4.196C-86.576,4.441 -84.414,4.687 -82.269,4.932ZM-62.483,-29.243C-62.168,-27.131 -61.847,-25.024 -61.52,-22.924L-77.975,-22.924C-77.444,-20.991 -76.904,-19.064 -76.355,-17.141L-91.957,-17.141C-92.742,-19.064 -93.514,-20.991 -94.273,-22.924L-102.094,-22.924C-103.038,-25.024 -103.964,-27.131 -104.873,-29.243L-62.483,-29.243Z" style="fill:none;fill-rule:nonzero;stroke:rgb(242,13,13);stroke-width:0.5px;"/>
    </g>
    <g transform="matrix(2.55135e-16,-4.16667,4.16667,2.55135e-16,1809.03,326.757)">
        <path d="M0,12.368C0.357,10.925 0.708,9.48 1.054,8.033L21.085,8.033C18.591,15.593 15.892,23.095 12.991,30.53L-4.811,30.53C-4.372,28.98 -3.94,27.426 -3.514,25.869L-95.173,25.869C-94.788,27.426 -94.397,28.98 -94,30.53L-111.801,30.53C-113.986,24.518 -116.047,18.462 -117.984,12.368L0,12.368ZM-119.418,7.774C-123.662,-5.327 -110.076,-12.257 -81.836,-12.247C-62.663,-12.249 -50.383,-9.028 -44.693,-3.413C-14.666,-6.415 12.11,-11.843 23.315,-18.162C26.212,-17.92 29.102,-17.679 31.985,-17.438C24.928,-4.021 -0.357,4.079 -32.092,9.069C-32.293,9.091 -32.494,9.113 -32.696,9.134L-55.018,9.134C-55.018,9.113 -55.018,9.091 -55.019,9.069C-55.849,3.952 -63.736,1.798 -77.98,1.8C-91.611,1.799 -99.581,4.277 -99.082,9.069C-99.078,9.091 -99.073,9.113 -99.068,9.134L-118.999,9.134C-119.139,8.681 -119.279,8.228 -119.418,7.774Z" style="fill:none;fill-rule:nonzero;stroke:rgb(242,13,13);stroke-width:0.5px;"/>
    </g>
    <g transform="matrix(2.55135e-16,-4.16667,4.16667,2.55135e-16,1584.63,628.97)">
        <path d="M0,11.33C11.464,12.595 22.825,13.859 34.078,15.122C34.159,12.685 34.237,10.244 34.311,7.799C42.718,6.955 51.172,6.11 59.672,5.265C59.314,9.469 58.93,13.662 58.519,17.845C66.378,18.73 74.18,19.614 81.924,20.499C82.266,18.421 82.598,16.34 82.92,14.257L106.5,14.257C105.226,20.241 103.831,26.202 102.314,32.136L79.887,32.136C80.139,30.774 80.387,29.41 80.63,28.044C46.411,23.375 10.675,18.69 -26.292,13.991C-17.587,13.105 -8.822,12.218 0,11.33ZM86.818,-15.965C86.986,-17.577 87.148,-19.191 87.303,-20.806L112.55,-20.806C111.424,-12.329 110.061,-3.879 108.461,4.531L84.34,4.531C84.583,2.773 84.818,1.014 85.045,-0.747C35.549,4.179 -12.553,9.093 -58.857,13.991C-59.795,9.248 -60.662,4.49 -61.458,-0.279C-13.514,-5.494 36.062,-10.724 86.818,-15.965Z" style="fill:none;fill-rule:nonzero;stroke:rgb(242,13,13);stroke-width:0.5px;"/>
    </g>
    <g transform="matrix(2.55135e-16,-4.16667,4.16667,2.55135e-16,1281.89,797.951)">
        <path d="M0,33.308C0.046,34.073 0.093,34.839 0.142,35.604C42.09,30.855 84.71,26.099 127.7,21.339C137.093,23.144 146.443,24.948 155.74,26.752C155.576,28.871 155.398,30.988 155.205,33.105C102.921,39.073 51.423,45.031 1.288,50.975C1.423,52.546 1.563,54.115 1.709,55.683L-23.394,55.683C-24.373,48.245 -25.182,40.784 -25.82,33.308L0,33.308ZM-1.246,-4.07C-1.244,-3.685 -1.241,-3.301 -1.238,-2.917C11.338,-0.566 23.913,1.784 36.467,4.134C28.761,5.263 21.063,6.393 13.377,7.522C8.544,6.641 3.709,5.76 -1.129,4.879C-1.109,5.919 -1.087,6.958 -1.062,7.997L-27.328,7.997C-27.464,3.976 -27.552,-0.047 -27.59,-4.07L-1.246,-4.07ZM-0.973,11.385C-0.952,12.107 -0.93,12.83 -0.907,13.553C39.95,7.479 81.268,1.4 122.579,-4.68C134.077,-3.459 145.567,-2.239 157.045,-1.019C157.01,1.106 156.959,3.23 156.894,5.354C135.588,8.517 114.314,11.679 93.137,14.839C100.533,16.239 107.911,17.639 115.265,19.038C107.31,19.918 99.368,20.798 91.439,21.678C84.858,20.482 78.26,19.286 71.647,18.09C47.492,21.701 23.494,25.31 -0.25,28.915C-0.232,29.253 -0.214,29.591 -0.195,29.929L-26.097,29.929C-26.581,23.755 -26.95,17.573 -27.202,11.385L-0.973,11.385ZM-1.131,-22.375C-1.16,-20.862 -1.184,-19.348 -1.204,-17.834C34.903,-13.992 71.126,-10.15 107.303,-6.307C98.34,-4.996 89.377,-3.685 80.417,-2.374C53.207,-4.951 25.963,-7.528 -1.261,-10.104C-1.262,-9.313 -1.262,-8.522 -1.261,-7.731L-27.611,-7.731C-27.622,-12.613 -27.56,-17.495 -27.426,-22.375L-1.131,-22.375Z" style="fill:none;fill-rule:nonzero;stroke:rgb(242,13,13);stroke-width:0.5px;"/>
    </g>
    <g transform="matrix(2.55135e-16,-4.16667,4.16667,2.55135e-16,1072.5,148.756)">
        <path d="M0,6.819C0.467,13.019 0.809,19.227 1.025,25.44L-25.248,25.44C-25.29,23.79 -25.338,22.142 -25.392,20.493L-156.756,20.493C-156.805,22.142 -156.848,23.79 -156.886,25.44L-183.159,25.44C-182.958,19.227 -182.64,13.019 -182.205,6.819L0,6.819ZM-181.85,2.086C-180.761,-10.28 -165.758,-15.993 -135.687,-15.996C-116.946,-15.995 -104.347,-12.833 -98.711,-6.828C-92.479,-14.721 -77.384,-18.62 -52.66,-18.621C-19.965,-18.618 -1.698,-11.7 -0.376,2.154C-0.339,2.582 -0.303,3.01 -0.267,3.438L-26.185,3.438C-26.19,3.348 -26.196,3.258 -26.201,3.168C-26.554,-2.308 -36.3,-5.276 -53.752,-5.276C-71.72,-5.276 -81.437,-2.24 -81.393,3.235C-81.392,3.303 -81.391,3.37 -81.391,3.438L-105.497,3.438L-105.497,3.37C-106.497,-1.023 -115.486,-2.913 -131.704,-2.913C-146.12,-2.913 -155.001,-1.091 -156.035,3.37C-156.036,3.393 -156.037,3.415 -156.038,3.438L-181.956,3.438C-181.921,2.987 -181.886,2.536 -181.85,2.086Z" style="fill:none;fill-rule:nonzero;stroke:rgb(242,13,13);stroke-width:0.5px;"/>
    </g>
    <g transform="matrix(2.55135e-16,-4.16667,4.16667,2.55135e-16,955.738,191.901)">
        <path d="M0,-33.436C1.245,-28.023 2.39,-22.591 3.436,-17.141L-20.649,-17.141C-21.175,-20.923 -21.735,-24.696 -22.331,-28.46C-29.964,-29.279 -37.552,-30.097 -45.092,-30.916C-45.356,-33.481 -45.631,-36.043 -45.916,-38.6C-30.825,-36.88 -15.515,-35.159 0,-33.436ZM-55.83,-28.061C-55.671,-25.847 -55.518,-23.629 -55.37,-21.408L-72.068,-21.408C-72.028,-19.987 -71.99,-18.565 -71.952,-17.141L-96.765,-17.141C-96.725,-18.565 -96.684,-19.987 -96.642,-21.408L-113.34,-21.408C-113.188,-23.629 -113.031,-25.847 -112.868,-28.061L-55.83,-28.061ZM4.063,-13.803C5.224,-7.501 6.252,-1.176 7.147,5.164L-17.961,5.164C-18.128,3.529 -18.302,1.894 -18.482,0.261L-143.284,0.261C-143.447,1.894 -143.604,3.529 -143.756,5.164L-168.863,5.164C-168.03,-1.176 -167.073,-7.501 -165.992,-13.803L4.063,-13.803ZM-121.545,-32.84C-121.77,-30.63 -121.988,-28.416 -122.199,-26.2L-140.12,-26.2C-140.541,-23.186 -140.942,-20.166 -141.322,-17.141L-165.408,-17.141C-164.47,-22.391 -163.446,-27.624 -162.336,-32.84L-121.545,-32.84Z" style="fill:none;fill-rule:nonzero;stroke:rgb(242,13,13);stroke-width:0.5px;"/>
    </g>
    <g transform="matrix(2.55135e-16,-4.16667,4.16667,2.55135e-16,656.593,309.418)">
        <path d="M0,11.695C-0.312,10.235 -0.629,8.778 -0.952,7.322L19.898,7.322C22.226,14.927 24.35,22.586 26.27,30.288L3.664,30.288C3.374,28.682 3.077,27.077 2.774,25.474L-108.792,25.474C-109.066,27.077 -109.335,28.682 -109.597,30.288L-132.203,30.288C-130.757,24.06 -129.187,17.861 -127.494,11.695L0,11.695ZM-126.195,7.061C-122.111,-6.097 -106.402,-12.809 -82.214,-12.818C-65.554,-12.816 -55.034,-9.673 -49.245,-4.109C-20.826,-7.086 0.853,-12.447 6.49,-18.593C9.029,-18.358 11.577,-18.124 14.135,-17.889C16.849,-4.81 -2.432,3.35 -35.272,8.365C-35.479,8.387 -35.687,8.409 -35.895,8.43L-59.351,8.43C-59.351,8.409 -59.351,8.387 -59.35,8.365C-60.163,3.214 -67.82,1.078 -81.791,1.076C-95.141,1.078 -103.982,3.539 -105.628,8.365C-105.632,8.387 -105.636,8.409 -105.641,8.43L-126.584,8.43C-126.455,7.974 -126.326,7.517 -126.195,7.061Z" style="fill:none;fill-rule:nonzero;stroke:rgb(242,13,13);stroke-width:0.5px;"/>
    </g>
    <g transform="matrix(2.55135e-16,-4.16667,4.16667,2.55135e-16,439.939,367.262)">
        <path d="M0,11.07C-0.444,9.667 -0.894,8.266 -1.349,6.868L14.073,6.868C17.353,14.171 20.431,21.55 23.305,28.994L5.34,28.994C4.906,27.442 4.465,25.892 4.018,24.345L-83.471,24.345C-83.875,25.892 -84.274,27.442 -84.667,28.994L-102.632,28.994C-100.468,22.975 -98.18,16.998 -95.769,11.07L0,11.07ZM-93.93,6.617C-88.199,-6.014 -75.984,-12.403 -59.811,-12.415C-48.569,-12.413 -41.526,-9.415 -37.284,-4.091C-17.179,-6.94 -3.161,-12.067 -1.03,-17.924C0.693,-17.7 2.428,-17.476 4.176,-17.252C9.605,-4.784 -2.45,3.055 -26.674,7.87C-26.827,7.891 -26.98,7.912 -27.133,7.933L-44.552,7.933C-44.552,7.912 -44.551,7.891 -44.551,7.87C-45.136,2.922 -50.623,0.878 -60.681,0.876C-70.286,0.877 -77.006,3.235 -78.908,7.87C-78.914,7.891 -78.92,7.912 -78.926,7.933L-94.479,7.933C-94.297,7.494 -94.114,7.055 -93.93,6.617Z" style="fill:none;fill-rule:nonzero;stroke:rgb(242,13,13);stroke-width:0.5px;"/>
    </g>
    <g transform="matrix(2.55135e-16,-4.16667,4.16667,2.55135e-16,285.329,627.88)">
        <path d="M0,-2.855C-0.657,-1.192 -1.306,0.476 -1.947,2.15C7.276,-1.198 15.177,-4.523 21.659,-7.826L41.246,-7.826C40.601,-9.262 39.949,-10.693 39.291,-12.119L46.382,-12.119C50.812,-5.162 55.031,1.899 59.04,9.054L48.462,9.054C47.866,7.586 47.264,6.123 46.656,4.664L24.3,4.664C15.469,8.702 4.871,12.77 -7.341,16.868C-7.803,18.186 -8.26,19.507 -8.712,20.832L-21.044,20.832C-17.159,12.824 -13.035,4.924 -8.672,-2.855L0,-2.855ZM8.763,-23.687C8.144,-22.304 7.531,-20.917 6.924,-19.525C9.698,-16.374 13.749,-13.2 18.999,-10.005C16.919,-8.927 14.686,-7.847 12.303,-6.764C9.015,-8.418 6.107,-10.066 3.591,-11.709C3.03,-10.36 2.473,-9.006 1.921,-7.649L-5.944,-7.649C-2.822,-13.057 0.417,-18.405 3.773,-23.687L8.763,-23.687Z" style="fill:none;fill-rule:nonzero;stroke:rgb(242,13,13);stroke-width:0.5px;"/>
    </g>
    <g transform="matrix(2.55135e-16,-4.16667,4.16667,2.55135e-16,4531.69,3081.26)">
        <path d="M0,-60.992C-1.73,-60.411 -3.456,-59.822 -5.176,-59.225L-5.176,-27.985C-7.456,-32.809 -9.728,-37.239 -11.99,-41.254L-11.99,-56.811C-13.697,-56.194 -15.398,-55.568 -17.095,-54.935L-17.095,-65.103C-11.454,-68.093 -5.754,-70.961 0,-73.705L0,-60.992ZM-35.749,-35.402L-35.749,-12.139C-34.094,-11.375 -32.434,-10.62 -30.768,-9.874L-30.768,-1.942C-36.308,-5.367 -41.785,-8.924 -47.194,-12.613L-47.194,-17.605C-45.567,-16.801 -43.934,-16.006 -42.296,-15.22L-42.296,-41.825C-42.217,-41.852 -42.138,-41.879 -42.059,-41.906C-39.965,-40.207 -37.862,-38.032 -35.749,-35.402ZM-5.176,-19.127L-5.176,12.713C-6.482,12.022 -7.785,11.325 -9.085,10.62C-19.836,-18.029 -30.384,-37.503 -40.695,-45.466C-42.872,-44.529 -45.038,-43.579 -47.194,-42.615L-47.194,-47.607C-41.472,-51.242 -35.673,-54.74 -29.804,-58.1C-21.723,-50.987 -13.509,-37.66 -5.176,-19.127Z" style="fill:none;fill-rule:nonzero;stroke:rgb(242,13,13);stroke-width:0.5px;"/>
    </g>
    <g transform="matrix(2.55135e-16,-4.16667,4.16667,2.55135e-16,4250.64,2882.81)">
        <path d="M0,85.323C1.569,85.745 3.14,86.161 4.714,86.571L4.714,105.531C-3.55,102.564 -11.739,99.349 -19.841,95.887L-19.841,79.584C-18.148,80.108 -16.451,80.625 -14.75,81.133C-19.508,45.872 -24.236,13.802 -28.933,-14.659C-24.385,-16.582 -19.807,-18.432 -15.202,-20.208C-10.167,11.586 -5.098,46.92 0,85.323ZM-26.38,23.058C-27.594,30.637 -28.806,38.002 -30.017,45.146C-27.681,45.311 -25.338,45.472 -22.987,45.631C-22.175,51.26 -21.362,56.991 -20.548,62.822C-24.596,62.052 -28.622,61.253 -32.625,60.428C-33.472,65.261 -34.318,69.983 -35.163,74.59C-33.177,75.271 -31.186,75.94 -29.188,76.598L-29.188,91.765C-34.925,89.156 -40.615,86.42 -46.252,83.558L-46.252,70.653C-44.958,71.129 -43.66,71.6 -42.36,72.066C-37.915,52.915 -33.439,30.898 -28.933,6.315C-28.083,11.776 -27.232,17.358 -26.38,23.058Z" style="fill:none;fill-rule:nonzero;stroke:rgb(242,13,13);stroke-width:0.5px;"/>
    </g>
    <g transform="matrix(2.55135e-16,-4.16667,4.16667,2.55135e-16,4737.87,2758.15)">
        <path d="M0,-154.721C2.468,-154.152 4.941,-151.812 6.816,-147.245L6.816,-156.601C8.713,-157.109 10.613,-157.605 12.516,-158.089L12.516,-110.84C10.3,-110.618 8.087,-110.39 5.879,-110.156C4.674,-127.389 2.334,-132.49 0,-133.497L0,-154.721ZM-3.331,-132.601C-5.262,-130.722 -6.523,-125.92 -6.523,-119.313C-6.523,-110.225 -2.939,-105.146 1.868,-97.113C8.006,-86.881 16.009,-76.567 16.011,-46.132C16.015,-15.146 8.529,3.368 -1.733,0.093L-1.733,-22.254C0.798,-23.139 2.536,-28.359 2.536,-36.516C2.537,-46.801 -0.74,-51.579 -5.46,-60.494C-11.582,-72.076 -19.228,-80.824 -19.225,-107.969C-19.223,-131.874 -12.518,-151.789 -3.331,-154.809L-3.331,-132.601ZM-14.805,-54.891C-12.824,-35.958 -8.52,-26.125 -5.061,-23.016L-5.061,-2.001C-8.652,-5.237 -12.095,-11.43 -14.012,-17.762C-13.858,-14.716 -13.703,-11.662 -13.549,-8.603C-15.511,-9.237 -17.469,-9.883 -19.423,-10.544C-20.367,-25.827 -21.31,-40.908 -22.252,-55.78C-19.776,-55.476 -17.294,-55.18 -14.805,-54.891Z" style="fill:none;fill-rule:nonzero;stroke:rgb(242,13,13);stroke-width:0.5px;"/>
    </g>
    <g transform="matrix(2.55135e-16,-4.16667,4.16667,2.55135e-16,4516.16,2475.47)">
        <path d="M0,-60.273C-2.288,-60.161 -4.573,-60.044 -6.856,-59.92L-6.856,-85.094C-8.957,-84.893 -11.055,-84.682 -13.152,-84.461L-13.152,-109.113C-11.055,-109.428 -8.957,-109.73 -6.856,-110.018L-6.856,-121.981C-4.573,-122.339 -2.288,-122.679 0,-123.001L0,-60.273ZM-16.568,37.404C-14.907,37.611 -13.243,37.811 -11.579,38.004L-11.579,62.728C-19.696,61.429 -27.781,59.91 -35.825,58.172L-35.825,34.703C-34.176,34.961 -32.525,35.213 -30.872,35.457L-30.872,-106.359C-26.117,-107.254 -21.348,-108.078 -16.568,-108.832L-16.568,37.404ZM-37.384,-104.855C-36.345,-105.064 -35.306,-105.27 -34.266,-105.473L-34.266,-81.914C-35.961,-81.683 -37.655,-81.445 -39.347,-81.201C-40.069,-73.268 -40.791,-65.379 -41.512,-57.535C-43.946,-57.332 -46.377,-57.121 -48.803,-56.903C-47.275,-75.832 -45.746,-95.016 -44.215,-114.44C-41.672,-115.071 -39.123,-115.678 -36.571,-116.261C-36.842,-112.452 -37.113,-108.649 -37.384,-104.855Z" style="fill:none;fill-rule:nonzero;stroke:rgb(242,13,13);stroke-width:0.5px;"/>
    </g>
    <g transform="matrix(2.55135e-16,-4.16667,4.16667,2.55135e-16,4707.65,2220.22)">
        <path d="M0,-135.6C-1.683,-135.6 -3.366,-135.595 -5.049,-135.583L-5.049,-58.244C-5.048,-4.868 -12.178,24.181 -25.72,26.275L-25.72,-1.674C-21.161,-3.831 -19.57,-16.644 -19.571,-46.512L-19.571,-135.333C-21.253,-135.287 -22.934,-135.234 -24.616,-135.176L-24.616,-161.312C-16.417,-161.717 -8.209,-161.918 0,-161.914L0,-135.6ZM-30.486,-134.947C-32.166,-134.874 -33.845,-134.795 -35.524,-134.711L-35.524,-46.776C-35.523,-18.518 -33.593,-4.66 -29.174,-1.828L-29.174,26.318C-43.328,23.653 -49.992,-3.866 -49.994,-57.89L-49.994,-133.829C-51.668,-133.71 -53.342,-133.584 -55.015,-133.452L-55.015,-158.865C-46.858,-159.776 -38.678,-160.484 -30.486,-160.986L-30.486,-134.947Z" style="fill:none;fill-rule:nonzero;stroke:rgb(242,13,13);stroke-width:0.5px;"/>
    </g>
    <g transform="matrix(2.55135e-16,-4.16667,4.16667,2.55135e-16,4798.93,2094.65)">
        <path d="M0,-182.89C13.945,-181.912 21.157,-163.132 21.159,-130.351C21.159,-107.921 17.791,-93.666 11.864,-86.377C15.034,-49.501 20.752,-19.385 27.345,-9.325C27.093,-5.921 26.842,-2.514 26.59,0.897C12.571,-0.768 3.933,-28.233 -1.381,-69.342C-1.404,-69.602 -1.427,-69.862 -1.45,-70.122L-1.45,-99.313L-1.381,-99.313C4.074,-100.353 6.349,-110.181 6.349,-128.048C6.349,-145.132 3.729,-155.9 -1.381,-156.91C-1.404,-156.911 -1.427,-156.912 -1.45,-156.913L-1.45,-182.977C-0.967,-182.949 -0.483,-182.92 0,-182.89ZM-4.903,-26.191C-3.36,-26.253 -1.818,-26.321 -0.276,-26.394L-0.276,-0.35C-8.331,0.177 -16.398,0.492 -24.468,0.595L-24.468,-25.709C-22.784,-25.725 -21.101,-25.747 -19.419,-25.776L-19.419,-157.423C-21.102,-157.449 -22.784,-157.469 -24.468,-157.483L-24.468,-183.787C-17.943,-183.71 -11.42,-183.503 -4.903,-183.167L-4.903,-26.191Z" style="fill:none;fill-rule:nonzero;stroke:rgb(242,13,13);stroke-width:0.5px;"/>
    </g>
    <g transform="matrix(2.55135e-16,-4.16667,4.16667,2.55135e-16,4506.06,1785)">
        <path d="M0,-54.933C-2.252,-55.125 -4.507,-55.311 -6.765,-55.49L-6.765,-79.132C-8.843,-79.424 -10.924,-79.706 -13.007,-79.978L-13.007,-103.748C-10.924,-103.358 -8.843,-102.955 -6.765,-102.538L-6.765,-113.774C-4.507,-113.256 -2.252,-112.719 0,-112.165L0,-54.933ZM-16.406,38.415C-14.751,38.18 -13.097,37.938 -11.445,37.69L-11.445,61.373C-19.502,63.044 -27.598,64.497 -35.724,65.729L-35.724,40.846C-34.058,40.663 -32.393,40.473 -30.729,40.276L-30.729,-106.975C-25.943,-106.257 -21.168,-105.468 -16.406,-104.61L-16.406,38.415ZM-37.299,-107.667C-36.249,-107.524 -35.199,-107.378 -34.149,-107.228L-34.149,-82.414C-35.86,-82.585 -37.573,-82.749 -39.286,-82.907C-40.017,-74.549 -40.749,-66.16 -41.48,-57.742C-43.95,-57.867 -46.421,-57.984 -48.895,-58.094C-47.338,-79.089 -45.781,-99.951 -44.225,-120.662C-41.64,-120.302 -39.057,-119.919 -36.477,-119.513C-36.751,-115.57 -37.025,-111.621 -37.299,-107.667Z" style="fill:none;fill-rule:nonzero;stroke:rgb(242,13,13);stroke-width:0.5px;"/>
    </g>
    <g transform="matrix(2.55135e-16,-4.16667,4.16667,2.55135e-16,4632.55,1658.78)">
        <path d="M0,-104.262C-1.617,-104.59 -3.237,-104.912 -4.858,-105.227L-4.858,0.61C-3.237,0.261 -1.617,-0.094 0,-0.456L0,20.265C-7.885,22.702 -15.829,24.92 -23.82,26.918L-23.82,4.364C-22.182,4.067 -20.545,3.763 -18.91,3.453L-18.91,-107.801C-20.545,-108.082 -22.182,-108.357 -23.82,-108.626L-23.82,-131.18C-15.829,-129.319 -7.885,-127.253 0,-124.983L0,-104.262Z" style="fill:none;fill-rule:nonzero;stroke:rgb(242,13,13);stroke-width:0.5px;"/>
    </g>
    <g transform="matrix(2.55135e-16,-4.16667,4.16667,2.55135e-16,4568.01,1424.49)">
        <path d="M0,-74.593C-1.546,-75.064 -3.096,-75.529 -4.65,-75.988L-4.65,-30.862C-4.66,-0.282 -11.186,19.634 -23.902,27.385L-23.902,8.562C-19.619,5.646 -18.139,-3.075 -18.138,-22.339L-18.138,-79.798C-19.71,-80.222 -21.285,-80.64 -22.863,-81.052L-22.863,-98.529C-15.166,-95.676 -7.541,-92.619 0,-89.357L0,-74.593ZM-28.39,-82.467C-29.975,-82.864 -31.564,-83.256 -33.155,-83.642L-33.155,-20.708C-33.157,-0.418 -31.32,8.987 -27.152,9.516L-27.152,28.89C-40.511,33.599 -46.971,14.829 -46.958,-27.719L-46.958,-86.821C-48.565,-87.172 -50.175,-87.517 -51.787,-87.856L-51.787,-108.192C-43.924,-105.845 -36.122,-103.294 -28.39,-100.538L-28.39,-82.467Z" style="fill:none;fill-rule:nonzero;stroke:rgb(242,13,13);stroke-width:0.5px;"/>
    </g>
    <g transform="matrix(2.55135e-16,-4.16667,4.16667,2.55135e-16,4479.09,1175.32)">
        <path d="M0,-31.169C-1.436,-31.801 -2.877,-32.428 -4.323,-33.048C-3.432,-22.185 -2.542,-12.125 -1.655,-2.882C-0.215,-3.576 1.221,-4.276 2.651,-4.983L2.651,0.009C-4.305,4.754 -11.375,9.281 -18.547,13.589L-18.547,4.855C-17.093,4.222 -15.642,3.583 -14.196,2.937C-15.14,-12.676 -16.086,-29.255 -17.034,-46.782C-11.287,-43.538 -5.608,-40.162 0,-36.656L0,-31.169ZM-25.733,-22.073C-23.795,-30.924 -21.865,-38.937 -19.942,-46.08C-19.558,-38.593 -19.174,-31.259 -18.79,-24.08C-21.862,-13.137 -24.953,-0.226 -28.061,14.524C-28.982,14.981 -29.903,15.435 -30.827,15.886C-35.198,-1.795 -39.604,-23.278 -44.042,-48.201C-47.23,-49.275 -50.435,-50.323 -53.656,-51.344L-53.656,-65.306C-46.414,-62.046 -39.253,-58.596 -32.183,-54.955C-30.024,-43.017 -27.874,-32.04 -25.733,-22.073ZM-43.418,-27.153C-44.084,-13.204 -44.751,1.062 -45.419,15.641C-43.875,15.071 -42.334,14.494 -40.798,13.911L-40.798,26.089C-46.134,28.886 -51.518,31.568 -56.946,34.137L-56.946,19.741C-55.404,19.213 -53.866,18.677 -52.332,18.136C-51.238,-2.972 -50.147,-23.422 -49.057,-43.195C-48.093,-42.947 -47.131,-42.697 -46.17,-42.444C-45.252,-37.199 -44.334,-32.101 -43.418,-27.153Z" style="fill:none;fill-rule:nonzero;stroke:rgb(242,13,13);stroke-width:0.5px;"/>
    </g>
    <g transform="matrix(2.55135e-16,-4.16667,4.16667,2.55135e-16,5155.03,2959.33)">
        <path d="M0,105.537C-5.726,107.673 -14.123,106.043 -21.47,103.067L-21.47,88.333C-11.073,91.132 -5.7,84.523 -3.332,74.486C0.866,75.188 5.089,75.865 9.335,76.517C6.211,86.878 3.099,96.571 0,105.537ZM-21.47,2.269C-13.767,-1.006 -7.374,-2.136 -2.5,-1.196C0.869,7.565 4.254,17.145 7.653,27.477C3.414,28.182 -0.802,28.916 -4.994,29.677C-8.072,20.474 -12.475,15.219 -21.47,17.281L-21.47,2.269ZM-27.287,19.158C-42.349,26.696 -50.379,39.488 -50.398,52.686C-50.384,65.387 -41.546,78.47 -27.287,86.185L-27.287,100.419C-35.776,96.469 -47.702,86.001 -57.328,76.821C-66.983,67.336 -74.339,59.139 -74.354,52.703C-74.339,46.289 -67.119,38.151 -57.537,28.648C-47.983,19.465 -36.067,8.917 -27.287,5.055L-27.287,19.158Z" style="fill:none;fill-rule:nonzero;stroke:rgb(242,13,13);stroke-width:0.5px;"/>
    </g>
    <g transform="matrix(2.55135e-16,-4.16667,4.16667,2.55135e-16,5641.98,2481.66)">
        <path d="M0,-128.237C-3.094,-127.933 -6.183,-127.606 -9.268,-127.256L-9.268,-0.981C-6.183,-0.631 -3.094,-0.304 0,-0L0,25.595C-15.087,23.519 -30.081,20.683 -44.914,17.087L-44.914,-6.081C-41.872,-5.554 -38.824,-5.05 -35.77,-4.569L-35.77,-123.672C-38.824,-123.191 -41.872,-122.687 -44.914,-122.161L-44.914,-145.329C-30.081,-148.923 -15.087,-151.757 0,-153.832L0,-128.237ZM-42.037,-55.127C-47.503,-55.268 -52.947,-55.422 -58.367,-55.586L-58.367,-77.761C-52.947,-78.022 -47.503,-78.266 -42.037,-78.491L-42.037,-55.127ZM-55.51,-120.229C-58.535,-119.649 -61.553,-119.046 -64.562,-118.421L-64.562,-9.824C-61.553,-9.198 -58.535,-8.595 -55.51,-8.015L-55.51,14.382C-70.262,10.423 -84.837,5.705 -99.167,0.227L-99.167,-18.132C-96.229,-17.33 -93.28,-16.549 -90.322,-15.792L-90.322,-112.458C-93.28,-111.701 -96.229,-110.922 -99.167,-110.12L-99.167,-128.479C-84.837,-133.954 -70.262,-138.669 -55.51,-142.625L-55.51,-120.229Z" style="fill:none;fill-rule:nonzero;stroke:rgb(242,13,13);stroke-width:0.5px;"/>
    </g>
    <g transform="matrix(2.55135e-16,-4.16667,4.16667,2.55135e-16,5654.44,2256.44)">
        <path d="M0,-134.215C-3.119,-134.175 -6.238,-134.113 -9.355,-134.028L-9.355,-0.188C-6.238,-0.103 -3.119,-0.04 0,0L0,26.788C-15.212,26.517 -30.411,25.486 -45.531,23.696L-45.531,-2.21C-42.431,-1.948 -39.327,-1.708 -36.221,-1.492L-36.221,-132.725C-39.327,-132.508 -42.431,-132.269 -45.531,-132.007L-45.531,-157.913C-30.411,-159.702 -15.212,-160.732 0,-161.003L0,-134.215Z" style="fill:none;fill-rule:nonzero;stroke:rgb(242,13,13);stroke-width:0.5px;"/>
    </g>
    <g transform="matrix(2.55135e-16,-4.16667,4.16667,2.55135e-16,5615.14,1817.99)">
        <path d="M0,-117.366C-3.642,-117.934 -7.292,-118.47 -10.95,-118.973C-17.594,-88.484 -24.263,-56.483 -30.952,-23.463C-33.195,-33.595 -35.441,-43.848 -37.689,-54.203C-33.575,-76.844 -29.468,-99.08 -25.368,-120.784C-29.13,-121.212 -32.898,-121.606 -36.671,-121.966L-36.671,-147.629C-24.375,-145.988 -12.139,-143.842 0,-141.193L0,-117.366ZM-48.901,-123.013C-52.26,-123.267 -55.623,-123.495 -58.988,-123.696C-50.723,-83.492 -42.475,-44.019 -34.255,-6.15C-36.924,6.764 -39.597,19.821 -42.272,32.992C-46.263,33.475 -50.26,33.905 -54.261,34.282C-65.499,-17.219 -76.772,-70.952 -88.052,-124.769C-91.129,-124.813 -94.206,-124.834 -97.283,-124.833L-97.283,-151.642C-81.128,-151.648 -64.974,-150.799 -48.901,-149.094L-48.901,-123.013Z" style="fill:none;fill-rule:nonzero;stroke:rgb(242,13,13);stroke-width:0.5px;"/>
    </g>
    <g transform="matrix(2.55135e-16,-4.16667,4.16667,2.55135e-16,5129.59,1493.15)">
        <path d="M0,117.705C-9.749,121.81 -19.624,125.555 -29.603,128.94L-29.603,108.943C-22.679,107.264 -15.805,105.462 -8.988,103.535C-7.504,97.407 -6.023,91.433 -4.545,85.621C0.089,84.787 4.695,83.918 9.272,83.013C6.195,93.842 3.104,105.426 0,117.705ZM-9.71,78.113C-13.722,78.597 -17.754,79.063 -21.804,79.511L-21.804,66.057C-24.397,66.157 -26.996,66.255 -29.603,66.349L-29.603,45.749C-26.996,45.914 -24.397,46.084 -21.804,46.258L-21.804,32.804C-17.754,33.367 -13.722,33.954 -9.71,34.563L-9.71,78.113ZM-1.075,29.317C-5.057,28.489 -9.061,27.691 -13.084,26.923L-13.084,13.019C-18.556,11.519 -24.064,10.097 -29.603,8.755L-29.603,-11.241C-19.99,-7.982 -10.474,-4.39 -1.075,-0.464L-1.075,29.317ZM-35.726,130.967C-47.302,134.708 -59.01,137.968 -70.818,140.748L-70.818,117.384C-67.772,116.871 -64.733,116.336 -61.701,115.778L-61.701,1.927C-64.733,1.369 -67.772,0.834 -70.818,0.322L-70.818,-23.043C-59.01,-20.264 -47.302,-17.006 -35.726,-13.267L-35.726,130.967Z" style="fill:none;fill-rule:nonzero;stroke:rgb(242,13,13);stroke-width:0.5px;"/>
    </g>
    <g transform="matrix(2.55135e-16,-4.16667,4.16667,2.55135e-16,5529,1286.55)">
        <path d="M0,-72.481C4.188,-69.376 8.336,-65.558 11.455,-62.002L11.455,-65.354C14.612,-63.32 17.748,-61.241 20.863,-59.118L20.863,-46.171C17.235,-47.195 13.578,-48.193 9.893,-49.167C7.884,-56.114 3.962,-60.314 0,-62.726L0,-72.481ZM-5.679,-65.048C-8.985,-65.715 -11.169,-63.993 -11.168,-60.27C-11.172,-55.164 -4.953,-50.327 3.161,-45.463C13.57,-38.94 26.574,-36.068 26.554,-30.061C26.538,-24.484 14.549,-10.978 -2.948,0.71L-2.948,-10.142C1.368,-12.758 4.286,-16.342 4.288,-19.714C4.284,-24.04 -1.207,-24.212 -9.335,-27.732C-19.839,-32.149 -33.464,-38.669 -33.475,-59.8C-33.49,-78.84 -21.414,-86.439 -5.679,-76.367L-5.679,-65.048ZM-25.629,-21.362C-22.125,-8.92 -14.588,-6.44 -8.648,-7.755L-8.648,3.504C-14.823,5.965 -20.852,5.864 -24.231,3.34C-23.96,5.246 -23.688,7.133 -23.417,9.003C-26.868,10.702 -30.339,12.353 -33.828,13.958C-35.514,3.39 -37.204,-7.707 -38.898,-19.311C-34.446,-19.97 -30.022,-20.653 -25.629,-21.362Z" style="fill:none;fill-rule:nonzero;stroke:rgb(242,13,13);stroke-width:0.5px;"/>
    </g>
    <g transform="matrix(2.55135e-16,-4.16667,4.16667,2.55135e-16,5860.28,3447.8)">
        <path d="M0,0L581.102,0" style="fill:none;fill-rule:nonzero;stroke:rgb(29,29,27);stroke-width:0.5px;"/>
    </g>
</svg>
