<?xml version="1.0" encoding="UTF-8" standalone="no"?>
<!DOCTYPE svg PUBLIC "-//W3C//DTD SVG 1.1//EN" "http://www.w3.org/Graphics/SVG/1.1/DTD/svg11.dtd">
<svg width="100%" height="100%" viewBox="0 0 5906 3544" version="1.1" xmlns="http://www.w3.org/2000/svg" xmlns:xlink="http://www.w3.org/1999/xlink" xml:space="preserve" xmlns:serif="http://www.serif.com/" style="fill-rule:evenodd;clip-rule:evenodd;stroke-miterlimit:10;">
    <g transform="matrix(2.55135e-16,-4.16667,4.16667,2.55135e-16,79.1333,3472.04)">
        <path d="M0,0L813.543,0" style="fill:none;fill-rule:nonzero;stroke:rgb(29,29,27);stroke-width:0.5px;"/>
    </g>
    <g transform="matrix(2.55135e-16,-4.16667,4.16667,2.55135e-16,1047.64,3472.04)">
        <path d="M0,0L581.102,0" style="fill:none;fill-rule:nonzero;stroke:rgb(29,29,27);stroke-width:0.5px;"/>
    </g>
    <g transform="matrix(1.66666,1.02054e-16,2.55135e-16,-4.16667,1047.64,1050.78)">
        <path d="M-581.103,-581.103L581.103,-581.103" style="fill:none;fill-rule:nonzero;stroke:rgb(29,29,27);stroke-width:0.66px;"/>
    </g>
    <g transform="matrix(2.08334,1.27568e-16,2.55135e-16,-4.16667,1289.77,-1370.48)">
        <path d="M-581.103,-581.103L581.103,-581.103" style="fill:none;fill-rule:nonzero;stroke:rgb(29,29,27);stroke-width:0.63px;"/>
    </g>
    <g transform="matrix(2.55135e-16,-4.16667,4.16667,2.55135e-16,2016.14,3472.04)">
        <path d="M0,0L581.102,0" style="fill:none;fill-rule:nonzero;stroke:rgb(29,29,27);stroke-width:0.5px;"/>
    </g>
    <g>
        <g transform="matrix(2.55135e-16,-4.16667,4.16667,2.55135e-16,777.705,3057.15)">
            <path d="M0,-76.048C-2.97,-74.932 -5.927,-73.79 -8.87,-72.621L-8.87,-27.797C-8.664,-3.797 -18.021,12.594 -54.388,-8.644C-55.263,-10.4 -56.136,-12.075 -57.007,-13.667C-37.595,-5.989 -33.838,-13.597 -33.902,-27.488L-33.902,-61.872C-36.954,-60.459 -39.987,-59.016 -43.002,-57.542L-43.002,-64.669C-29.049,-73.505 -14.689,-81.496 0,-88.642L0,-76.048Z" style="fill:none;fill-rule:nonzero;stroke:rgb(242,13,13);stroke-width:0.5px;"/>
        </g>
        <g transform="matrix(2.55135e-16,-4.16667,4.16667,2.55135e-16,394.119,2669.57)">
            <path d="M0,91.39C3.132,91.664 6.271,91.926 9.416,92.176L9.416,112.807C-7.095,110.691 -23.437,108.02 -39.519,104.795L-39.519,87.216C-36.158,87.633 -32.786,88.036 -29.403,88.423C-38.866,50.634 -48.247,16.733 -57.528,-11.977C-48.541,-15.42 -39.46,-18.567 -30.301,-21.417C-20.287,12.046 -10.179,50.135 0,91.39ZM-52.479,27.471C-54.882,35.792 -57.279,43.83 -59.669,51.565C-55.057,51.384 -50.42,51.21 -45.76,51.043C-44.15,56.967 -42.537,63.028 -40.922,69.218C-48.955,68.843 -56.923,68.435 -64.815,67.996C-66.485,73.157 -68.152,78.161 -69.815,82.998C-65.906,83.603 -61.978,84.187 -58.032,84.749L-58.032,100.811C-69.367,98.202 -80.551,95.309 -91.554,92.134L-91.554,79.378C-89.027,79.829 -86.491,80.271 -83.946,80.704C-75.243,61.237 -66.432,37.444 -57.528,10.25C-55.849,15.822 -54.165,21.565 -52.479,27.471Z" style="fill:none;fill-rule:nonzero;stroke:rgb(242,13,13);stroke-width:0.5px;"/>
        </g>
        <g transform="matrix(2.55135e-16,-4.16667,4.16667,2.55135e-16,252.394,2259.88)">
            <path d="M0,145.509C-6.413,151.434 -15.897,154.663 -24.298,155.649L-24.298,131.362C-12.428,129.864 -6.411,117.969 -3.741,103.318C0.979,103.329 5.701,103.333 10.422,103.329C6.948,117.399 3.474,131.475 0,145.509ZM-24.298,-10.499C-15.497,-9.982 -8.283,-7.482 -2.805,-3.468C0.98,10.739 4.766,25.024 8.552,39.329C3.83,39.32 -0.891,39.35 -5.611,39.418C-9.083,25.51 -14.028,15.748 -24.298,14.245L-24.298,-10.499ZM-30.963,14.186C-48.281,17.33 -57.8,40.66 -57.803,73.286C-57.802,104.833 -47.351,127.756 -30.963,131.167L-30.963,156.008C-50.485,155.239 -86.343,135.114 -86.285,74.291C-86.34,13.782 -51.15,-10.016 -30.963,-10.428L-30.963,14.186Z" style="fill:none;fill-rule:nonzero;stroke:rgb(242,13,13);stroke-width:0.5px;"/>
        </g>
        <g transform="matrix(2.55135e-16,-4.16667,4.16667,2.55135e-16,338.056,1749.45)">
            <path d="M0,103.883L0,123.438C-15.884,125.926 -31.962,127.891 -48.153,129.334L-48.153,107.533C-45.55,107.389 -42.95,107.237 -40.353,107.077C-44.491,96.141 -48.636,84.939 -52.789,73.531C-46.824,65.832 -39.287,55.695 -31.652,44.477C-23.402,65.611 -15.189,85.786 -7.023,104.542C-4.678,104.329 -2.337,104.11 0,103.883ZM-60.881,42.702C-52.647,30.57 -44.174,16.238 -36.395,-0.223C-39.911,-0.7 -43.434,-1.144 -46.962,-1.557L-46.962,-23.317C-32.1,-21.065 -17.334,-18.077 -2.728,-14.354L-2.728,5.362C-7.192,4.484 -11.672,3.658 -16.164,2.886C-29.494,29.224 -48.785,55.064 -60.881,69.776L-60.881,42.702ZM-57.827,130.132C-73.574,131.33 -89.41,132.036 -105.263,132.25L-105.263,109.338C-102.013,109.311 -98.762,109.271 -95.514,109.218L-95.514,-5.206C-98.762,-5.316 -102.013,-5.399 -105.263,-5.456L-105.263,-28.367C-89.41,-28.009 -73.574,-26.83 -57.827,-24.83L-57.827,-2.725C-61.056,-3.041 -64.289,-3.332 -67.525,-3.595L-67.525,108.445C-64.289,108.319 -61.056,108.179 -57.827,108.027L-57.827,130.132Z" style="fill:none;fill-rule:nonzero;stroke:rgb(242,13,13);stroke-width:0.5px;"/>
        </g>
        <g transform="matrix(2.55135e-16,-4.16667,4.16667,2.55135e-16,718.46,1529.57)">
            <path d="M0,-72.002C-3.052,-72.941 -6.115,-73.855 -9.19,-74.741L-9.19,7.472C-6.115,7.047 -3.052,6.608 0,6.157L0,21.757C-14.884,25.311 -30.036,28.373 -45.384,30.944L-45.384,11.845C-42.237,11.518 -39.098,11.179 -35.968,10.827L-35.968,-81.728C-39.098,-82.461 -42.237,-83.167 -45.384,-83.847L-45.384,-102.946C-30.036,-98.653 -14.884,-93.538 0,-87.602L0,-72.002Z" style="fill:none;fill-rule:nonzero;stroke:rgb(242,13,13);stroke-width:0.5px;"/>
        </g>
        <g transform="matrix(2.55135e-16,-4.16667,4.16667,2.55135e-16,459.87,1205.39)">
            <path d="M0,59.659C-9.403,63.331 -18.998,66.77 -28.76,69.976L-28.76,59.649C-21.986,58.272 -15.293,56.825 -8.689,55.309C-7.252,52.529 -5.818,49.94 -4.389,47.548C0.091,47.116 4.529,46.671 8.922,46.213C5.968,49.81 2.994,54.31 0,59.659ZM-9.388,44.379C-13.277,44.485 -17.196,44.589 -21.144,44.69L-21.144,38.144C-23.671,37.977 -26.21,37.813 -28.76,37.652L-28.76,27.013C-26.21,27.502 -23.671,28.001 -21.144,28.509L-21.144,21.963C-17.196,23.119 -13.277,24.309 -9.388,25.531L-9.388,44.379ZM-1.037,25.668C-4.881,24.177 -8.757,22.724 -12.662,21.31C-12.663,19.229 -12.663,17.149 -12.662,15.069C-17.974,12.589 -23.341,10.202 -28.76,7.907L-28.76,-2.42C-19.357,2.738 -10.109,8.258 -1.037,14.138L-1.037,25.668ZM-34.757,71.911C-46.111,75.504 -57.681,78.787 -69.43,81.76L-69.43,66.944C-66.399,66.47 -63.38,65.982 -60.374,65.482L-60.374,-4.24C-63.38,-5.282 -66.399,-6.297 -69.43,-7.286L-69.43,-22.101C-57.681,-17.137 -46.111,-11.653 -34.757,-5.651L-34.757,71.911Z" style="fill:none;fill-rule:nonzero;stroke:rgb(242,13,13);stroke-width:0.5px;"/>
        </g>
        <g transform="matrix(2.55135e-16,-4.16667,4.16667,2.55135e-16,2031.83,590.254)">
            <path d="M0,55.361C9.694,56.38 18.821,57.396 27.369,58.41C28.415,56.065 29.443,53.708 30.455,51.34L39.687,51.34C34.84,59.563 29.707,67.655 24.289,75.598L19.298,75.598C20.413,73.342 21.512,71.074 22.593,68.794C13.978,67.17 4.032,65.54 -7.2,63.904C-7.677,62.457 -8.149,61.006 -8.616,59.551C-6.021,58.158 -3.147,56.762 0,55.361ZM1.039,27.573C-10.765,24.445 -23.758,21.302 -37.851,18.143C-26.637,17.512 -15.217,16.879 -3.596,16.246C15.328,21.31 31.72,26.335 45.264,31.318C44.59,32.793 43.909,34.265 43.22,35.733C18.367,42.681 -0.957,49.544 -13.851,56.315C-11.913,61.179 -9.909,65.994 -7.838,70.759L-13.725,70.759C-20.336,60.047 -26.471,49.076 -32.13,37.883C-22.602,34.467 -11.506,31.029 1.039,27.573ZM-36.91,-15.602C-36.285,-13.1 -35.644,-10.605 -34.989,-8.119C-6.515,-9.652 22.816,-11.188 52.966,-12.726C53.67,-15.222 54.357,-17.726 55.027,-20.237L73.604,-20.237C69.105,-8.026 64.062,4.015 58.476,15.846L44.066,15.846C44.887,13.447 45.692,11.039 46.481,8.622C15.259,10.2 -14.793,11.774 -43.628,13.344C-47.748,3.822 -51.542,-5.834 -55.009,-15.602L-36.91,-15.602Z" style="fill:none;fill-rule:nonzero;stroke:rgb(242,13,13);stroke-width:0.5px;"/>
        </g>
        <g transform="matrix(2.55135e-16,-4.16667,4.16667,2.55135e-16,1892.79,205.736)">
            <path d="M0,-52.611C-1.784,-43.86 -3.828,-35.156 -6.131,-26.511L-28.166,-26.511C-27.008,-32.509 -25.941,-38.536 -24.964,-44.588C-32.193,-45.905 -39.504,-47.223 -46.892,-48.543C-46.486,-52.679 -46.107,-56.826 -45.754,-60.983C-30.198,-58.188 -14.932,-55.397 0,-52.611ZM-58.263,-43.947C-58.526,-40.389 -58.805,-36.839 -59.097,-33.298L-74.859,-33.298C-74.937,-31.032 -75.018,-28.769 -75.101,-26.511L-97.8,-26.511C-97.889,-28.769 -97.974,-31.032 -98.057,-33.298L-113.819,-33.298C-114.119,-36.839 -114.404,-40.389 -114.675,-43.947L-58.263,-43.947ZM-7.573,-21.226C-10.355,-11.27 -13.483,-1.397 -16.957,8.372L-36.009,8.372C-35.36,5.852 -34.727,3.326 -34.112,0.792L-133.182,0.792C-132.625,3.326 -132.052,5.852 -131.464,8.372L-150.516,8.372C-153.752,-1.397 -156.665,-11.27 -159.256,-21.226L-7.573,-21.226ZM-124.467,-51.647C-124.139,-48.077 -123.791,-44.514 -123.423,-40.96L-140.923,-40.96C-140.189,-36.127 -139.403,-31.31 -138.565,-26.511L-160.599,-26.511C-162.665,-34.838 -164.508,-43.221 -166.126,-51.647L-124.467,-51.647Z" style="fill:none;fill-rule:nonzero;stroke:rgb(242,13,13);stroke-width:0.5px;"/>
        </g>
        <g transform="matrix(2.55135e-16,-4.16667,4.16667,2.55135e-16,1406.51,284.281)">
            <path d="M0,20.376C0.184,17.951 0.354,15.524 0.509,13.096L26.28,13.096C25.157,25.781 23.505,38.424 21.325,50.986L-3.081,50.986C-2.751,48.366 -2.438,45.743 -2.142,43.116L-126.207,43.116C-125.939,45.743 -125.656,48.366 -125.358,50.986L-149.763,50.986C-151.405,40.829 -152.725,30.619 -153.723,20.376L0,20.376ZM-154.414,12.661C-156.184,-9.316 -137.556,-20.797 -103.758,-20.79C-80.66,-20.791 -65.928,-15.443 -58.65,-6.067C-21.296,-11.081 10.258,-20.135 21.49,-30.61C24.994,-30.21 28.498,-29.81 32.002,-29.41C28.33,-7.146 -1.329,6.469 -42.057,14.835C-42.315,14.871 -42.573,14.908 -42.831,14.944L-71.642,14.944C-71.642,14.908 -71.642,14.871 -71.643,14.835C-72.692,6.246 -82.595,2.648 -100.542,2.649C-117.704,2.648 -128.233,6.79 -128.504,14.835C-128.502,14.871 -128.5,14.908 -128.498,14.944L-154.222,14.944C-154.288,14.183 -154.352,13.422 -154.414,12.661Z" style="fill:none;fill-rule:nonzero;stroke:rgb(242,13,13);stroke-width:0.5px;"/>
        </g>
        <g transform="matrix(2.55135e-16,-4.16667,4.16667,2.55135e-16,1182.66,285.641)">
            <path d="M0,-25.564C-0.218,-28.204 -0.452,-30.842 -0.703,-33.476L24.483,-33.476C26.172,-20.627 27.314,-7.714 27.909,5.221L1.779,5.221C1.691,2.569 1.586,-0.083 1.464,-2.733L-153.818,-2.733C-153.373,-10.357 -152.753,-17.97 -151.958,-25.564L0,-25.564ZM-154.06,7.728C-153.998,6.057 -153.927,4.385 -153.848,2.714L-127.747,2.714C-127.837,5.439 -127.912,8.164 -127.971,10.89C-119.179,12.054 -110.374,13.217 -101.558,14.381C-101.596,18.307 -101.614,22.235 -101.615,26.164C-123.413,23.69 -145.204,21.217 -166.945,18.744C-166.874,14.635 -166.745,10.526 -166.558,6.42C-162.395,6.856 -158.229,7.292 -154.06,7.728ZM-99.182,-51.728C-99.408,-48.138 -99.618,-44.542 -99.812,-40.94L-124.956,-40.94C-125.271,-37.626 -125.563,-34.308 -125.832,-30.985L-151.11,-30.985C-150.727,-34.308 -150.309,-37.626 -149.858,-40.94L-161.809,-40.94C-161.248,-44.542 -160.642,-48.138 -159.99,-51.728L-99.182,-51.728Z" style="fill:none;fill-rule:nonzero;stroke:rgb(242,13,13);stroke-width:0.5px;"/>
        </g>
        <g transform="matrix(2.55135e-16,-4.16667,4.16667,2.55135e-16,752.082,782.924)">
            <path d="M0,3.63C-0.078,15.014 19.957,21.634 55.129,21.629C88.96,21.633 110.179,14.591 110.164,3.63L133.906,3.63C139.674,26.288 106.309,44.738 55.293,44.723C4.784,44.739 -28.659,26.5 -23.531,3.63L0,3.63ZM-22.018,-1.63C-11.963,-24.33 20.025,-41.102 53.95,-41.109C87.844,-41.104 121.004,-24.018 132.072,-1.63L108.803,-1.63C102.977,-12.34 83.411,-18.652 54.936,-18.656C26.468,-18.652 6.637,-12.235 1.25,-1.63L-22.018,-1.63Z" style="fill:none;fill-rule:nonzero;stroke:rgb(242,13,13);stroke-width:0.5px;"/>
        </g>
        <g transform="matrix(2.55135e-16,-4.16667,4.16667,2.55135e-16,318.788,602.911)">
            <path d="M0,36.848L45.895,36.848C44.931,34.092 43.945,31.347 42.937,28.614L55.762,28.614C60.387,37.701 64.683,46.922 68.65,56.259L52.274,56.259C51.41,53.452 50.524,50.654 49.617,47.868L-19.68,47.868C-19.649,47.733 -19.618,47.599 -19.586,47.464C-12.528,43.907 -5.982,40.368 0,36.848ZM15.43,-11.669L32.487,-11.669C33.77,-9.699 35.035,-7.72 36.284,-5.733C31.669,10.701 8.782,27.706 -26.556,45.152C-27.662,48.835 -28.733,52.538 -29.77,56.259L-46.145,56.259C-42.236,46.381 -37.984,36.632 -33.39,27.036C-8.791,13.825 8.319,0.903 15.43,-11.669ZM-2.667,-19.411C-3.815,-16.846 -4.943,-14.265 -6.051,-11.669L10.685,-11.669C8.284,-8.229 5.144,-4.762 1.318,-1.271L-10.356,-1.271C-11.413,1.363 -12.451,4.012 -13.469,6.674L-22.997,6.674C-18.19,-2.179 -13.077,-10.88 -7.657,-19.411L-2.667,-19.411Z" style="fill:none;fill-rule:nonzero;stroke:rgb(242,13,13);stroke-width:0.5px;"/>
        </g>
        <g transform="matrix(4.16667,0,0,4.16667,1551.29,3194.73)">
            <path d="M0,21.262C6.18,19.486 11.096,15.615 13.464,12.491L21.315,12.491C18.421,15.735 14.705,18.83 11.927,20.55C12.958,20.412 14,20.273 15.054,20.135C13.926,21.897 12.785,23.652 11.63,25.4C6.875,26.245 2.477,27.088 -1.559,27.929C-1.031,25.718 -0.512,23.495 0,21.262ZM-37.912,7.914C-38.713,5.679 -38.716,3.431 -37.357,1.726L-41.467,1.726C-42.44,0 -43.401,-1.731 -44.35,-3.468L-22.24,-3.468C-21.805,-1.445 -21.364,0.571 -20.917,2.578C-28.23,3.674 -29.658,5.799 -29.366,7.914L-37.912,7.914ZM-28.012,10.929C-26.689,12.673 -24.569,13.811 -22.175,13.811C-18.875,13.81 -17.762,10.58 -14.887,6.22C-11.337,0.659 -6.374,-6.658 8.612,-6.662C24.03,-6.667 30.046,0.197 23.649,9.482L14.868,9.482C15.377,7.192 13.723,5.614 10.299,5.614C6.013,5.613 3.302,8.589 -0.587,12.851C-5.713,18.382 -8.379,25.229 -15.73,25.223C-22.003,25.22 -30.986,19.232 -36.533,10.929L-28.012,10.929Z" style="fill:none;fill-rule:nonzero;stroke:rgb(242,13,13);stroke-width:0.5px;"/>
        </g>
        <g transform="matrix(4.16667,0,0,4.16667,1374.01,3033.16)">
            <path d="M0,6.009C0.475,7.55 0.957,9.087 1.444,10.621L48.716,10.621C63.836,10.62 71.808,8.861 74.781,4.806L90.662,4.806C82.785,17.788 66.818,23.751 41.781,23.765L5.799,23.765C6.321,25.278 6.848,26.786 7.382,28.291L-4.067,28.291C-7.764,20.954 -11.259,13.524 -14.55,6.009L0,6.009ZM-7.956,-22.282C-7.553,-20.702 -7.144,-19.125 -6.73,-17.551L44.362,-17.551C80.085,-17.564 96.816,-10.846 92.048,1.631L75.883,1.631C76.019,-2.569 68.68,-4.046 50.601,-4.044L-3.002,-4.044C-2.552,-2.489 -2.097,-0.936 -1.636,0.613L-16.873,0.613C-20.067,-6.941 -23.059,-14.576 -25.848,-22.282L-7.956,-22.282Z" style="fill:none;fill-rule:nonzero;stroke:rgb(242,13,13);stroke-width:0.5px;"/>
        </g>
        <g transform="matrix(4.16667,0,0,4.16667,1618.77,2799.41)">
            <path d="M0,23.185C18.049,21.222 27.561,16.957 30.643,13.528L50.754,13.528C47.513,17.088 41.466,20.5 35.373,22.399C38.28,22.246 41.193,22.094 44.113,21.941C43.432,23.885 42.737,25.825 42.029,27.76C27.482,28.695 13.152,29.63 -0.954,30.564C-0.628,28.111 -0.31,25.651 0,23.185ZM-95.595,8.509C-95.137,6.063 -92.972,3.609 -88.632,1.748L-97.64,1.748C-98.193,-0.134 -98.734,-2.018 -99.264,-3.907L-53.662,-3.907C-53.419,-1.707 -53.17,0.488 -52.915,2.678C-69.48,3.873 -74.322,6.195 -75.231,8.509L-95.595,8.509ZM-74.285,11.813C-72.433,13.727 -67.808,14.976 -61.493,14.977C-52.803,14.976 -48.009,11.425 -40.331,6.656C-30.561,0.569 -20.595,-7.374 8.842,-7.376C38.828,-7.379 56.463,0.052 52.891,10.227L31.468,10.227C30.688,7.718 25.72,5.993 17.878,5.994C7.998,5.992 3.345,9.244 -5.233,13.923C-16.385,19.993 -24.705,27.568 -50.449,27.565C-73.107,27.563 -92.291,20.92 -95.557,11.813L-74.285,11.813Z" style="fill:none;fill-rule:nonzero;stroke:rgb(242,13,13);stroke-width:0.5px;"/>
        </g>
        <g transform="matrix(4.16667,0,0,4.16667,1781.18,2687.48)">
            <path d="M0,-15.544C0.237,-17.196 0.467,-18.85 0.69,-20.505L24.941,-20.505C23.438,-12.433 21.717,-4.397 19.778,3.594L-3.051,3.594C-2.763,1.955 -2.481,0.315 -2.207,-1.328L-140.415,-1.328C-141.419,-6.052 -142.354,-10.791 -143.218,-15.544L0,-15.544ZM-138.77,5.142C-139.003,4.11 -139.233,3.078 -139.459,2.045C-131.814,2.044 -124.169,2.044 -116.523,2.045C-116.265,3.729 -116,5.412 -115.729,7.092C-108.009,7.809 -100.338,8.525 -92.717,9.242C-92.492,11.659 -92.259,14.072 -92.019,16.48C-110.358,14.964 -128.978,13.446 -147.864,11.926C-148.561,9.4 -149.234,6.869 -149.885,4.333C-146.171,4.603 -142.466,4.873 -138.77,5.142ZM-95.834,-32.024C-95.702,-29.748 -95.563,-27.474 -95.418,-25.202L-120.145,-25.202C-119.909,-23.113 -119.665,-21.026 -119.411,-18.941L-143.586,-18.941C-143.949,-21.026 -144.298,-23.113 -144.635,-25.202L-156.387,-25.202C-156.805,-27.474 -157.206,-29.748 -157.588,-32.024L-95.834,-32.024Z" style="fill:none;fill-rule:nonzero;stroke:rgb(242,13,13);stroke-width:0.5px;"/>
        </g>
        <g transform="matrix(4.16667,0,0,4.16667,1424.5,2420.3)">
            <path d="M0,11.552C12.313,12.856 24.569,14.16 36.76,15.463C36.808,12.948 36.852,10.43 36.893,7.911C45.897,7.04 54.927,6.17 63.981,5.299C63.789,9.63 63.569,13.956 63.322,18.275C71.89,19.189 80.424,20.103 88.921,21.016C89.131,18.87 89.33,16.721 89.518,14.572L114.996,14.572C114.25,20.747 113.379,26.909 112.383,33.054L87.625,33.054C87.791,31.643 87.952,30.231 88.108,28.818C50.147,23.987 11.19,19.146 -28.467,14.297C-19.013,13.382 -9.523,12.467 0,11.552ZM91.467,-16.535C91.53,-18.19 91.587,-19.846 91.637,-21.502L117.921,-21.502C117.558,-12.807 116.949,-4.122 116.095,4.543L90.314,4.543C90.444,2.732 90.565,0.92 90.679,-0.893C38.433,4.178 -13.146,9.242 -63.642,14.297C-64.19,9.402 -64.664,4.499 -65.065,-0.41C-13.599,-5.779 38.734,-11.155 91.467,-16.535Z" style="fill:none;fill-rule:nonzero;stroke:rgb(242,13,13);stroke-width:0.5px;"/>
        </g>
        <g transform="matrix(4.16667,0,0,4.16667,1256.79,2312.87)">
            <path d="M0,-24.582C-0.023,-22.902 -0.04,-21.222 -0.051,-19.542L132.163,-19.542C132.151,-21.222 132.132,-22.902 132.107,-24.582L158.474,-24.582C158.644,-16.388 158.596,-8.191 158.33,0L132.003,0C132.042,-1.679 132.075,-3.36 132.101,-5.04L0.005,-5.04C0.029,-3.36 0.059,-1.679 0.094,0L-26.233,0C-26.481,-8.191 -26.525,-16.388 -26.367,-24.582L0,-24.582Z" style="fill:none;fill-rule:nonzero;stroke:rgb(242,13,13);stroke-width:0.5px;"/>
        </g>
        <g transform="matrix(4.16667,0,0,4.16667,1446.32,2023.96)">
            <path d="M0,26.813L86.098,26.813C86.015,24.905 85.924,22.998 85.825,21.091L111.89,21.091C112.347,27.43 112.673,33.778 112.868,40.129L86.534,40.129C86.491,38.219 86.44,36.309 86.38,34.4L-32.129,34.4C-32.127,34.308 -32.125,34.216 -32.123,34.124C-21.383,31.686 -10.669,29.249 0,26.813ZM41.758,-7.635L108.911,-7.635C109.106,-6.196 109.294,-4.756 109.476,-3.316C60.088,8.594 7.752,20.556 -45.215,32.537C-45.293,35.067 -45.358,37.598 -45.409,40.129L-71.743,40.129C-71.551,33.41 -71.222,26.694 -70.756,19.989C-32.353,10.758 5.485,1.545 41.758,-7.635ZM-42.285,-13.316C-42.469,-11.423 -42.645,-9.53 -42.813,-7.635L23.08,-7.635C13.087,-5.123 2.982,-2.609 -7.216,-0.092L-43.442,-0.092C-43.59,1.807 -43.73,3.707 -43.862,5.609L-69.547,5.609C-68.922,-0.713 -68.176,-7.023 -67.307,-13.316L-42.285,-13.316Z" style="fill:none;fill-rule:nonzero;stroke:rgb(242,13,13);stroke-width:0.5px;"/>
        </g>
        <g transform="matrix(4.16667,0,0,4.16667,1430.57,1827.45)">
            <path d="M0,10.949C11.421,12.238 22.947,13.528 34.569,14.819C34.496,12.327 34.419,9.839 34.339,7.354C42.613,6.496 50.835,5.638 59.002,4.781C59.409,9.045 59.788,13.321 60.139,17.607C68.469,18.514 76.845,19.422 85.264,20.33C84.987,18.196 84.7,16.065 84.402,13.936L108.487,13.936C109.671,20.051 110.729,26.188 111.661,32.34L86.701,32.34C86.546,30.928 86.386,29.515 86.221,28.104C47.417,23.279 9.548,18.465 -27.089,13.664C-18.006,12.759 -8.975,11.854 0,10.949ZM79.333,-16.573C79.023,-18.181 78.707,-19.787 78.384,-21.391L100.182,-21.391C102.519,-12.97 104.611,-4.49 106.458,4.036L82.931,4.036C82.652,2.254 82.364,0.474 82.069,-1.304C36.418,3.669 -11.181,8.66 -60.31,13.664C-59.434,8.818 -58.484,3.986 -57.461,-0.831C-9.806,-6.098 35.948,-11.347 79.333,-16.573Z" style="fill:none;fill-rule:nonzero;stroke:rgb(242,13,13);stroke-width:0.5px;"/>
        </g>
        <g transform="matrix(4.16667,0,0,4.16667,1819.95,1619.81)">
            <path d="M0,6.397C2.015,12.441 3.899,18.523 5.654,24.636L-15.847,24.636C-16.185,23.013 -16.529,21.393 -16.88,19.774L-122.64,19.774C-122.957,21.392 -123.269,23.013 -123.574,24.636L-145.075,24.636C-143.441,18.523 -141.686,12.441 -139.809,6.397L0,6.397ZM-138.353,1.789C-134.223,-10.23 -122.142,-15.704 -101.304,-15.713C-88.244,-15.711 -79.638,-12.672 -75.569,-6.86C-70.853,-14.497 -60.592,-18.235 -43.588,-18.239C-21.261,-18.228 -6.552,-11.61 -1.541,1.855C-1.397,2.272 -1.254,2.688 -1.112,3.104L-20.749,3.104C-20.771,3.017 -20.792,2.929 -20.814,2.841C-22.208,-2.486 -29.948,-5.355 -42.67,-5.356C-55.769,-5.355 -62.769,-2.42 -62.587,2.907C-62.583,2.973 -62.58,3.039 -62.577,3.104L-80.843,3.104C-80.842,3.083 -80.841,3.061 -80.84,3.039C-81.489,-1.237 -88.05,-3.064 -100.008,-3.066C-110.638,-3.064 -117.515,-1.302 -119.122,3.039C-119.127,3.061 -119.132,3.083 -119.137,3.104L-138.774,3.104C-138.634,2.666 -138.494,2.227 -138.353,1.789Z" style="fill:none;fill-rule:nonzero;stroke:rgb(242,13,13);stroke-width:0.5px;"/>
        </g>
        <g transform="matrix(4.16667,0,0,4.16667,1711.18,1504.27)">
            <path d="M0,-28.118C2.077,-24.059 4.089,-19.973 6.036,-15.861L-8.378,-15.861C-9.217,-18.307 -10.072,-20.743 -10.945,-23.171C-16.502,-24.176 -21.903,-25.179 -27.143,-26.18C-27.647,-28.642 -28.161,-31.094 -28.684,-33.535C-19.677,-31.735 -10.108,-29.929 0,-28.118ZM-79.744,-18.577C-80.362,-16.621 -80.97,-14.66 -81.569,-12.693L7.521,-12.693C10.297,-6.707 12.936,-0.668 15.438,5.417L-1.566,5.417C-2.034,3.847 -2.508,2.281 -2.989,0.717L-85.474,0.717C-85.909,2.281 -86.338,3.847 -86.762,5.417L-103.766,5.417C-100.67,-2.668 -97.349,-10.67 -93.801,-18.577L-79.744,-18.577Z" style="fill:none;fill-rule:nonzero;stroke:rgb(242,13,13);stroke-width:0.5px;"/>
        </g>
        <g transform="matrix(4.16667,0,0,4.16667,1607.1,1335.83)">
            <path d="M0,-30.405C3.201,-25.577 6.3,-20.697 9.295,-15.768L0.865,-15.768C-0.641,-19.188 -2.182,-22.584 -3.76,-25.956C-6.238,-26.69 -8.593,-27.423 -10.822,-28.154C-11.512,-30.448 -12.213,-32.73 -12.925,-35C-9.168,-33.474 -4.854,-31.942 0,-30.405ZM-13.224,-25.599C-12.801,-23.615 -12.384,-21.622 -11.973,-19.62L-17.417,-19.62C-17.307,-18.34 -17.198,-17.055 -17.091,-15.768L-25.775,-15.768C-25.661,-17.055 -25.545,-18.339 -25.429,-19.62L-30.873,-19.62C-30.451,-21.622 -30.024,-23.615 -29.59,-25.599L-13.224,-25.599ZM11.116,-12.743C14.527,-7.026 17.8,-1.245 20.936,4.595L9.299,4.595C8.713,3.089 8.12,1.586 7.521,0.087L-47.396,0.087C-47.939,1.586 -48.475,3.089 -49.006,4.595L-60.643,4.595C-57.722,-1.245 -54.673,-7.026 -51.496,-12.743L11.116,-12.743ZM-30.971,-29.872C-31.553,-27.9 -32.127,-25.919 -32.694,-23.93L-38.036,-23.93C-39.169,-21.225 -40.28,-18.504 -41.37,-15.768L-49.8,-15.768C-47.113,-20.516 -44.337,-25.218 -41.471,-29.872L-30.971,-29.872Z" style="fill:none;fill-rule:nonzero;stroke:rgb(242,13,13);stroke-width:0.5px;"/>
        </g>
    </g>
    <g transform="matrix(2.08334,1.27568e-16,2.55135e-16,-4.16667,1289.77,-2338.99)">
        <path d="M-581.103,-581.103L581.103,-581.103" style="fill:none;fill-rule:nonzero;stroke:rgb(29,29,27);stroke-width:0.63px;"/>
    </g>
    <g transform="matrix(2.55135e-16,-4.16667,4.16667,2.55135e-16,2500.39,1050.78)">
        <path d="M0,0L232.441,0" style="fill:none;fill-rule:nonzero;stroke:rgb(29,29,27);stroke-width:0.5px;"/>
    </g>
</svg>
